<?xml version="1.0" standalone="no"?>
<!DOCTYPE svg PUBLIC "-//W3C//DTD SVG 1.1//EN"
  "http://www.w3.org/Graphics/SVG/1.1/DTD/svg11.dtd">
<svg width="68.03703689575195mm" height="27.804962158203118mm" viewBox="-34.01703643798828 -13.904000282287594 68.03703689575195 27.804962158203118" xmlns="http://www.w3.org/2000/svg" version="1.1">
	<title>svgOutput</title>
	<desc>made with tinkercad</desc>
<path d="M 0.44003552198410034 -7.768658161163328 L 5.090996742248535 -5.965395927429198 L 5.116332054138184 -5.955650329589843 L 5.19188117980957 -5.929133415222167 L 9.086650848388672 -4.561789035797118 L 9.106502532958984 -4.554819583892821 L 9.113436698913574 -4.5526976585388175 L 9.160514831542969 -4.538289546966552 L 13.017873764038086 -3.3110828399658194 L 22.267831802368164 -0.7737368345260617 L 22.34174156188965 -0.7533185482025143 L 22.348114013671875 -0.7517148852348324 L 22.458559036254883 -0.7239172458648679 L 29.34000015258789 0.9919999837875365 L 33.02000045776367 3.3010001182556143 L 30.538000106811523 5.71500015258789 L 27.120792388916016 6.725558757781981 L 27.027999877929688 6.752999782562254 L 26.922466278076172 6.782617092132567 L 22.516172409057617 8.050303459167479 L 13.693711280822754 10.311206817626951 L 13.653014183044434 10.321396827697752 L 13.592660903930664 10.334610939025877 L 10.367171287536621 11.009920120239256 L 7.658036231994629 11.486783027648924 L 7.594888210296631 11.497443199157713 L 2.4086318016052246 12.161891937255856 L 2.3617727756500244 12.167343139648434 L 0 12.366710662841793 L -2.7376017570495605 12.597803115844723 L -2.833632230758667 12.604880332946774 L -7.989282608032227 12.855652809143063 L -8.033384323120117 12.857292175292965 L -11.311201095581055 12.900732994079586 L -11.346002578735352 12.900961875915524 L -14.613945960998535 12.833826065063473 L -14.649433135986328 12.83315277099609 L -14.651077270507812 12.833063125610348 L -14.685403823852539 12.831195831298825 L -16.384000778198242 12.73925971984863 L -17.71343421936035 12.667304992675778 L -19.604103088378906 12.497489929199215 L -19.65521812438965 12.492255210876461 L -21.670286178588867 12.233584403991696 L -23.6577091217041 11.885069847106932 L -23.696487426757812 11.87810707092285 L -24.576000213623047 11.640225410461424 L -27.036502838134766 10.974732398986815 L -27.06491470336914 10.966981887817381 L -27.083032608032227 10.960374832153319 L -28.01799964904785 10.600999832153319 L -29.8439998626709 9.68000030517578 L -30.702999114990234 9.086999893188475 L -31.50200080871582 8.368000030517576 L -32.04199981689453 7.7300000190734846 L -32.354000091552734 7.248000144958494 L -32.71699905395508 6.443999767303465 L -32.768001556396484 6.258075714111326 L -32.95399856567383 5.579999923706054 L -32.954837799072266 5.572389125823974 L -33.01703643798828 4.3866491317749015 L -33.016998291015625 4.379000186920165 L -32.887664794921875 3.501295566558837 L -32.88679885864258 3.4937100410461417 L -32.886165618896484 3.4911222457885733 L -32.88408279418945 3.482630729675292 L -32.768001556396484 3.063770055770873 L -32.64712905883789 2.6276338100433345 L -32.33964538574219 1.9023493528366084 L -32.297630310058594 1.8032432794570918 L -32.293663024902344 1.792481422424316 L -31.866165161132812 0.9898112416267394 L -31.858999252319336 0.9760000109672545 L -31.84760284423828 0.9592918157577514 L -31.16441535949707 1.1102230246251565e-16 L -30.560171127319336 -0.8484438061714169 L -29.67753028869629 -1.8604203462600704 L -29.654787063598633 -1.8865181207656856 L -29.654647827148438 -1.8866555690765376 L -28.237031936645508 -3.2904503345489493 L -28.223297119140625 -3.3036389350891104 L -26.84602165222168 -4.488391876220702 L -26.829999923706055 -4.501999855041503 L -25.34115982055664 -5.619616985321044 L -25.31907844543457 -5.6359567642211905 L -22.976516723632812 -7.160369396209715 L -22.67313003540039 -7.357797622680662 L -22.638734817504883 -7.3800711631774885 L -18.63821792602539 -9.663681983947752 L -18.605144500732422 -9.682766914367674 L -18.520383834838867 -9.72822856903076 L -16.384000778198242 -10.870700836181639 L -13.111000061035156 -12.621000289916989 L -11.711589813232422 -12.79843425750732 L -11.099687576293945 -12.876018524169918 L -11.09496784210205 -12.876616477966305 L -10.904325485229492 -12.900789260864254 L -10.878999710083008 -12.904000282287594 L -8.837275505065918 -11.860429763793944 L -8.804609298706055 -11.8439884185791 L -8.73505687713623 -11.812630653381346 L -1.8546042442321777 -8.718450546264647 L -1.7914308309555054 -8.692301750183104 L 2.2276413335753454e-19 -7.944370746612547 L 0.17131002247333527 -7.8728480339050275 L 0.44003552198410034 -7.768658161163328 z" fill="none" stroke="rgb(255,0,0)" stroke-width="0.001mm" />
</svg>