<?xml version="1.0" standalone="no"?>
<!DOCTYPE svg PUBLIC "-//W3C//DTD SVG 1.1//EN"
  "http://www.w3.org/Graphics/SVG/1.1/DTD/svg11.dtd">
<svg width="53.48394012451172mm" height="39.02471733093261mm" viewBox="-26.73893928527832 -19.51161956787109 53.48394012451172 39.02471733093261" xmlns="http://www.w3.org/2000/svg" version="1.1">
	<title>svgOutput</title>
	<desc>made with tinkercad</desc>
<path d="M 2.3442633152008057 -3.000865936279296 L 5.684541702270508 1.1102230246251565e-16 L 7.163205146789551 1.3284136056900024 L 7.1830058097839355 1.345527172088623 L 9.115997314453125 2.9742975234985347 L 9.155229568481445 3.0067458152770987 L 12.172718048095703 5.406776905059814 L 13.04096794128418 6.097359657287596 L 14.64603328704834 7.29054021835327 L 14.704550743103027 7.335109233856199 L 17.47612762451172 9.237481117248533 L 17.485071182250977 9.243725776672362 L 17.487993240356445 9.24562644958496 L 17.520315170288086 9.266642570495604 L 22.482683181762695 12.207120895385739 L 22.525999069213867 12.232000350952145 L 25.7450008392334 15.501000404357907 L 25.604541778564453 15.636926651000973 L 22.778167724609375 18.372097015380856 L 22.73900032043457 18.409999847412106 L 20.260780334472656 18.433706283569332 L 20.237384796142578 18.433706283569332 L 17.01935386657715 18.51173591613769 L 16.961891174316406 18.51309776306152 L 16.924978256225586 18.512496948242184 L 12.013973236083984 18.427551269531246 L 11.974678993225098 18.425588607788082 L 9.939202308654785 18.31217765808105 L 9.935999870300293 18.3120002746582 L 9.898117065429688 18.30831909179687 L 6.290918827056885 17.969528198242184 L 3.1519062519073486 17.55369186401367 L 3.0890703201293945 17.545423507690426 L 3.0871522426605225 17.54511451721191 L 0 17.046745300292965 L -1.5977187156677246 16.78882026672363 L -1.6390000581741333 16.78199958801269 L -1.7493122816085815 16.759943008422848 L -3.5311810970306396 16.44288063049316 L -5.938284397125244 15.98951148986816 L -9.612181663513184 15.187718391418453 L -11.450818061828613 14.786453247070309 L -11.491559028625488 14.776099205017086 L -13.466678619384766 14.2688455581665 L -13.952987670898438 14.143950462341305 L -17.214479446411133 13.181900024414059 L -17.2474308013916 13.172343254089352 L -20.963279724121094 11.932739257812498 L -21.017000198364258 11.914999961853026 L -21.01709747314453 11.914785385131834 L -21.90999984741211 9.951000213623045 L -21.920427322387695 9.921974182128904 L -24.04602813720703 3.6498749256134024 L -24.062000274658203 3.6010000705718985 L -24.740999221801758 1.059999942779541 L -24.747085571289062 1.032090663909912 L -24.959224700927734 1.1102230246251565e-16 L -25.34705352783203 -1.886838316917419 L -25.347625732421875 -1.8896210193634029 L -25.350374221801758 -1.9063667058944698 L -25.352827072143555 -1.929184794425964 L -25.615564346313477 -3.856250286102294 L -25.6889591217041 -4.789873123168944 L -25.70742416381836 -5.024737358093261 L -25.7380428314209 -6.628814697265623 L -25.73872947692871 -6.654513359069822 L -25.73893928527832 -6.662366867065428 L -25.73772430419922 -6.679959297180174 L -25.679447174072266 -8.15563106536865 L -25.6773738861084 -8.171922683715819 L -25.390932083129883 -10.343945503234862 L -25.385583877563477 -10.368285179138182 L -24.927276611328125 -12.291399955749508 L -24.9198055267334 -12.313322067260739 L -24.555870056152344 -13.359023094177243 L -24.553356170654297 -13.36624431610107 L -24.547504425048828 -13.378230094909664 L -24.113889694213867 -14.373864173889157 L -24.107032775878906 -14.385065078735348 L -23.1726016998291 -15.874036788940426 L -23.171649932861328 -15.875553131103512 L -23.166337966918945 -15.8824348449707 L -23.15718650817871 -15.891660690307614 L -22.726543426513672 -16.38400077819824 L -22.467748641967773 -16.679870605468746 L -22.02753257751465 -17.067760467529293 L -21.944250106811523 -17.14114189147949 L -21.073070526123047 -17.713039398193356 L -21.060077667236328 -17.721822738647457 L -21.055233001708984 -17.725097656249996 L -21.043333053588867 -17.729551315307614 L -20.105976104736328 -18.162178039550778 L -20.093854904174805 -18.164802551269528 L -18.474069595336914 -18.4954719543457 L -18.472986221313477 -18.495693206787106 L -18.46501350402832 -18.49631881713867 L -18.453481674194336 -18.495815277099606 L -17.50624656677246 -18.51161956787109 L -17.495290756225586 -18.50996398925781 L -16.384000778198242 -18.33362770080566 L -16.032459259033203 -18.27784729003906 L -16.015750885009766 -18.272926330566403 L -14.950297355651855 -17.945398330688473 L -14.949000358581543 -17.944999694824215 L -14.933812141418457 -17.938461303710934 L -13.952668190002441 -17.52555465698242 L -13.948055267333984 -17.523612976074215 L -13.935616493225098 -17.5167064666748 L -13.019988059997559 -17.04160690307617 L -11.77149486541748 -16.248458862304684 L -11.758724212646484 -16.240165710449215 L -11.466480255126953 -16.011926651000973 L -11.055242538452148 -15.690753936767575 L -10.417652130126953 -15.192802429199215 L -10.028850555419922 -14.889152526855465 L -9.981794357299805 -14.852401733398434 L -9.964164733886719 -14.838699340820309 L -9.96377182006836 -14.838326454162594 L -8.004504203796387 -12.985713005065914 L -7.974926948547363 -12.957901954650875 L -3.590383529663086 -8.595088958740233 L -3.5472989082336426 -8.55198001861572 L -3.5389318466186523 -8.543892860412596 L -3.5256340503692627 -8.531039237976072 L -3.507404088973999 -8.513704299926756 L -3.483886480331421 -8.491548538208006 L -6.080138020662929e-16 -5.189331054687499 L 1.6493574380874634 -3.6259801387786856 L 1.6737337112426758 -3.6033704280853263 L 1.6841529607772827 -3.5939011573791495 L 1.6940492391586304 -3.5849072933197013 L 1.7099360227584839 -3.5707380771636954 L 2.3442633152008057 -3.000865936279296 z" fill="none" stroke="rgb(255,0,0)" stroke-width="0.001mm" />
</svg>