<?xml version="1.0" standalone="no"?>
<!DOCTYPE svg PUBLIC "-//W3C//DTD SVG 1.1//EN"
  "http://www.w3.org/Graphics/SVG/1.1/DTD/svg11.dtd">
<svg width="70.30108642578125mm" height="85.60800170898436mm" viewBox="-35.146087646484375 -42.80400085449218 70.30108642578125 85.60800170898436" xmlns="http://www.w3.org/2000/svg" version="1.1">
	<title>svgOutput</title>
	<desc>made with tinkercad</desc>
<path d="M 23.797664642333984 -4.929418087005614 L 23.85799217224121 -4.909693241119384 L 28.090431213378906 -3.5644006729125968 L 29.776491165161133 -2.987564325332641 L 29.79987144470215 -2.978401184082031 L 32.01041793823242 -2.0706741809844966 L 32.02507781982422 -2.062749862670898 L 32.75600051879883 -1.6399999856948848 L 33.39099884033203 -1.1100000143051143 L 33.79032897949219 -0.47866129875183083 L 34.09308624267578 1.1102230246251565e-16 L 34.106998443603516 0.021999999880790818 L 34.154998779296875 1.8650000095367427 L 33.233001708984375 3.253999948501586 L 32.556095123291016 3.6672532558441153 L 32.320465087890625 3.811105251312255 L 32.319000244140625 3.812000036239623 L 32.30743408203125 3.8155083656311026 L 31.64960289001465 4.037748336791991 L 31.636611938476562 4.039845943450927 L 30.515056610107422 4.20957851409912 L 29.78955078125 4.319374561309814 L 29.762502670288086 4.320883274078368 L 27.441329956054688 4.408791542053222 L 27.39632225036621 4.4082393646240225 L 23.554040908813477 4.315392494201659 L 23.470577239990234 4.311994552612304 L 19.093931198120117 4.122349739074706 L 19.045747756958008 4.1219820976257315 L 14.163381576538086 4.036048889160155 L 12.406567573547363 4.071275234222411 L 9.53288745880127 4.128896236419677 L 9.47758960723877 4.130085945129394 L 8.502676010131836 4.176510334014892 L 5.287624835968018 4.329607963562011 L 5.233565807342529 4.332417011260985 L 5.168282985687256 4.33912706375122 L 0.2102695256471634 4.818362236022948 L 0.201959490776062 4.819165229797362 L 0.16961239278316498 4.824329376220702 L 0 4.849224567413329 L -2.6029551029205322 5.231275558471679 L -7.187025547027588 6.122211456298826 L -7.236865043640137 6.132024765014647 L -9.244927406311035 6.642682552337645 L -9.283591270446777 6.652937412261961 L -11.142505645751953 7.235700130462645 L -11.154833793640137 7.240128517150877 L -12.198867797851562 7.7093019485473615 L -12.2178316116333 7.718931198120115 L -13.237173080444336 8.333301544189451 L -13.244643211364746 8.3389196395874 L -14.108909606933594 9.148860931396483 L -14.115975379943848 9.15574264526367 L -14.124133110046387 9.166181564331053 L -15.003215789794922 10.310964584350584 L -15.635364532470703 11.393520355224608 L -15.645999908447266 11.411000251770018 L -15.64828109741211 11.415639877319334 L -16.320621490478516 12.782961845397946 L -16.333391189575195 12.80993556976318 L -17.73004722595215 16.286756515502926 L -17.74054718017578 16.31328964233398 L -17.763954162597656 16.38400077819824 L -18.686796188354492 19.171791076660153 L -18.69821548461914 19.20478820800781 L -18.706777572631836 19.233921051025387 L -18.83411407470703 19.67924308776855 L -19.412019729614258 21.700290679931637 L -20.20319366455078 24.906473159790032 L -20.21256446838379 24.942255020141594 L -20.226842880249023 25.00650787353515 L -21.100000381469727 28.99300003051757 L -21.107986450195312 29.033945083618157 L -21.80231285095215 32.76800155639648 L -22.451303482055664 36.258228302001946 L -22.459999084472656 36.30699920654296 L -25.558000564575195 41.80400085449218 L -29.19499969482422 37.38100051879882 L -30.41023826599121 32.76800155639648 L -30.468189239501953 32.54801940917968 L -30.48424530029297 32.48705673217773 L -31.432470321655273 28.447225570678704 L -31.444332122802734 28.396282196044915 L -32.2552604675293 24.30113983154296 L -32.26543045043945 24.249656677246087 L -32.27532958984375 24.183061599731438 L -32.27800369262695 24.160577774047844 L -32.768001556396484 20.65088844299316 L -33.38920211791992 16.201421737670895 L -33.39459991455078 16.145484924316403 L -33.81662368774414 11.22345447540283 L -33.92205047607422 9.993882179260252 L -33.92399978637695 9.965999603271483 L -33.92608642578125 9.920981407165526 L -34.145362854003906 3.7170281410217276 L -34.146087646484375 3.6728806495666495 L -34.08976364135742 1.1102230246251565e-16 L -34.066078186035156 -1.5443271398544307 L -34.06486129760742 -1.602529406547546 L -34.06477737426758 -1.6064330339431758 L -34.06259536743164 -1.6426196098327632 L -33.81368637084961 -6.047910213470457 L -33.81027603149414 -6.084195137023924 L -33.429012298583984 -9.347665786743162 L -33.42449188232422 -9.37634754180908 L -33.423431396484375 -9.383091926574705 L -33.4195556640625 -9.40016746520996 L -32.768001556396484 -12.542575836181637 L -32.62739181518555 -13.220720291137692 L -32.61679458618164 -13.253288269042965 L -31.886857986450195 -15.365061759948727 L -31.879976272583008 -15.380530357360836 L -31.409509658813477 -16.38400077819824 L -31.08485221862793 -17.076467514038082 L -31.07268524169922 -17.098213195800778 L -31.070316314697266 -17.102449417114254 L -31.06560516357422 -17.109760284423825 L -29.521778106689453 -19.627492904663082 L -28.342424392700195 -21.275032043457028 L -28.31666374206543 -21.310592651367184 L -27.364490509033203 -22.550197601318356 L -27.319618225097656 -22.604858398437496 L -26.29632568359375 -23.884960174560543 L -25.402759552001953 -24.93988418579101 L -23.479310989379883 -27.210659027099602 L -23.44232749938965 -27.2519245147705 L -21.102434158325195 -29.84815025329589 L -21.05299949645996 -29.90299987792968 L -20.993383407592773 -29.963989257812493 L -19.200647354125977 -31.86833953857421 L -18.318220138549805 -32.76800155639648 L -17.48100471496582 -33.62156677246093 L -16.384000778198242 -34.68776321411132 L -14.421006202697754 -36.595630645751946 L -14.401776313781738 -36.61416244506835 L -14.393308639526367 -36.622322082519524 L -14.359832763671875 -36.651348114013665 L -11.628052711486816 -39.07308959960937 L -11.54874324798584 -39.1433982849121 L -9.727363586425781 -40.51733398437499 L -9.713980674743652 -40.52750396728515 L -9.694635391235352 -40.53951263427734 L -8.715791702270508 -41.13610458374023 L -8.192000389099121 -41.3871841430664 L -8.165624618530273 -41.399829864501946 L -8.15297794342041 -41.40496826171874 L -7.506999969482422 -41.64400100708007 L -6.949999809265137 -41.765998840332024 L -6.255000114440918 -41.80400085449218 L -5.421000003814697 -41.66199874877929 L -4.558000087738037 -41.24599838256835 L -3.8589999675750732 -40.59000015258788 L -3.424999952316284 -39.860000610351555 L -3.2090001106262207 -39.193000793457024 L -3.1240549087524414 -38.629993438720696 L -3.123065710067749 -38.61989212036132 L -3.122779130935669 -38.61696624755859 L -3.1232943534851074 -38.60906600952148 L -3.1470000743865967 -37.48699951171874 L -3.339766502380371 -36.36130142211913 L -3.4057860374450684 -35.97576904296874 L -3.410067081451416 -35.952461242675774 L -3.4273264408111572 -35.88045501708984 L -4.108862400054932 -33.13159561157226 L -4.195445537567139 -32.76800155639648 L -4.723232746124268 -30.55163383483886 L -5.342541217803955 -27.48077201843261 L -5.354734420776367 -27.406190872192376 L -5.720195770263672 -25.11958694458007 L -6.023429870605469 -21.70598220825195 L -6.024938583374023 -21.683471679687496 L -6.024644374847412 -21.666801452636715 L -6.01674222946167 -20.762037277221676 L -6.0070481300354 -20.670417785644528 L -5.86561918258667 -19.333774566650387 L -5.863705635070801 -19.318908691406246 L -5.661220073699951 -18.515880584716793 L -5.659257888793945 -18.508089065551754 L -5.658705711364746 -18.50589561462402 L -5.655111312866211 -18.496892929077145 L -5.381509304046631 -17.758068084716793 L -5.065434455871582 -17.15357398986816 L -5.059693813323975 -17.14339447021484 L -4.51246976852417 -16.38400077819824 L -4.496685981750488 -16.36209678649902 L -4.485694885253906 -16.34926605224609 L -3.9128096103668213 -15.739833831787106 L -3.300414800643921 -15.21929836273193 L -3.287571668624878 -15.208884239196774 L -2.2741572856903076 -14.523397445678707 L -2.259535551071167 -14.514234542846676 L -2.2431840896606445 -14.506101608276364 L -0.28253331780433655 -13.488736152648922 L -4.6347197908810367e-20 -13.374734878540036 L 3.8422412872314453 -11.824405670166014 L 3.888584613800049 -11.805453300476072 L 10.043150901794434 -9.471439361572264 L 10.138352394104004 -9.435387611389158 L 15.12739372253418 -7.658455371856688 L 15.208844184875488 -7.6306347846984846 L 15.294268608093262 -7.60419988632202 L 23.631061553955078 -4.981824398040771 L 23.797664642333984 -4.929418087005614 z" fill="none" stroke="rgb(255,0,0)" stroke-width="0.001mm" />
</svg>