<?xml version="1.0" standalone="no"?>
<!DOCTYPE svg PUBLIC "-//W3C//DTD SVG 1.1//EN"
  "http://www.w3.org/Graphics/SVG/1.1/DTD/svg11.dtd">
<svg width="68.83337020874023mm" height="84.03600311279295mm" viewBox="-34.39836883544922 -42.01800155639648 68.83337020874023 84.03600311279295" xmlns="http://www.w3.org/2000/svg" version="1.1">
	<title>svgOutput</title>
	<desc>made with tinkercad</desc>
<path d="M 32.84199905395508 -0.5820000171661375 L 33.21013641357422 1.1102230246251565e-16 L 33.39799880981445 0.29699999094009405 L 33.435001373291016 1.7079999446868892 L 32.72600173950195 2.775000095367431 L 32.005001068115234 3.2160000801086417 L 30.980186462402344 3.5112013816833487 L 30.96397590637207 3.5154826641082755 L 30.95134925842285 3.51694369316101 L 29.205808639526367 3.7045300006866446 L 29.168701171875 3.705597162246703 L 26.192991256713867 3.748050928115844 L 26.14784049987793 3.7467169761657706 L 20.664400100708008 3.5275371074676505 L 20.626846313476562 3.525796651840209 L 20.6046199798584 3.5251476764678946 L 20.577680587768555 3.5243611335754386 L 17.056983947753906 3.400949239730834 L 16.236618041992188 3.39760661125183 L 14.026483535766602 3.388601303100585 L 13.66463565826416 3.387127161026 L 13.601978302001953 3.3874192237853995 L 7.41657018661499 3.5562467575073233 L 7.353747844696045 3.5586225986480704 L 4.517246723175049 3.7294247150421134 L 4.463634967803955 3.7333757877349845 L 4.42495059967041 3.738050937652587 L 1.539670705795288 4.099773883819579 L 4.554560108373891e-15 4.292799472808837 L -3.615586042404175 4.746079921722411 L -3.691112756729126 4.7594575881958 L -6.6529998779296875 5.339000225067138 L -9.376999855041504 5.998000144958495 L -9.39920711517334 6.004809379577635 L -11.606800079345703 6.725535392761229 L -11.629782676696777 6.735838413238524 L -12.849746704101562 7.305647850036619 L -12.934000015258789 7.344999790191649 L -13.72778606414795 7.882089138031004 L -13.736958503723145 7.888110637664793 L -13.745292663574219 7.8952503204345685 L -14.861924171447754 8.989173889160154 L -14.870003700256348 8.998105049133299 L -14.87819766998291 9.009564399719237 L -15.593000411987305 9.986000061035154 L -15.666092872619629 10.11139678955078 L -16.252513885498047 11.117441177368162 L -16.26430320739746 11.13856792449951 L -16.272180557250977 11.155134201049803 L -16.276893615722656 11.166110992431639 L -17.989850997924805 15.035323143005368 L -18.004981994628906 15.075506210327145 L -18.18233871459961 15.60358905792236 L -18.444438934326172 16.38400077819824 L -19.58662986755371 19.784906387329098 L -19.597999572753906 19.82099914550781 L -19.604225158691406 19.8433723449707 L -21.161190032958984 26.002122879028313 L -21.174999237060547 26.059000015258782 L -21.191007614135742 26.137702941894524 L -21.79029655456543 28.947546005249016 L -22.08786392211914 30.54724502563476 L -22.500957489013672 32.76800155639648 L -23.134992599487305 36.17652511596679 L -23.143999099731445 36.22700119018554 L -25.604000091552734 41.01800155639648 L -28.50200080871582 37.21599960327148 L -29.59197425842285 33.13451766967773 L -29.608354568481445 33.072559356689446 L -29.609291076660156 33.06901550292968 L -29.618488311767578 33.030254364013665 L -29.681316375732422 32.76800155639648 L -30.683780670166016 28.583475112915032 L -30.690717697143555 28.55090141296386 L -31.541765213012695 24.190015792846673 L -31.548574447631836 24.152627944946282 L -31.554977416992188 24.110933303833 L -32.24044418334961 19.73855590820312 L -32.25891876220703 19.620712280273434 L -32.589664459228516 16.920457839965817 L -32.59604263305664 16.868991851806637 L -32.600257873535156 16.824069976806637 L -32.64020919799805 16.38400077819824 L -32.768001556396484 14.976263046264645 L -33.160057067871094 10.657421112060545 L -33.163917541503906 10.59579277038574 L -33.39494705200195 5.636606216430663 L -33.396392822265625 5.588571548461913 L -33.39834976196289 1.1102230246251565e-16 L -33.39836883544922 -0.05876024439930903 L -33.39745330810547 -0.12934489548206315 L -33.39690017700195 -0.1413471251726149 L -33.39617156982422 -0.15710361301898942 L -33.394378662109375 -0.1827280223369597 L -32.95602035522461 -7.382088661193846 L -32.95181655883789 -7.421408653259276 L -32.768001556396484 -8.733324050903319 L -32.555908203125 -10.247049331665037 L -32.549556732177734 -10.282569885253904 L -32.07565689086914 -12.472392082214352 L -32.06602478027344 -12.505613327026364 L -31.52400016784668 -14.26299953460693 L -31.51766014099121 -14.278702735900875 L -30.604412078857422 -16.38400077819824 L -30.60243797302246 -16.388553619384762 L -30.59501838684082 -16.403747558593746 L -29.770626068115234 -17.84914970397949 L -29.760587692260742 -17.86616516113281 L -29.757503509521484 -17.871393203735348 L -29.747453689575195 -17.886295318603512 L -28.617000579833984 -19.61899948120117 L -28.601425170898438 -19.640140533447262 L -26.797636032104492 -22.052103042602536 L -26.760284423828125 -22.0983715057373 L -24.243404388427734 -25.17192840576171 L -24.2426815032959 -25.172811508178704 L -24.20042610168457 -25.220731735229485 L -21.12697410583496 -28.710823059082024 L -19.337995529174805 -30.626176834106438 L -19.305522918701172 -30.66093444824218 L -17.256450653076172 -32.76800155639648 L -17.003149032592773 -33.02846908569335 L -16.9498291015625 -33.08139419555663 L -14.853800773620605 -35.139907836914055 L -14.821392059326172 -35.16935729980468 L -11.457457542419434 -38.225322723388665 L -11.456687927246094 -38.22602462768554 L -11.42965316772461 -38.247505187988274 L -10.086931228637695 -39.31872177124023 L -8.54675006866455 -40.34649658203124 L -8.533005714416504 -40.35535049438476 L -8.531999588012695 -40.355998992919915 L -8.521493911743164 -40.36108016967773 L -7.878153324127197 -40.68127441406249 L -7.876789569854736 -40.681953430175774 L -7.868912696838379 -40.68426513671874 L -7.085000038146973 -40.93799972534179 L -6.296000003814697 -41.01800155639648 L -5.63700008392334 -40.90499877929687 L -4.961999893188477 -40.58000183105468 L -4.414000034332275 -40.06600189208984 L -4.071633338928223 -39.49106216430663 L -4.071000099182129 -39.49000167846679 L -4.067862033843994 -39.477180480957024 L -3.861280679702759 -38.71676635742187 L -3.860529899597168 -38.71400070190429 L -3.8604283332824707 -38.70621490478515 L -3.8081016540527344 -38.058547973632805 L -3.917720079421997 -37.02829360961913 L -3.9443483352661133 -36.77802658081054 L -3.9478166103363037 -36.754890441894524 L -4.902636528015137 -32.76800155639648 L -4.948934555053711 -32.57468032836913 L -4.956252098083496 -32.54497909545898 L -4.962280750274658 -32.51895523071288 L -4.968677043914795 -32.491340637207024 L -5.821700572967529 -28.632989883422844 L -5.82850980758667 -28.597303390502923 L -6.597613334655762 -23.563081741333004 L -6.600726127624512 -23.542425155639645 L -6.604308605194092 -23.5053539276123 L -6.72179651260376 -21.64627647399902 L -6.72179651260376 -21.6279182434082 L -6.645774841308594 -19.788585662841793 L -6.644237518310547 -19.771537780761715 L -6.508978366851807 -18.936285018920895 L -6.026190757751465 -17.434608459472653 L -6.020905494689941 -17.41457366943359 L -6.016855239868164 -17.405570983886715 L -6.016852855682373 -17.40556716918945 L -5.5034589767456055 -16.485406875610348 L -5.495417594909668 -16.47286796569824 L -5.425020694732666 -16.38400077819824 L -4.757907390594482 -15.541847229003903 L -4.747337341308594 -15.530261039733883 L -3.8034827709198 -14.669339179992672 L -3.7863574028015137 -14.65606307983398 L -2.9422194957733154 -14.049863815307614 L -2.9253103733062744 -14.040030479431149 L -1.01193106174469 -13.006332397460934 L -0.9809708595275879 -12.992230415344235 L 0 -12.571110725402828 L 1.574150562286377 -11.895344734191893 L 1.657388687133789 -11.86324119567871 L 7.628090858459473 -9.578321456909178 L 8.318673133850098 -9.31404399871826 L 13.164320945739746 -7.530000209808348 L 13.239999771118164 -7.501999855041502 L 13.310647964477539 -7.478941917419432 L 18.32748794555664 -5.8488378524780265 L 19.69154167175293 -5.405620574951171 L 23.90038299560547 -4.108314037322997 L 24.00154685974121 -4.076718807220458 L 29.515592575073242 -2.277865648269653 L 29.561683654785156 -2.262036323547363 L 31.670547485351562 -1.3932160139083858 L 31.68171501159668 -1.3885535001754756 L 31.69515609741211 -1.3812485933303829 L 32.32899856567383 -1.0119999647140498 L 32.84199905395508 -0.5820000171661375 z" fill="none" stroke="rgb(255,0,0)" stroke-width="0.001mm" />
</svg>