<?xml version="1.0" standalone="no"?>
<!DOCTYPE svg PUBLIC "-//W3C//DTD SVG 1.1//EN"
  "http://www.w3.org/Graphics/SVG/1.1/DTD/svg11.dtd">
<svg width="51.93492317199707mm" height="37.57203865051269mm" viewBox="-25.964923858642578 -18.798645019531246 51.93492317199707 37.57203865051269" xmlns="http://www.w3.org/2000/svg" version="1.1">
	<title>svgOutput</title>
	<desc>made with tinkercad</desc>
<path d="M 2.0975613594055176 -2.312491655349731 L 4.653432846069336 1.1102230246251565e-16 L 5.40500020980835 0.6800000071525574 L 6.309999942779541 1.4709999561309814 L 9.524999618530273 4.173999786376952 L 12.390000343322754 6.441999912261961 L 12.422816276550293 6.466151714324949 L 15.043097496032715 8.4002628326416 L 15.138790130615234 8.465015411376951 L 16.384000778198242 9.30762195587158 L 17.147024154663086 9.823943138122557 L 17.182903289794922 9.848145484924315 L 17.206127166748047 9.862413406372069 L 19.625 11.37100028991699 L 20.071779251098633 11.622877120971678 L 22.25200080871582 12.852000236511227 L 24.969999313354492 15.463000297546383 L 22.631000518798828 17.68099975585937 L 22.611053466796875 17.68110084533691 L 20.27511215209961 17.722568511962887 L 20.205617904663086 17.72402954101562 L 16.384000778198242 17.75330543518066 L 13.761542320251465 17.77339363098144 L 13.726235389709473 17.77260589599609 L 10.082128524780273 17.601804733276364 L 10.041841506958008 17.59960556030273 L 8.048493385314941 17.427816390991207 L 7.99003791809082 17.42169380187988 L 4.846490383148193 17.060342788696286 L 4.799050331115723 17.053329467773434 L 1.527967476936537e-14 16.319463729858395 L -0.4434869885444641 16.251646041870114 L -0.4785778224468231 16.245853424072262 L -3.034684896469116 15.797620773315426 L -3.1274430751800537 15.779643058776852 L -7.2279863357543945 14.983757972717282 L -7.339244365692139 14.962162971496578 L -13.641148567199707 13.471347808837887 L -13.683062553405762 13.461462974548336 L -13.745595932006836 13.44372749328613 L -16.97800064086914 12.48999977111816 L -20.429000854492188 11.336000442504881 L -21.18600082397461 9.673000335693358 L -22.72881507873535 5.287052154541015 L -22.73200035095215 5.277999877929687 L -22.742481231689453 5.243163108825683 L -23.32103729248047 3.3850739002227774 L -23.981536865234375 0.9099249243736266 L -23.98773765563965 0.8856086134910582 L -23.98942756652832 0.8789885640144347 L -23.993186950683594 0.8605791926383971 L -24.180538177490234 1.1102230246251565e-16 L -24.474000930786133 -1.348000049591064 L -24.690217971801758 -2.6680135726928706 L -24.696062088012695 -2.7153646945953365 L -24.93400001525879 -5.074999809265136 L -24.9646053314209 -6.631964206695555 L -24.964923858642578 -6.658390522003172 L -24.864219665527344 -8.525365829467772 L -24.861690521240234 -8.553964614868162 L -24.855606079101562 -8.583528518676756 L -24.2810001373291 -11.73299980163574 L -24.08504867553711 -12.326922416687008 L -23.82900047302246 -13.10299968719482 L -23.2549991607666 -14.343000411987301 L -23.248443603515625 -14.35369777679443 L -22.54450225830078 -15.437747955322262 L -22.533958435058594 -15.450185775756832 L -21.909000396728516 -16.163999557495114 L -21.899700164794922 -16.171634674072262 L -21.658445358276367 -16.38400077819824 L -21.429746627807617 -16.585311889648434 L -21.26108169555664 -16.69596481323242 L -20.654720306396484 -17.093769073486325 L -20.64453125 -17.099918365478512 L -20.633617401123047 -17.104022979736325 L -19.803302764892578 -17.487092971801754 L -19.79214859008789 -17.489505767822262 L -19.388723373413086 -17.5721263885498 L -18.350696563720703 -17.784708023071286 L -18.343303680419922 -17.785291671752926 L -18.332529067993164 -17.784822463989254 L -17.482467651367188 -17.798645019531246 L -17.47211265563965 -17.79709434509277 L -17.03719139099121 -17.728303909301754 L -16.384000778198242 -17.624990463256832 L -16.136302947998047 -17.585813522338864 L -16.1202449798584 -17.581100463867184 L -15.128999710083008 -17.277999877929684 L -15.117070198059082 -17.272994995117184 L -13.32118034362793 -16.432806015014645 L -13.314627647399902 -16.429403305053707 L -13.3100004196167 -16.427000045776364 L -13.29462718963623 -16.417242050170895 L -12.481096267700195 -15.922607421874996 L -11.653943061828613 -15.329803466796871 L -11.3624906539917 -15.120923995971676 L -11.348413467407227 -15.110480308532711 L -10.095389366149902 -14.045567512512203 L -9.776639938354492 -13.77467060089111 L -9.75791072845459 -13.758073806762692 L -9.754990577697754 -13.755486488342282 L -9.725642204284668 -13.726124763488766 L -4.645021438598633 -8.69585609436035 L -4.589298248291016 -8.641161918640135 L 6.52342583146577e-16 -4.296122074127196 L 1.9959604740142822 -2.4063932895660396 L 2.0297553539276123 -2.374465942382812 L 2.059929370880127 -2.346413612365722 L 2.0975613594055176 -2.312491655349731 z" fill="none" stroke="rgb(255,0,0)" stroke-width="0.001mm" />
</svg>