<?xml version="1.0" standalone="no"?>
<!DOCTYPE svg PUBLIC "-//W3C//DTD SVG 1.1//EN"
  "http://www.w3.org/Graphics/SVG/1.1/DTD/svg11.dtd">
<svg width="195.1622543334961mm" height="182.8399505615234mm" viewBox="-97.58699798583984 -91.42099761962889 195.1622543334961 182.8399505615234" xmlns="http://www.w3.org/2000/svg" version="1.1">
	<title>svgOutput</title>
	<desc>made with tinkercad</desc>
<path d="M 73.62136840820312 24.27588272094726 L 73.65799713134766 24.298999786376946 L 78.46238708496094 27.557619094848626 L 78.51254272460938 27.591640472412102 L 78.5304183959961 27.603414535522454 L 78.54801940917969 27.615264892578118 L 78.59098052978516 27.645406723022454 L 82.93904113769531 30.872884750366204 L 82.99150848388672 30.91289520263671 L 83.02232360839844 30.939035415649407 L 85.25379180908203 32.76800155639648 L 85.75911712646484 33.18217468261718 L 85.79096221923828 33.211555480957024 L 88.29277038574219 35.47049331665038 L 89.06159210205078 36.2290916442871 L 90.6701889038086 37.81631469726562 L 90.69300079345703 37.83900070190429 L 91.81456756591797 39.03363037109374 L 91.8359603881836 39.05679702758788 L 93.40675354003906 40.89810943603515 L 93.42152404785156 40.91606903076171 L 94.36735534667969 42.20251846313476 L 94.3808822631836 42.221240997314446 L 94.77098083496094 42.86016845703124 L 95.21514892578125 43.587661743164055 L 95.748291015625 44.68060302734374 L 95.76300048828125 44.70800018310546 L 96.16976928710938 45.876960754394524 L 96.17649841308594 45.897144317626946 L 96.45805358886719 47.41275787353515 L 96.56055450439453 47.964546203613274 L 96.56336212158203 47.98057556152343 L 96.57321166992188 49.15200042724608 L 96.57422637939453 49.272949218749986 L 96.57525634765625 49.28942489624022 L 96.46055603027344 50.49560928344725 L 96.45085144042969 50.597595214843736 L 96.44792175292969 50.62562561035155 L 96.28008270263672 51.50037384033202 L 95.91181945800781 52.812492370605455 L 95.9078140258789 52.82938766479491 L 95.9041976928711 52.84062576293944 L 95.24468231201172 54.58123397827147 L 95.23799896240234 54.59799957275389 L 94.3949966430664 56.33900070190428 L 93.40899658203125 58.04999923706053 L 92.3030014038086 59.72299957275389 L 89.7979965209961 62.94100189208983 L 88.4375 64.4653854370117 L 88.4107437133789 64.49460601806639 L 87.38162231445312 65.53600311279295 L 85.84574127197266 67.09020996093749 L 85.8169937133789 67.11869812011717 L 83.83450317382812 68.93927764892577 L 83.80062866210938 68.96961975097655 L 80.3816146850586 71.84957122802733 L 80.35099792480469 71.87499999999999 L 80.32757568359375 71.89328765869139 L 76.6173095703125 74.71597290039061 L 76.56788635253906 74.75159454345702 L 72.61079406738281 77.44000244140624 L 72.55867004394531 77.47329711914061 L 68.43669891357422 79.9454879760742 L 68.41670989990234 79.9572296142578 L 68.38307189941406 79.97565460205077 L 67.21400451660156 80.61203002929686 L 66.29000091552734 81.11499786376952 L 65.53600311279297 81.49342346191405 L 63.15433883666992 82.68875122070311 L 63.12739944458008 82.70253753662108 L 63.08732604980469 82.7215118408203 L 60.66014862060547 83.84940338134764 L 59.98326110839844 84.16395568847655 L 57.94547653198242 85.04166412353514 L 57.90599822998047 85.05899810791014 L 56.96909713745117 85.43872833251952 L 55.86800003051758 85.88500213623045 L 52.89129638671875 86.98484802246092 L 52.865699768066406 86.99455261230467 L 52.82763671875 87.00757598876952 L 49.624839782714844 88.04818725585936 L 49.57090759277344 88.06320953369139 L 46.61000061035156 88.85700225830077 L 43.877159118652344 89.44641876220702 L 43.829132080078125 89.45616912841795 L 39.82168960571289 90.05743408203124 L 39.789466857910156 90.06227874755858 L 39.789363861083984 90.06228637695311 L 39.77006912231445 90.06433105468749 L 36.754859924316406 90.31214904785155 L 36.72576141357422 90.31423950195311 L 33.71647644042969 90.41790771484374 L 33.677772521972656 90.41895294189452 L 32.768001556396484 90.40377807617186 L 31.42772102355957 90.38143157958983 L 31.392358779907227 90.38065338134764 L 28.39590835571289 90.20096588134764 L 28.341266632080078 90.19641113281249 L 25.58867835998535 89.90614318847655 L 25.553062438964844 89.90129089355467 L 20.987794876098633 89.15588378906249 L 20.918699264526367 89.14281463623045 L 16.287282943725586 88.17723083496092 L 16.184526443481445 88.15241241455077 L 6.991790771484375 85.8401641845703 L 6.938621520996094 85.82618713378905 L 0.08380921930074692 83.94143676757811 L 0.022511113435029984 83.92468261718749 L 0.01834101416170597 83.92343902587889 L 0 83.91795349121092 L -0.05278420075774193 83.90216064453124 L -5.908862590789795 82.11658477783202 L -5.92326021194458 82.11219024658202 L -6.0197672843933105 82.07821655273436 L -10.012401580810547 80.69698333740233 L -14.548504829406738 78.94071197509764 L -15.556081771850586 78.55059814453124 L -15.585283279418945 78.53898620605467 L -20.101186752319336 76.61672210693358 L -20.156145095825195 76.59371948242186 L -20.201122283935547 76.57332611083983 L -23.195598602294922 75.21086120605467 L -25.18762969970703 74.26949310302733 L -25.192903518676758 74.26699829101561 L -25.29323387145996 74.21840667724608 L -27.3013973236084 73.2469024658203 L -30.340761184692383 71.73560333251952 L -30.343263626098633 71.73435974121092 L -30.405960083007812 71.70187377929686 L -35.53300094604492 69.0490036010742 L -39.604618072509766 66.80289459228514 L -39.6666145324707 66.76842498779295 L -41.679813385009766 65.53600311279295 L -45.458106994628906 63.22303390502928 L -45.52299880981445 63.18299865722655 L -48.24700164794922 61.31600189208983 L -51.066001892089844 59.25199890136717 L -51.09769058227539 59.22723007202147 L -54.16325378417969 56.811313629150376 L -54.205318450927734 56.77609252929686 L -56.821102142333984 54.57493209838866 L -57.1701774597168 54.281188964843736 L -58.414188385009766 53.18374633789061 L -58.527713775634766 53.08359527587889 L -59.29484176635742 52.3855743408203 L -59.32600021362305 52.35800170898436 L -61.22062683105469 50.564079284667955 L -61.235321044921875 50.55036163330077 L -61.26420593261719 50.52202224731444 L -63.00331497192383 48.7906036376953 L -63.497474670410156 48.29862594604491 L -64.95176696777344 46.76239013671874 L -64.9800033569336 46.73300170898437 L -65.53600311279297 46.106914520263665 L -67.79972076416016 43.557849884033196 L -67.83158111572266 43.52220916748046 L -67.8404312133789 43.5118064880371 L -67.84917449951172 43.50133895874023 L -67.85778045654297 43.490833282470696 L -71.33702087402344 39.19411087036132 L -71.35791778564453 39.16765594482421 L -71.38397979736328 39.133132934570305 L -75.92192077636719 32.76800155639648 L -77.12413024902344 31.081712722778313 L -77.14695739746094 31.049819946289055 L -77.14908599853516 31.046712875366204 L -77.16696166992188 31.020618438720696 L -77.17755889892578 31.00469017028808 L -77.18449401855469 30.994047164916985 L -77.19390106201172 30.97936058044433 L -77.19473266601562 30.978067398071282 L -77.20811462402344 30.956678390502923 L -77.22119903564453 30.935188293457024 L -77.23400115966797 30.913568496704094 L -83.22295379638672 21.087976455688473 L -83.24754333496094 21.04430770874023 L -85.06812286376953 17.614433288574215 L -85.08226776123047 17.58753967285156 L -85.08556365966797 17.5812816619873 L -85.09664154052734 17.558965682983395 L -85.10724639892578 17.536432266235348 L -86.91400146484375 13.838999748229977 L -86.92533111572266 13.813317298889157 L -86.93954467773438 13.778426170349118 L -89.50711822509766 7.438827514648436 L -89.782958984375 6.757747173309324 L -89.79508209228516 6.725002288818358 L -91.07955169677734 2.8014786243438716 L -91.08779907226562 2.7771677970886226 L -91.0955581665039 2.752501249313354 L -91.10108184814453 2.733817100524902 L -91.84196472167969 1.1102230246251565e-16 L -92.78245544433594 -3.4703657627105704 L -92.78765869140625 -3.4891769886016837 L -92.79031372070312 -3.4993641376495352 L -92.79420471191406 -3.5143134593963614 L -92.80573272705078 -3.5643198490142813 L -93.40699768066406 -6.2319998741149885 L -94.14154815673828 -10.042971611022947 L -94.15340423583984 -10.105641365051268 L -94.90670776367188 -14.780499458312985 L -94.91568756103516 -14.838952064514157 L -95.1150131225586 -16.38400077819824 L -95.63838958740234 -20.440883636474606 L -95.648681640625 -20.525411605834957 L -95.65359497070312 -20.57997894287109 L -96.35951232910156 -28.319410324096673 L -96.36341094970703 -28.398033142089837 L -96.36909484863281 -28.522552490234368 L -96.54606628417969 -32.402515411376946 L -96.54972076416016 -32.76800155639648 L -96.58654022216797 -36.44451522827148 L -96.58699798583984 -36.4932632446289 L -96.50209045410156 -40.26276779174804 L -96.50084686279297 -40.31118774414062 L -96.27771759033203 -44.26334381103515 L -96.27554321289062 -44.30472564697265 L -96.27494049072266 -44.31258392333984 L -96.27286529541016 -44.339363098144524 L -95.88387298583984 -48.74765014648436 L -95.88028717041016 -48.78232574462889 L -95.8320083618164 -49.15200042724608 L -95.3915786743164 -52.52418518066405 L -95.38600158691406 -52.56600189208983 L -94.87100219726562 -55.721000671386705 L -93.95099639892578 -60.23300170898436 L -92.9024887084961 -64.47048187255858 L -92.8867416381836 -64.53321838378905 L -92.5989761352539 -65.53600311279295 L -91.94584655761719 -67.81203460693358 L -91.93866729736328 -67.8372116088867 L -91.92414855957031 -67.88292694091795 L -91.00299835205078 -70.75299835205077 L -89.84391021728516 -74.01306152343749 L -89.8199462890625 -74.07878112792967 L -88.30740356445312 -77.96873474121092 L -85.69698333740234 -84.25189971923827 L -85.65299987792969 -84.35900115966795 L -85.65049743652344 -84.36378479003905 L -84.25499725341797 -87.03700256347655 L -79.46700286865234 -90.42099761962889 L -78.78500366210938 -86.99900054931639 L -79.22599792480469 -85.16699981689452 L -79.22830200195312 -85.15238952636717 L -79.5383071899414 -82.80261993408202 L -79.62815856933594 -81.51715850830077 L -79.63099670410156 -81.48500061035155 L -79.63138580322266 -81.47093963623045 L -79.70600128173828 -78.74900054931639 L -79.59700012207031 -73.86399841308592 L -79.43903350830078 -71.14398956298827 L -79.43412017822266 -71.07415771484374 L -79.20999908447266 -68.36599731445311 L -78.89486694335938 -65.53600311279295 L -78.8030014038086 -64.71099853515624 L -78.79618835449219 -64.66363525390624 L -78.14753723144531 -60.240539550781236 L -78.1368637084961 -60.18028259277342 L -77.27542877197266 -55.473449707031236 L -77.27495574951172 -55.47087097167967 L -77.26023864746094 -55.40357589721678 L -76.53160858154297 -52.05268478393553 L -75.82173919677734 -49.16878509521483 L -75.81710815429688 -49.15200042724608 L -75.80232238769531 -49.09836959838866 L -74.66791534423828 -45.14522552490234 L -74.6439437866211 -45.07250976562499 L -73.040771484375 -40.20317077636718 L -73.02971649169922 -40.16958618164062 L -73.01703643798828 -40.136604309082024 L -73.00664520263672 -40.10956954956054 L -71.81201934814453 -36.83272552490234 L -71.35489654541016 -35.684497833251946 L -70.86717224121094 -34.51751327514648 L -70.34192657470703 -33.323867797851555 L -70.32941436767578 -33.29516220092773 L -70.32706451416016 -33.29009246826171 L -70.0849380493164 -32.76800155639648 L -69.76073455810547 -32.06893920898437 L -69.75312805175781 -32.052932739257805 L -69.13705444335938 -30.789192199707024 L -69.1287841796875 -30.772666931152337 L -68.46038055419922 -29.46745872497558 L -68.45142364501953 -29.450401306152337 L -67.91433715820312 -28.444343566894524 L -67.90715789794922 -28.43119812011718 L -67.53099822998047 -27.74699974060058 L -67.13500213623047 -27.045000076293938 L -66.7249984741211 -26.332000732421868 L -66.3010025024414 -25.611999511718743 L -65.86399841308594 -24.88500022888183 L -65.53600311279297 -24.349534988403313 L -65.41500091552734 -24.152000427246087 L -64.9540023803711 -23.41500091552734 L -64.48200225830078 -22.677000045776364 L -64.0009994506836 -21.937999725341793 L -63.51100158691406 -21.201999664306637 L -63.01499938964844 -20.46999931335449 L -62.512001037597656 -19.74399948120117 L -62.00400161743164 -19.025999069213864 L -61.49100112915039 -18.315999984741207 L -60.972999572753906 -17.61499977111816 L -60.45100021362305 -16.924999237060543 L -60.0317268371582 -16.38400077819824 L -59.92399978637695 -16.245000839233395 L -59.391998291015625 -15.576000213623043 L -58.854000091552734 -14.916000366210934 L -58.31100082397461 -14.265999794006344 L -57.7599983215332 -13.624999999999996 L -57.20100021362305 -12.98999977111816 L -56.632999420166016 -12.362999916076657 L -56.053001403808594 -11.739999771118162 L -55.4630012512207 -11.123000144958494 L -54.86000061035156 -10.508999824523924 L -54.24399948120117 -9.899000167846678 L -53.6150016784668 -9.29199981689453 L -52.972999572753906 -8.687999725341795 L -52.430782318115234 -8.19200038909912 L -52.316001892089844 -8.086999893188475 L -51.64500045776367 -7.489999771118162 L -50.959999084472656 -6.896999835968016 L -50.262001037597656 -6.308000087738035 L -49.54999923706055 -5.7249999046325675 L -49.152000427246094 -5.408134937286376 L -48.82400131225586 -5.146999835968017 L -48.08599853515625 -4.574999809265136 L -47.33599853515625 -4.010000228881835 L -46.57400131225586 -3.451999902725219 L -45.80099868774414 -2.903000116348266 L -45.016998291015625 -2.361000061035156 L -44.2239990234375 -1.8279999494552608 L -43.42300033569336 -1.3049999475479122 L -42.61399841308594 -0.7910000085830685 L -41.79999923706055 -0.28600001335144026 L -41.32680130004883 1.1102230246251565e-16 L -40.98099899291992 0.2090000063180924 L -40.159000396728516 0.6930000185966492 L -39.33700180053711 1.1670000553131104 L -38.513999938964844 1.629999995231628 L -37.694000244140625 2.0820000171661373 L -36.87799835205078 2.523000001907348 L -36.066001892089844 2.9519999027252193 L -35.2599983215332 3.369999885559081 L -34.459999084472656 3.7769999504089347 L -33.66600036621094 4.171999931335448 L -32.87900161743164 4.554999828338622 L -32.768001556396484 4.607938289642333 L -32.0989990234375 4.927000045776366 L -31.325000762939453 5.287000179290771 L -30.555999755859375 5.636000156402587 L -29.791000366210938 5.9739999771118155 L -29.0310001373291 6.302000045776365 L -28.27199935913086 6.618999958038328 L -27.513999938964844 6.927000045776365 L -26.756999969482422 7.224999904632567 L -25.999000549316406 7.51300001144409 L -25.239999771118164 7.7919998168945295 L -24.47800064086914 8.062999725341795 L -24.101831436157227 8.19200038909912 L -23.714000701904297 8.324999809265135 L -22.94700050354004 8.578000068664549 L -22.177000045776367 8.824000358581541 L -21.40399932861328 9.060999870300291 L -20.62700080871582 9.289999961853026 L -19.847999572753906 9.510999679565428 L -19.065000534057617 9.725000381469725 L -18.280000686645508 9.930999755859373 L -17.492000579833984 10.130000114440916 L -16.70199966430664 10.32199954986572 L -16.384000778198242 10.396681785583494 L -15.90999984741211 10.50800037384033 L -15.116999626159668 10.685999870300291 L -14.321999549865723 10.85900020599365 L -13.526000022888184 11.024999618530272 L -12.729999542236328 11.185999870300291 L -11.932999610900879 11.340999603271483 L -11.13700008392334 11.491999626159666 L -10.342000007629395 11.637999534606932 L -9.548999786376953 11.77999973297119 L -8.758000373840332 11.91800022125244 L -8.192000389099121 12.014248847961422 L -7.96999979019165 12.052000045776364 L -7.184999942779541 12.182999610900875 L -6.4039998054504395 12.31099987030029 L -5.625999927520752 12.435000419616696 L -4.4679999351501465 12.612999916076657 L -2.934000015258789 12.838000297546383 L -1.4129999876022339 13.043999671936032 L 0 13.215498924255368 L 0.10300000011920929 13.22799968719482 L 1.621000051498413 13.387000083923336 L 3.1470000743865967 13.517999649047848 L 4.685999870300293 13.619999885559078 L 4.700759410858154 13.62072372436523 L 6.233046531677246 13.690822601318356 L 6.242953777313232 13.691164970397946 L 6.593500137329102 13.70013046264648 L 7.79702091217041 13.730911254882809 L 7.806979179382324 13.731076240539547 L 9.647303581237793 13.737000465393063 L 9.65727424621582 13.737063407897946 L 9.664268493652344 13.737054824829098 L 9.667257308959961 13.737051010131832 L 9.677227973937988 13.736936569213864 L 9.687173843383789 13.736745834350582 L 11.20580005645752 13.702566146850582 L 12.845541000366211 13.665660858154293 L 12.865355491638184 13.66503810882568 L 12.918702125549316 13.662027359008786 L 18.49215316772461 13.317512512207028 L 18.49298858642578 13.317461013793942 L 18.638219833374023 13.304911613464352 L 30.55194854736328 12.277133941650387 L 30.622455596923828 12.271939277648922 L 32.768001556396484 12.144415855407711 L 37.06753921508789 11.888867378234862 L 37.13221740722656 11.886517524719237 L 39.16999816894531 11.848999977111815 L 43.37099838256836 12.017999649047848 L 43.389278411865234 12.019993782043453 L 46.25639343261719 12.39516735076904 L 46.30352783203125 12.40390586853027 L 49.27134704589844 13.049599647521969 L 49.285850524902344 13.053256988525387 L 51.56947326660156 13.717709541320797 L 51.59397506713867 13.72491073608398 L 51.623695373535156 13.73502159118652 L 53.93199920654297 14.509063720703121 L 53.969242095947266 14.523175239562985 L 54.20718765258789 14.613849639892575 L 57.05751037597656 15.70003509521484 L 57.09950256347656 15.717550277709957 L 60.16999816894531 17.003999710083004 L 60.209144592285156 17.02182006835937 L 64.00629425048828 18.775262832641598 L 64.03535461425781 18.78970336914062 L 65.53600311279297 19.588750839233395 L 69.06761932373047 21.469232559204098 L 69.10588836669922 21.489948272705075 L 69.13409423828125 21.50651168823242 L 71.3853759765625 22.89591598510742 L 73.21144104003906 24.02289199829101 L 73.62136840820312 24.27588272094726 z" fill="none" stroke="rgb(255,0,0)" stroke-width="0.001mm" />
</svg>