<?xml version="1.0" standalone="no"?>
<!DOCTYPE svg PUBLIC "-//W3C//DTD SVG 1.1//EN"
  "http://www.w3.org/Graphics/SVG/1.1/DTD/svg11.dtd">
<svg width="50.400001525878906mm" height="36.18896102905273mm" viewBox="-25.200000762939453 -18.0910530090332 50.400001525878906 36.18896102905273" xmlns="http://www.w3.org/2000/svg" version="1.1">
	<title>svgOutput</title>
	<desc>made with tinkercad</desc>
<path d="M 16.811138153076172 10.406484603881834 L 16.83757209777832 10.425118446350096 L 16.88364028930664 10.454346656799315 L 19.327999114990234 11.977999687194822 L 21.98200035095215 13.475000381469723 L 24.200000762939453 15.428999900817868 L 22.527000427246094 16.955999374389645 L 16.384000778198242 17.09543418884277 L 16.353439331054688 17.096128463745114 L 16.26023292541504 17.097908020019528 L 12.231038093566895 17.00613403320312 L 12.187999725341797 17.004999160766598 L 8.755999565124512 16.77700042724609 L 8.732385635375977 16.77466773986816 L 3.8683383464813232 16.18356132507324 L 3.8321261405944824 16.178949356079098 L 3.80829119682312 16.175287246704098 L 3.7805750370025635 16.171028137207028 L 3.7649991512298584 16.168394088745114 L -1.3704802504161447e-14 15.568879127502438 L -2.0542922019958496 15.241766929626461 L -2.1230268478393555 15.22907733917236 L -8.512701988220215 13.977786064147946 L -8.577390670776367 13.963541030883786 L -10.982375144958496 13.409749031066891 L -11.003000259399414 13.404999732971188 L -11.044720649719238 13.39394378662109 L -12.660148620605469 12.984413146972653 L -16.670595169067383 11.821935653686522 L -16.706647872924805 11.811130523681639 L -19.8072452545166 10.772993087768553 L -19.84600067138672 10.760000228881834 L -20.465999603271484 9.397999763488768 L -20.486202239990234 9.340756416320799 L -20.493831634521484 9.316219329833983 L -22.574012756347656 3.203713655471801 L -22.577999114990234 3.191999912261962 L -22.589174270629883 3.1491725444793692 L -23.054954528808594 1.4735482931137085 L -23.38483238220215 1.1102230246251565e-16 L -23.71217918395996 -1.4622482061386104 L -23.715999603271484 -1.4809999465942378 L -23.71979522705078 -1.5062088966369624 L -24.076038360595703 -3.99102759361267 L -24.07862091064453 -4.027516365051269 L -24.200000762939453 -6.163000106811522 L -24.199539184570312 -6.181857109069822 L -24.13934326171875 -8.043991088867186 L -24.137128829956055 -8.066630363464354 L -23.996999740600586 -9.312000274658201 L -23.71500015258789 -10.843000411987303 L -23.709993362426758 -10.861080169677733 L -23.27579116821289 -12.366971015930172 L -23.269453048706055 -12.383166313171383 L -22.721765518188477 -13.729191780090328 L -22.711803436279297 -13.746744155883786 L -22.097999572753906 -14.77600002288818 L -22.090726852416992 -14.784829139709469 L -21.35356903076172 -15.652245521545407 L -21.34545135498047 -15.659875869750973 L -20.485929489135742 -16.340784072875973 L -20.479999542236328 -16.34499931335449 L -20.470458984375 -16.34984970092773 L -20.399982452392578 -16.38400077819824 L -19.511268615722656 -16.814641952514645 L -19.494531631469727 -16.81918907165527 L -18.486000061035156 -17.05800056457519 L -18.475879669189453 -17.05848693847656 L -17.468334197998047 -17.0910530090332 L -17.455209732055664 -17.089788436889645 L -16.725807189941406 -16.999471664428707 L -16.722000122070312 -16.999000549316403 L -16.70349884033203 -16.993795394897457 L -16.384000778198242 -16.912494659423825 L -15.652532577514648 -16.726366043090817 L -14.44367504119873 -16.25170516967773 L -14.42643928527832 -16.24423217773437 L -13.507707595825195 -15.758715629577633 L -13.500240325927734 -15.754507064819332 L -13.49704647064209 -15.752707481384274 L -13.483407974243164 -15.743588447570797 L -12.174602508544922 -14.894579887390133 L -12.166000366210938 -14.88899993896484 L -12.152308464050293 -14.878392219543453 L -11.048053741455078 -14.014922142028805 L -9.529335021972656 -12.627449989318844 L -9.491805076599121 -12.592015266418453 L -4.684006214141846 -7.809874534606932 L -4.636000156402588 -7.762000083923338 L -4.557461261749268 -7.687691211700438 L 0 -3.3666231632232657 L 0.8266415596008301 -2.5828592777252193 L 1.1539361476898193 -2.2839043140411373 L 3.654345989227295 1.1102230246251565e-16 L 4.086115837097168 0.3943837881088257 L 4.128705978393555 0.43309974670410156 L 4.159054279327393 0.459481418132782 L 7.833980560302734 3.6390230655670157 L 7.8606390953063965 3.661280155181884 L 11.377674102783203 6.501354694366453 L 11.403199195861816 6.521898746490477 L 11.442824363708496 6.551957130432127 L 12.913415908813477 7.659038066864012 L 13.985865592956543 8.466392517089842 L 16.384000778198242 10.113172531127928 L 16.811138153076172 10.406484603881834 z" fill="none" stroke="rgb(255,0,0)" stroke-width="0.001mm" />
</svg>