<?xml version="1.0" standalone="no"?>
<!DOCTYPE svg PUBLIC "-//W3C//DTD SVG 1.1//EN"
  "http://www.w3.org/Graphics/SVG/1.1/DTD/svg11.dtd">
<svg width="193.74363708496094mm" height="181.34299468994138mm" viewBox="-96.87639617919922 -90.67299652099608 193.74363708496094 181.34299468994138" xmlns="http://www.w3.org/2000/svg" version="1.1">
	<title>svgOutput</title>
	<desc>made with tinkercad</desc>
<path d="M 82.33097076416016 31.272964477539055 L 84.0809555053711 32.76800155639648 L 87.7634506225586 35.914009094238274 L 87.78861236572266 35.9358901977539 L 87.82279968261719 35.96838760375976 L 90.17440795898438 38.2894058227539 L 90.20092010498047 38.316780090332024 L 92.3512191772461 40.69108581542968 L 92.37190246582031 40.71509933471679 L 93.33504486083984 41.938762664794915 L 93.34893035888672 41.95738983154296 L 94.58937072753906 43.89157104492187 L 94.5999984741211 43.90900039672851 L 95.10900115966797 44.95399856567382 L 95.48892974853516 46.047405242919915 L 95.49543762207031 46.06696701049804 L 95.75704193115234 47.47618103027343 L 95.85266876220703 47.991279602050774 L 95.85537719726562 48.00675582885741 L 95.86566925048828 49.15200042724608 L 95.8662338256836 49.214633941650376 L 95.86724090576172 49.23057174682616 L 95.76010131835938 50.360954284667955 L 95.75079345703125 50.459171295166 L 95.74793243408203 50.48651885986327 L 95.58905029296875 51.31446838378905 L 95.23873138427734 52.56674957275389 L 95.23479461669922 52.58341598510741 L 95.23119354248047 52.59457397460936 L 94.59666442871094 54.26823043823241 L 94.58999633789062 54.284999847412095 L 93.77200317382812 55.97499847412108 L 92.80999755859375 57.64500045776366 L 91.72699737548828 59.2840003967285 L 91.70297241210938 59.31538009643553 L 89.6117935180664 62.001972198486314 L 89.27340698242188 62.436710357666 L 87.93230438232422 63.93964767456053 L 87.90599822998047 63.97000122070311 L 87.88704681396484 63.98965454101561 L 86.34382629394531 65.53600311279295 L 84.96800994873047 66.91461181640624 L 84.9401626586914 66.9412155151367 L 82.5342788696289 69.09743499755858 L 82.5073013305664 69.12139892578124 L 79.94549560546875 71.26083374023436 L 79.91400146484375 71.28700256347655 L 79.889892578125 71.30582427978514 L 77.17525482177734 73.37055206298827 L 76.20903015136719 74.10545349121092 L 74.27386474609375 75.46036529541014 L 74.2229995727539 75.4970016479492 L 70.33970642089844 77.97677612304686 L 70.15299987792969 78.0960006713867 L 67.57738494873047 79.58117675781249 L 67.54991912841797 79.59712982177733 L 65.53600311279297 80.66034698486327 L 64.95357513427734 80.9678268432617 L 64.89812469482422 80.99708557128905 L 59.74294662475586 83.45922088623045 L 59.6879997253418 83.48500061035155 L 57.306617736816406 84.49059295654295 L 56.66633605957031 84.76096343994139 L 56.612667083740234 84.7834014892578 L 51.686431884765625 86.61889648437499 L 51.66009521484375 86.62886810302733 L 51.607994079589844 86.64626312255858 L 49.65999984741211 87.26499938964842 L 46.73504638671875 88.05347442626952 L 46.656742095947266 88.07261657714842 L 44.124542236328125 88.62834167480467 L 43.715999603271484 88.71800231933592 L 41.37202453613281 89.06948089599608 L 39.760799407958984 89.31108093261717 L 39.72122573852539 89.31727600097655 L 36.74594497680664 89.56200408935545 L 36.70622634887695 89.5662384033203 L 36.65333557128906 89.56835937499999 L 33.68199920654297 89.6699981689453 L 32.768001556396484 89.64807128906249 L 30.680999755859375 89.59799957275389 L 27.680999755859375 89.38899993896483 L 24.701770782470703 89.02387237548827 L 24.648681640625 89.01710510253905 L 20.619468688964844 88.33520507812499 L 20.59258270263672 88.33063507080077 L 20.51053810119629 88.31317901611327 L 12.295207023620605 86.44314575195311 L 12.17170524597168 86.41159057617186 L 7.123100757598877 85.10404968261717 L 0.2863667607307434 83.22414398193358 L 0.22292320430278778 83.20681762695311 L 0.21790626645088196 83.20532226562499 L 0.14514689147472382 83.18354034423827 L 0 83.13929748535155 L -5.697853088378906 81.40232086181639 L -5.750665187835693 81.38451385498045 L -5.7874064445495605 81.3710479736328 L -13.769845962524414 78.47570037841795 L -13.853458404541016 78.44191741943358 L -14.424509048461914 78.20606994628905 L -17.857999801635742 76.78800201416014 L -17.911155700683594 76.76436614990233 L -22.886734008789062 74.53710174560545 L -23.18594741821289 74.39572906494139 L -24.87716293334961 73.59665679931639 L -26.878446578979492 72.62857818603514 L -26.96515464782715 72.58708190917967 L -35.107460021972656 68.43648529052733 L -35.13117218017578 68.42459106445311 L -35.153926849365234 68.41280364990233 L -35.19599914550781 68.39099884033202 L -39.24790954589844 66.1558380126953 L -39.311920166015625 66.12025451660155 L -40.26641082763672 65.53600311279295 L -44.89067077636719 62.705436706542955 L -45.06413269042969 62.59925842285155 L -45.13100051879883 62.55799865722655 L -46.95399856567383 61.328998565673814 L -52.02530288696289 57.58201980590819 L -52.05978775024414 57.55725479125975 L -52.1037483215332 57.523410797119126 L -54.892520904541016 55.24680328369139 L -54.923614501953125 55.2210235595703 L -54.934757232666016 55.21178817749022 L -54.96053695678711 55.189208984374986 L -58.01689910888672 52.555480957031236 L -58.071998596191406 52.507999420166 L -58.845001220703125 51.80599975585936 L -60.72490310668945 50.026752471923814 L -60.740028381347656 50.01263046264647 L -60.769771575927734 49.983451843261705 L -62.49545669555664 48.26468658447264 L -62.985198974609375 47.776905059814446 L -64.42892456054688 46.25324630737304 L -64.45800018310547 46.2229995727539 L -65.53600311279297 45.00972747802734 L -67.25762939453125 43.072063446044915 L -67.2904281616211 43.035346984863274 L -67.299560546875 43.024639129638665 L -67.30470275878906 43.01848983764648 L -67.3085708618164 43.013862609863274 L -67.31744384765625 43.003032684326165 L -67.33050537109375 42.98668670654296 L -67.34747314453125 42.96481704711913 L -71.89279174804688 37.26095962524413 L -71.91715240478516 37.22808074951171 L -71.94793701171875 37.18423843383788 L -74.99054718017578 32.76800155639648 L -77.94586944580078 28.478454589843743 L -77.9642562866211 28.45105361938476 L -77.9714126586914 28.44006729125976 L -77.98016357421875 28.426420211791985 L -77.98198699951172 28.42357444763183 L -77.99581146240234 28.40148162841796 L -78.00932312011719 28.37929725646972 L -78.02896881103516 28.345771789550774 L -81.94863891601562 21.86824226379394 L -81.9721450805664 21.8259162902832 L -84.38690948486328 17.370393753051754 L -84.40030670166016 17.344758987426754 L -84.41171264648438 17.321783065795895 L -86.98342895507812 11.890779495239256 L -87.03272247314453 11.7866735458374 L -87.04364776611328 11.763488769531248 L -87.05782318115234 11.73114776611328 L -88.50944519042969 8.139099121093748 L -88.5203857421875 8.112185478210447 L -88.52959442138672 8.087814331054686 L -89.60826873779297 5.018940448760985 L -89.83516693115234 4.373399734497069 L -89.84387969970703 4.3485937118530265 L -89.85211181640625 4.323392868041991 L -91.10833740234375 0.13530127704143532 L -91.11421203613281 0.1161733642220498 L -91.11797332763672 0.10332920402288445 L -91.12334442138672 0.08395099639892588 L -91.13628387451172 0.03221867978572856 L -91.14463806152344 1.1102230246251565e-16 L -92.10929107666016 -3.7206826210021964 L -92.33612060546875 -4.765907764434814 L -92.96783447265625 -7.676869869232176 L -92.97610473632812 -7.71527051925659 L -92.98573303222656 -7.7671608924865705 L -93.66368103027344 -11.419405937194822 L -93.66453552246094 -11.424884796142576 L -94.20347595214844 -14.895009040832516 L -94.21275329589844 -14.955343246459957 L -94.39041137695312 -16.38400077819824 L -95.141357421875 -22.422658920288082 L -95.15385437011719 -22.529180526733395 L -95.50812530517578 -26.377803802490227 L -95.51202392578125 -26.423015594482415 L -95.83274841308594 -32.35976409912109 L -95.8359375 -32.42265319824218 L -95.83941650390625 -32.76800155639648 L -95.87639617919922 -36.43804931640624 L -95.87572479248047 -36.548286437988274 L -95.79183959960938 -40.29329299926757 L -95.56980895996094 -44.21987533569335 L -95.56756591796875 -44.26253128051757 L -95.56692504882812 -44.27077102661132 L -95.5647964477539 -44.298233032226555 L -95.17796325683594 -48.67480850219725 L -95.17426300048828 -48.71052169799803 L -95.11666107177734 -49.15200042724608 L -94.68972778320312 -52.423950195312486 L -94.68399810791016 -52.466999053955064 L -94.1719970703125 -55.60100173950194 L -93.25900268554688 -60.08100128173827 L -91.87215423583984 -65.53600311279295 L -91.86658477783203 -65.55788421630858 L -91.48863220214844 -66.86444854736327 L -91.46499633789062 -66.95500183105467 L -90.3290023803711 -70.52799987792967 L -89.65375518798828 -72.4264450073242 L -89.16200256347656 -73.80899810791014 L -87.65807342529297 -77.67933654785155 L -85.05877685546875 -83.91311645507811 L -85.01958465576172 -84.01108551025389 L -85.00399780273438 -84.04799652099608 L -83.64299774169922 -86.6439971923828 L -81.91999816894531 -88.02249145507811 L -79.85700225830078 -89.67299652099608 L -79.70327758789062 -88.70971679687499 L -79.46299743652344 -87.20400238037108 L -79.9229965209961 -85.2949981689453 L -79.92545318603516 -85.27936553955077 L -80.16891479492188 -83.42840576171874 L -80.24320983886719 -82.86360931396483 L -80.33399963378906 -81.55606842041014 L -80.33699798583984 -81.52200317382811 L -80.33789825439453 -81.49475860595702 L -80.40104675292969 -78.6089630126953 L -80.41289520263672 -78.06751251220702 L -80.39118194580078 -76.50141143798827 L -80.39099884033203 -76.46199798583983 L -80.14099884033203 -71.06199645996092 L -79.91200256347656 -68.30100250244139 L -79.58963775634766 -65.53600311279295 L -79.33699798583984 -63.36899948120116 L -79.32791137695312 -63.31161499023436 L -78.21378326416016 -56.58145904541014 L -78.19610595703125 -56.49253845214842 L -77.4841079711914 -53.03610992431639 L -77.48361206054688 -53.033710479736314 L -77.47142028808594 -52.98462677001952 L -76.52650451660156 -49.15200042724608 L -76.31059265136719 -48.27622985839842 L -76.30992126464844 -48.273517608642564 L -76.2929916381836 -48.21602630615233 L -75.24876403808594 -44.6435203552246 L -75.24103546142578 -44.617073059082024 L -75.2147445678711 -44.53944015502929 L -73.94173431396484 -40.64542388916015 L -72.67080688476562 -37.138721466064446 L -72.48715209960938 -36.631999969482415 L -72.02630615234375 -35.4744529724121 L -72.00877380371094 -35.4291763305664 L -71.51634979248047 -34.250904083251946 L -70.98641967773438 -33.04598999023437 L -70.85762023925781 -32.76800155639648 L -70.41307067871094 -31.808507919311516 L -70.39093017578125 -31.759555816650384 L -70.38034057617188 -31.73785209655761 L -69.76824188232422 -30.483589172363274 L -69.75959014892578 -30.466291427612298 L -69.0845947265625 -29.14986610412597 L -69.0752182006836 -29.132001876831048 L -68.53443908691406 -28.118532180786126 L -68.52693176269531 -28.104791641235344 L -68.14700317382812 -27.415000915527337 L -67.74800109863281 -26.70599937438964 L -67.33499908447266 -25.98800086975097 L -66.90699768066406 -25.263000488281243 L -66.46700286865234 -24.5300006866455 L -66.01399993896484 -23.791999816894528 L -65.55000305175781 -23.049999237060543 L -65.53600311279297 -23.02807235717773 L -65.07499694824219 -22.30599975585937 L -64.58999633789062 -21.5620002746582 L -64.09700012207031 -20.82099914550781 L -63.59600067138672 -20.083000183105465 L -63.09000015258789 -19.35199928283691 L -62.57699966430664 -18.62800025939941 L -62.060001373291016 -17.912000656127926 L -61.53799819946289 -17.20499992370605 L -61.0099983215332 -16.50900077819824 L -60.913204193115234 -16.38400077819824 L -60.47800064086914 -15.821999549865719 L -59.941001892089844 -15.145999908447262 L -59.39799880981445 -14.479999542236325 L -58.8489990234375 -13.82299995422363 L -58.29199981689453 -13.17500019073486 L -57.72700119018555 -12.534000396728512 L -57.152000427246094 -11.899000167846678 L -56.566001892089844 -11.27000045776367 L -55.96900177001953 -10.64500045776367 L -55.35900115966797 -10.024999618530272 L -54.73699951171875 -9.407999992370604 L -54.10100173950195 -8.795000076293944 L -53.459510803222656 -8.19200038909912 L -53.45100021362305 -8.184000015258787 L -52.78799819946289 -7.578000068664549 L -52.11000061035156 -6.973999977111815 L -51.417999267578125 -6.374999999999998 L -50.71200180053711 -5.780000209808349 L -49.992000579833984 -5.19099998474121 L -49.25899887084961 -4.606999874114989 L -49.152000427246094 -4.5239853858947745 L -48.513999938964844 -4.028999805450439 L -47.755001068115234 -3.4579999446868888 L -46.98500061035156 -2.8949999809265132 L -46.20399856567383 -2.339999914169311 L -45.41299819946289 -1.7929999828338619 L -44.61199951171875 -1.2560000419616695 L -43.803001403808594 -0.7269999980926511 L -42.987998962402344 -0.20900000631809218 L -42.65047836303711 1.1102230246251565e-16 L -42.16600036621094 0.300000011920929 L -41.340999603271484 0.7979999780654906 L -40.51300048828125 1.2860000133514404 L -39.683998107910156 1.7640000581741329 L -38.85599899291992 2.230000019073486 L -38.029998779296875 2.6849999427795406 L -37.20899963378906 3.128000020980834 L -36.391998291015625 3.561000108718871 L -35.58000183105469 3.9809999465942374 L -34.775001525878906 4.389999866485595 L -33.97600173950195 4.7880001068115225 L -33.18299865722656 5.1729998588562 L -32.768001556396484 5.3709959983825675 L -32.39699935913086 5.5479998588562 L -31.617000579833984 5.91099977493286 L -30.841999053955078 6.26300001144409 L -30.07200050354004 6.604000091552733 L -29.304000854492188 6.934000015258787 L -28.538999557495117 7.254000186920164 L -27.77400016784668 7.565000057220457 L -27.009000778198242 7.864999771118162 L -26.243999481201172 8.1560001373291 L -26.146085739135742 8.19200038909912 L -25.476999282836914 8.437999725341795 L -24.70800018310547 8.711999893188475 L -23.937000274658203 8.975999832153319 L -23.16200065612793 9.232000350952147 L -22.385000228881836 9.479000091552733 L -21.604999542236328 9.718000411987303 L -20.820999145507812 9.949999809265135 L -20.034000396728516 10.173000335693358 L -19.2450008392334 10.388999938964842 L -18.452999114990234 10.59700012207031 L -17.659000396728516 10.796999931335447 L -16.863000869750977 10.991000175476072 L -16.384000778198242 11.102646827697752 L -16.065000534057617 11.177000045776365 L -15.265999794006348 11.357000350952147 L -14.46500015258789 11.52999973297119 L -13.664999961853027 11.69699954986572 L -12.86400032043457 11.85900020599365 L -12.062999725341797 12.01500034332275 L -11.262999534606934 12.166000366210934 L -10.46500015258789 12.312999725341793 L -9.668000221252441 12.456000328063961 L -8.875 12.593999862670895 L -8.192000389099121 12.71056747436523 L -8.083999633789062 12.72900009155273 L -6.920531749725342 12.921431541442868 L -6.91015100479126 12.923156738281246 L -6.905560493469238 12.923907279968258 L -6.89983606338501 12.924842834472653 L -6.889560699462891 12.926476478576657 L -5.349124431610107 13.172196388244625 L -5.338888645172119 13.17378997802734 L -5.242467880249023 13.188322067260739 L -3.8132548332214355 13.403720855712887 L -3.7980000972747803 13.406000137329098 L -2.6611759662628174 13.568826675415036 L -2.640967607498169 13.571684837341305 L -1.5100646018981934 13.723656654357907 L -1.4899486303329468 13.726251602172848 L -2.1731021591030707e-14 13.906763076782223 L 0.016935449093580246 13.908814430236813 L 0.03706454858183861 13.911106109619137 L 1.167967677116394 14.03347301483154 L 1.188175916671753 14.03540992736816 L 2.325000047683716 14.140999794006344 L 3.871999979019165 14.258000373840328 L 5.432000160217285 14.345000267028805 L 5.447518348693848 14.345605850219723 L 7.6003265380859375 14.400894165039059 L 8.559968948364258 14.42553901672363 L 8.57036304473877 14.425802230834957 L 8.580782890319824 14.42597389221191 L 8.591217041015625 14.426039695739743 L 11.391791343688965 14.379132270812985 L 12.774374008178711 14.355975151062008 L 12.784807205200195 14.355948448181149 L 12.80041790008545 14.355737686157223 L 12.846789360046387 14.354051589965817 L 12.901603698730469 14.350337028503414 L 16.77839469909668 14.135725021362301 L 16.78772735595703 14.135208129882809 L 16.94904899597168 14.121191978454586 L 19.5460262298584 13.900030136108395 L 30.3096923828125 12.983381271362301 L 32.768001556396484 12.802008628845211 L 33.03826904296875 12.782068252563473 L 33.10264587402344 12.777971267700192 L 35.77299880981445 12.626000404357907 L 39.17599868774414 12.536000251770016 L 43.279170989990234 12.701674461364743 L 43.3120002746582 12.703000068664547 L 43.330589294433594 12.705041885375973 L 46.139095306396484 13.073127746582028 L 49.050235748291016 13.705683708190914 L 49.08839797973633 13.712323188781735 L 49.108001708984375 13.717000007629391 L 51.35697937011719 14.371266365051266 L 51.389503479003906 14.380737304687496 L 51.42765426635742 14.393977165222164 L 56.004554748535156 16.025201797485348 L 56.045433044433594 16.04118156433105 L 60.23845672607422 17.79181098937988 L 60.27907180786133 17.80917358398437 L 63.66980743408203 19.374280929565426 L 63.72991943359375 19.40298461914062 L 65.53600311279297 20.364465713500973 L 68.71635437011719 22.057548522949215 L 68.75569152832031 22.078849792480465 L 68.8037338256836 22.107673645019528 L 71.14250946044922 23.513902664184567 L 75.4934310913086 26.339185714721673 L 75.5560302734375 26.380617141723626 L 79.38886260986328 29.051956176757805 L 79.44338989257812 29.09081840515136 L 82.27952575683594 31.23223114013671 L 82.33097076416016 31.272964477539055 z" fill="none" stroke="rgb(255,0,0)" stroke-width="0.001mm" />
</svg>