<?xml version="1.0" standalone="no"?>
<!DOCTYPE svg PUBLIC "-//W3C//DTD SVG 1.1//EN"
  "http://www.w3.org/Graphics/SVG/1.1/DTD/svg11.dtd">
<svg width="69.5999984741211mm" height="29.25696372985839mm" viewBox="-34.79999923706055 -14.635000228881832 69.5999984741211 29.25696372985839" xmlns="http://www.w3.org/2000/svg" version="1.1">
	<title>svgOutput</title>
	<desc>made with tinkercad</desc>
<path d="M 9.662257194519043 11.878207206726072 L 9.632840156555176 11.882452011108397 L 5.271999835968018 12.562999725341793 L 2.176445484161377 12.911669731140133 L 2.107454538345337 12.918772697448727 L 2.060483455657959 12.922158241271969 L -3.263467657393276e-19 13.080123901367184 L -4.057468414306641 13.39118671417236 L -4.986989974975586 13.462448120117184 L -8.357133865356445 13.59085369110107 L -8.395702362060547 13.592644691467282 L -8.454155921936035 13.59331893920898 L -12.502872467041016 13.621963500976559 L -15.555953979492188 13.53207969665527 L -15.606666564941406 13.530619621276852 L -15.607410430908203 13.5305643081665 L -16.384000778198242 13.473032951354977 L -19.726499557495117 13.225410461425778 L -19.77231788635254 13.221717834472653 L -22.00261878967285 12.928360939025875 L -22.034870147705078 12.923920631408688 L -24.366907119750977 12.495244026184078 L -24.39357566833496 12.489994049072262 L -25.990739822387695 12.090950012207028 L -26.011281967163086 12.085183143615719 L -26.01818084716797 12.083246231079098 L -26.034814834594727 12.077088356018063 L -28.354999542236328 11.279000282287596 L -29.325180053710938 10.835831642150877 L -29.32699966430664 10.83500003814697 L -29.341585159301758 10.826768875122069 L -30.28388214111328 10.306233406066893 L -31.366775512695312 9.54266834259033 L -31.422739028930664 9.503207206726072 L -31.431215286254883 9.497159004211424 L -32.0742301940918 8.89069080352783 L -32.08242416381836 8.88369846343994 L -32.768001556396484 7.982266426086424 L -32.912513732910156 7.792252540588377 L -33.026695251464844 7.642118930816649 L -33.03668212890625 7.630685806274412 L -33.04100036621094 7.624000072479246 L -33.44893264770508 6.721212387084959 L -33.45259094238281 6.713913440704344 L -33.45637893676758 6.702001571655272 L -33.665462493896484 5.941284179687499 L -33.724056243896484 5.728097438812255 L -33.798133850097656 5.054463386535644 L -33.79999923706055 5.04199981689453 L -33.799949645996094 5.03364610671997 L -33.72093200683594 3.700206756591796 L -33.720001220703125 3.691999912261962 L -33.484920501708984 2.736862421035766 L -33.480796813964844 2.721135854721069 L -33.2301025390625 2.0884282588958736 L -33.00372314453125 1.5170896053314205 L -32.768001556396484 1.0751091241836548 L -32.545413970947266 0.6577620506286621 L -32.53499984741211 0.6359999775886536 L -32.11962127685547 1.1102230246251565e-16 L -31.995697021484375 -0.1897445917129515 L -31.98411750793457 -0.20668564736843092 L -31.970598220825195 -0.22302559018135054 L -30.24799346923828 -2.3377614021301265 L -30.22516441345215 -2.3605785369873042 L -30.10666847229004 -2.4759805202484126 L -28.83449935913086 -3.7149333953857413 L -28.333656311035156 -4.20270013809204 L -26.79871940612793 -5.445268154144286 L -26.78285789489746 -5.458749771118163 L -24.933820724487305 -6.78132390975952 L -24.89188003540039 -6.8108878135681135 L -22.827518463134766 -8.118645668029783 L -22.762563705444336 -8.156073570251463 L -20.168777465820312 -9.652488708496092 L -20.125158309936523 -9.675756454467772 L -16.384000778198242 -11.671449661254881 L -15.945232391357422 -11.905507087707518 L -15.881073951721191 -11.940002441406248 L -13.390999794006348 -13.309000015258786 L -11.488627433776855 -13.550218582153317 L -11.069111824035645 -13.603412628173825 L -10.849895477294922 -13.631209373474118 L -10.819999694824219 -13.635000228881832 L -8.597600936889648 -12.481328010559078 L -8.563841819763184 -12.464092254638668 L -8.509056091308594 -12.439177513122555 L -3.6019999980926514 -10.199000358581541 L -3.313880681991577 -10.076571464538572 L 0 -8.668422698974608 L 0.3540000021457672 -8.51799964904785 L 5.252166748046875 -6.617602348327635 L 5.300843238830566 -6.598477363586424 L 5.3073225021362305 -6.596202850341795 L 5.373415946960449 -6.572998523712156 L 9.270021438598633 -5.204988479614257 L 9.341097831726074 -5.183496475219726 L 13.181403160095215 -3.9626586437225333 L 15.947687149047852 -3.1857843399047843 L 19.083106994628906 -2.3052432537078853 L 19.19135284423828 -2.2767217159271236 L 29.389694213867188 0.3111380338668824 L 29.445999145507812 0.3249999880790711 L 33.79999923706055 3.2739999294280997 L 30.704999923706055 6.414999961853026 L 22.795236587524414 8.712466239929197 L 22.664871215820312 8.749819755554197 L 15.679625511169434 10.58403968811035 L 15.625 10.597999572753904 L 12.003999710083008 11.416000366210936 L 9.715423583984375 11.868381500244139 L 9.674298286437988 11.875982284545897 L 9.662257194519043 11.878207206726072 z" fill="none" stroke="rgb(255,0,0)" stroke-width="0.001mm" />
</svg>