<?xml version="1.0" standalone="no"?>
<!DOCTYPE svg PUBLIC "-//W3C//DTD SVG 1.1//EN"
  "http://www.w3.org/Graphics/SVG/1.1/DTD/svg11.dtd">
<svg width="66.46900177001953mm" height="26.341986656188958mm" viewBox="-33.23400115966797 -13.17500019073486 66.46900177001953 26.341986656188958" xmlns="http://www.w3.org/2000/svg" version="1.1">
	<title>svgOutput</title>
	<desc>made with tinkercad</desc>
<path d="M 10.801426887512207 -3.416278362274169 L 10.857000350952148 -3.3980000019073477 L 10.902017593383789 -3.3847424983978263 L 13.794391632080078 -2.5232472419738765 L 14.268935203552246 -2.3931972980499263 L 17.989370346069336 -1.3736000061035152 L 18.072895050048828 -1.3512495756149288 L 18.18633460998535 -1.3235354423522945 L 29.2189998626709 1.406999945640564 L 32.23500061035156 3.059000015258788 L 30.37700080871582 4.757999897003173 L 22.452999114990234 7.124000072479246 L 17.530000686645508 8.477999687194822 L 13.567999839782715 9.45899963378906 L 10.32699966430664 10.159000396728514 L 5.251999855041504 11.010999679565428 L 1.2376095056533813 11.476779937744139 L 1.146639347076416 11.486320495605467 L 1.828052276610717e-14 11.574306488037108 L -5.643680572509766 12.007362365722653 L -7.849226951599121 12.10111045837402 L -7.953731060028076 12.10656642913818 L -8.003854751586914 12.107683181762692 L -10.655649185180664 12.166762351989743 L -10.69577693939209 12.166986465454098 L -15.089106559753418 12.0959358215332 L -15.126941680908203 12.094946861267086 L -15.161640167236328 12.092878341674801 L -16.384000778198242 12.023474693298336 L -18.361026763916016 11.911221504211424 L -18.56814956665039 11.899460792541502 L -20.522056579589844 11.698149681091307 L -20.554000854492188 11.694999694824217 L -22.458566665649414 11.419676780700682 L -22.487926483154297 11.415262222290037 L -24.367822647094727 11.038295745849608 L -24.395233154296875 11.032484054565428 L -24.413787841796875 11.027265548706053 L -24.576000213623047 10.978775978088377 L -27.176889419555664 10.201295852661131 L -27.193506240844727 10.195300102233885 L -28.83163070678711 9.466038703918455 L -28.855945587158203 9.454138755798338 L -29.775663375854492 8.908426284790037 L -29.793453216552734 8.895103454589842 L -30.89375877380371 7.980319499969481 L -30.900270462036133 7.973137378692625 L -31.260282516479492 7.551494121551512 L -31.372957229614258 7.4195303916931135 L -31.642358779907227 7.006052017211912 L -31.648000717163086 6.998000144958494 L -31.96500015258789 6.308000087738035 L -32.17399978637695 5.56599998474121 L -32.23400115966797 5.050000190734862 L -32.207000732421875 4.264999866485595 L -32.071998596191406 3.4820001125335684 L -31.916000366210938 2.964999914169311 L -31.59600067138672 2.1989998817443843 L -31.04400062561035 1.187999963760376 L -30.15805435180664 1.1102230246251565e-16 L -29.554000854492188 -0.8100000023841855 L -29.541967391967773 -0.8231651782989499 L -27.608783721923828 -2.8106238842010494 L -27.594999313354492 -2.8239998817443843 L -26.374000549316406 -3.874999999999999 L -26.351688385009766 -3.89172339439392 L -24.903034210205078 -4.993016242980956 L -24.730688095092773 -5.1067562103271475 L -22.30868148803711 -6.70515203475952 L -22.273679733276367 -6.728135108947752 L -19.486894607543945 -8.37415313720703 L -19.452999114990234 -8.39400005340576 L -16.384000778198242 -10.054140090942381 L -12.930999755859375 -11.921999931335447 L -11.230158805847168 -12.149437904357907 L -11.174436569213867 -12.156888961791989 L -11.05835247039795 -12.172411918640133 L -11.038999557495117 -12.17500019073486 L -9.170947074890137 -11.252322196960447 L -9.139345169067383 -11.23691654205322 L -5.177256107330322 -9.445835113525389 L -5.11783504486084 -9.419293403625487 L -1.172521948814392 -7.741696834564207 L -1.119795322418213 -7.7196888923645 L 0 -7.278303623199461 L 2.838346242904663 -6.159523963928221 L 2.887936592102051 -6.140310287475584 L 6.704885005950928 -4.763659000396728 L 6.847064971923828 -4.712378978729247 L 6.88670539855957 -4.69815969467163 L 10.801426887512207 -3.416278362274169 z" fill="none" stroke="rgb(255,0,0)" stroke-width="0.001mm" />
</svg>