<?xml version="1.0" standalone="no"?>
<!DOCTYPE svg PUBLIC "-//W3C//DTD SVG 1.1//EN"
  "http://www.w3.org/Graphics/SVG/1.1/DTD/svg11.dtd">
<svg width="196.57711029052734mm" height="184.26600646972653mm" viewBox="-98.2931137084961 -92.14600372314452 196.57711029052734 184.26600646972653" xmlns="http://www.w3.org/2000/svg" version="1.1">
	<title>svgOutput</title>
	<desc>made with tinkercad</desc>
<path d="M 83.57694244384766 30.484504699707024 L 83.66504669189453 30.555938720703118 L 85.20571899414062 31.805110931396477 L 85.24596405029297 31.83842468261718 L 86.2777099609375 32.76800155639648 L 88.77587890625 35.018787384033196 L 89.50508880615234 35.675788879394524 L 89.53517150878906 35.70348739624023 L 91.74079132080078 37.9446678161621 L 91.76593780517578 37.96948242187499 L 91.78005981445312 37.98451614379882 L 93.56194305419922 39.99258804321288 L 93.58805847167969 40.024028778076165 L 94.2978286743164 40.93746948242187 L 94.72396087646484 41.485881805419915 L 95.40846252441406 42.5269546508789 L 95.41727447509766 42.53957366943359 L 95.42522430419922 42.55303573608398 L 95.90153503417969 43.394702911376946 L 96.0484848022461 43.654365539550774 L 96.40999603271484 44.43566513061523 L 96.41699981689453 44.450000762939446 L 96.85700225830078 45.71099853515624 L 97.16500091552734 47.03400039672851 L 97.27300262451172 47.94800186157226 L 97.28250122070312 49.15200042724608 L 97.28399658203125 49.341999053955064 L 97.1500015258789 50.74499893188475 L 96.97000122070312 51.67900085449217 L 96.58000183105469 53.06800079345702 L 96.08200073242188 54.44400024414061 L 95.01699829101562 56.688999176025376 L 94.0193862915039 58.41852951049803 L 94.0052719116211 58.44261169433592 L 93.27068328857422 59.554260253906236 L 92.89110565185547 60.128681182861314 L 92.8716049194336 60.15724945068358 L 91.65767669677734 61.79689788818358 L 88.9749755859375 64.93494415283202 L 88.95114135742188 64.9647979736328 L 88.92959594726562 64.98874664306639 L 88.3935775756836 65.53600311279295 L 86.90374755859375 67.05706787109374 L 86.87104797363281 67.08951568603514 L 85.11286926269531 68.75286865234374 L 85.0928955078125 68.77109527587889 L 82.23705291748047 71.20855712890624 L 80.83179473876953 72.40795135498045 L 79.46377563476562 73.48557281494139 L 79.39820098876953 73.53941345214842 L 77.02505493164062 75.25974273681639 L 75.05709075927734 76.68634796142577 L 73.54585266113281 77.69285583496092 L 73.47264862060547 77.74404907226561 L 70.8966293334961 79.34813690185545 L 70.82865142822266 79.38805389404295 L 68.73563385009766 80.60396575927733 L 65.53600311279297 82.2809600830078 L 64.51799011230469 82.81452178955077 L 64.48196411132812 82.8332061767578 L 64.44302368164062 82.85164642333983 L 60.26488494873047 84.82712554931639 L 56.50325012207031 86.40100097656249 L 56.18552780151367 86.53393554687499 L 56.12513732910156 86.55972290039061 L 56.11453628540039 86.56364440917967 L 53.122413635253906 87.66895294189452 L 53.085079193115234 87.68296051025389 L 53.05418014526367 87.69328308105467 L 48.265716552734375 89.17710113525389 L 48.072025299072266 89.2371139526367 L 48.04420471191406 89.24535369873045 L 46.04008483886719 89.7362594604492 L 44.02410888671875 90.15407562255858 L 43.96799850463867 90.16699981689452 L 41.91699981689453 90.51300048828124 L 38.86488723754883 90.87550354003905 L 38.81435775756836 90.88120269775389 L 34.744876861572266 91.11825561523436 L 34.707000732421875 91.12000274658202 L 32.768001556396484 91.11127471923827 L 31.41387939453125 91.10518646240233 L 31.363582611083984 91.10456085205077 L 28.584087371826172 90.94750976562499 L 28.546457290649414 90.94488525390624 L 28.52130889892578 90.94205474853514 L 24.468616485595703 90.48571777343749 L 24.466402053833008 90.48535919189452 L 21.654550552368164 90.02740478515624 L 21.586013793945312 90.01588439941405 L 21.58138656616211 90.01510620117186 L 21.539487838745117 90.00598144531249 L 21.486408233642578 89.9930953979492 L 9.863689422607422 87.33410644531249 L 9.73669719696045 87.30041503906249 L 3.9781813621520996 85.78521728515624 L 3.242321729660034 85.57727050781249 L 3.430984202258333e-14 84.66101837158202 L -2.1211037635803223 84.06161499023436 L -2.1741104125976562 84.04627990722655 L -6.121113300323486 82.80863952636717 L -6.160999774932861 82.79599761962889 L -9.922307968139648 81.50205993652342 L -9.984682083129883 81.48028564453124 L -14.29122257232666 79.84755706787108 L -14.33056926727295 79.8323516845703 L -18.37535858154297 78.16109466552733 L -18.433380126953125 78.13696289062499 L -18.473867416381836 78.11880493164061 L -23.49256706237793 75.87071228027342 L -23.600624084472656 75.81937408447264 L -26.251319885253906 74.55998229980467 L -28.01542091369629 73.70163726806639 L -28.115598678588867 73.65324401855467 L -28.139083862304688 73.64147186279295 L -31.17561149597168 72.11928558349608 L -31.252246856689453 72.07933807373045 L -35.88177490234375 69.68308258056639 L -36.44463348388672 69.37265014648436 L -39.973976135253906 67.4261016845703 L -40.03981018066406 67.38866424560545 L -40.098602294921875 67.3511505126953 L -43.063411712646484 65.53600311279295 L -45.929222106933594 63.781459808349595 L -48.80396270751953 61.79569625854491 L -49.52261734008789 61.299274444580064 L -49.563629150390625 61.27012634277342 L -52.942684173583984 58.71781158447264 L -52.9739990234375 58.69400024414061 L -53.02389144897461 58.652912139892564 L -58.18647003173828 54.31364822387694 L -59.00069808959961 53.629272460937486 L -59.025001525878906 53.60800170898436 L -62.46430587768555 50.365253448486314 L -62.485801696777344 50.345417022705064 L -62.543724060058594 50.287075042724595 L -64.40660095214844 48.39752960205077 L -65.53600311279297 47.178455352783196 L -65.56292724609375 47.14938354492187 L -66.58055877685547 46.050952911376946 L -66.58357238769531 46.04770278930663 L -66.59700012207031 46.033000946044915 L -67.58222198486328 44.9003677368164 L -68.33448028564453 44.03555297851562 L -68.7028579711914 43.61205291748046 L -68.71167755126953 43.602119445800774 L -68.72039031982422 43.59210205078124 L -68.72899627685547 43.58200073242187 L -70.8526382446289 40.95560455322265 L -70.86530303955078 40.94032669067382 L -70.88977813720703 40.90953826904296 L -70.91508483886719 40.876026153564446 L -75.30360412597656 35.014785766601555 L -75.323974609375 34.98641204833984 L -75.33819580078125 34.96581268310546 L -76.82598114013672 32.76800155639648 L -78.28955841064453 30.605936050415032 L -78.30337524414062 30.585336685180657 L -78.31350708007812 30.56986236572265 L -78.32342529296875 30.554363250732415 L -78.33319854736328 30.538827896118157 L -78.3396224975586 30.528430938720696 L -81.99030303955078 24.672128677368157 L -81.99979400634766 24.656496047973626 L -82.01371002197266 24.63287925720214 L -82.4090347290039 23.942815780639645 L -83.96251678466797 21.23110961914062 L -83.98341369628906 21.194030761718746 L -83.99627685546875 21.169948577880856 L -87.63214111328125 13.983162879943844 L -87.64312744140625 13.961558341979977 L -87.64408111572266 13.959560394287106 L -87.65748596191406 13.931505203247067 L -87.67913818359375 13.881233215332028 L -89.12716674804688 10.501192092895506 L -90.52876281738281 6.784332275390623 L -90.54499816894531 6.741000175476072 L -91.50409698486328 3.876558303833007 L -91.5196533203125 3.828934669494628 L -92.63016510009766 1.1102230246251565e-16 L -92.72370910644531 -0.3225301802158354 L -92.73419952392578 -0.3589468896389006 L -92.74055480957031 -0.38337182998657204 L -93.29762268066406 -2.7603456974029537 L -94.287353515625 -6.98344039916992 L -94.3010025024414 -7.044000148773192 L -95.5998764038086 -14.613039970397946 L -95.60566711425781 -14.642835617065426 L -95.61603546142578 -14.707012176513668 L -95.62074279785156 -14.741773605346676 L -95.62995147705078 -14.824489593505856 L -95.83126068115234 -16.38400077819824 L -96.35594177246094 -20.448673248291012 L -96.75597381591797 -24.286037445068352 L -96.92931365966797 -26.49624061584472 L -97.06513977050781 -28.228101730346673 L -97.06867218017578 -28.270759582519524 L -97.06900024414062 -28.27737617492675 L -97.07079315185547 -28.312889099121087 L -97.22685241699219 -31.327466964721673 L -97.22979736328125 -31.471025466918938 L -97.25642395019531 -32.76800155639648 L -97.29204559326172 -34.50304794311523 L -97.2931137084961 -34.55191040039062 L -97.2930908203125 -34.55390548706054 L -97.29264068603516 -34.5928726196289 L -97.26004791259766 -38.78285980224609 L -97.25857543945312 -38.823371887207024 L -97.24034881591797 -39.19097518920898 L -96.97410583496094 -44.5591697692871 L -96.96891021728516 -44.62967300415038 L -96.51788330078125 -49.15200042724608 L -96.37725830078125 -50.562030792236314 L -95.94363403320312 -53.61216735839842 L -95.93009185791016 -53.70996475219725 L -95.9283218383789 -53.7199249267578 L -95.35917663574219 -56.922092437744126 L -95.35032653808594 -56.96684646606444 L -94.81069946289062 -59.566440582275376 L -94.64705657958984 -60.354789733886705 L -94.07514953613281 -62.7520294189453 L -94.06500244140625 -62.79600143432616 L -94.05680084228516 -62.82720565795897 L -93.31874084472656 -65.53600311279295 L -93.18229675292969 -66.03678131103514 L -92.8349609375 -67.31153869628905 L -92.8280029296875 -67.33599853515624 L -91.43331146240234 -71.67710876464842 L -91.42524719238281 -71.70313262939452 L -91.40470886230469 -71.76227569580077 L -90.93429565429688 -73.06523132324217 L -90.49500274658203 -74.28199768066405 L -88.97486877441406 -78.1904830932617 L -86.35242462158203 -84.51991271972655 L -86.31566619873047 -84.61180877685545 L -86.3010025024414 -84.64700317382811 L -84.86699676513672 -87.40799713134764 L -79.0770034790039 -91.14600372314452 L -78.10800170898438 -86.76999664306639 L -78.52482604980469 -85.03849792480467 L -78.5293960571289 -85.02027130126952 L -78.53302001953125 -84.99613189697264 L -78.83526611328125 -82.71149444580077 L -78.83747100830078 -82.68023681640624 L -78.96488189697266 -80.33751678466795 L -78.97772979736328 -80.1012496948242 L -78.99945831298828 -78.23738861083983 L -79.00001525878906 -78.20388031005858 L -78.99906921386719 -78.16135406494139 L -78.89239501953125 -73.88444519042967 L -78.65632629394531 -70.17153930664061 L -78.65398406982422 -70.12953186035155 L -78.65290832519531 -70.11783599853514 L -78.64859771728516 -70.07083892822264 L -78.38684844970703 -67.20343017578124 L -78.3832015991211 -67.17687988281249 L -78.1579818725586 -65.53600311279295 L -77.41490936279297 -60.122333526611314 L -77.41107177734375 -60.09210968017577 L -77.40852355957031 -60.0757598876953 L -77.40106964111328 -60.02807998657225 L -76.9022445678711 -57.21188354492186 L -76.89929962158203 -57.195243835449205 L -76.88626098632812 -57.12969589233397 L -76.58895874023438 -55.60067749023436 L -76.43289184570312 -54.83715438842772 L -76.27288055419922 -54.07758331298827 L -76.10792541503906 -53.32492828369139 L -75.87899780273438 -52.32103347778319 L -75.85408020019531 -52.2117462158203 L -75.41651153564453 -50.40418243408202 L -75.4046401977539 -50.35499191284178 L -75.13400268554688 -49.306999206542955 L -75.09172058105469 -49.15200042724608 L -74.76458740234375 -47.95281219482421 L -74.38825988769531 -46.64504623413085 L -74.00698852539062 -45.37975311279296 L -73.99299621582031 -45.331001281738274 L -73.97376251220703 -45.26947021484374 L -73.60877227783203 -44.10225296020507 L -73.22157287597656 -42.90412521362304 L -72.83240509033203 -41.733657836914055 L -72.5380630493164 -40.86938476562499 L -72.5187759399414 -40.81045532226562 L -72.48687744140625 -40.719104766845696 L -72.22047424316406 -39.956062316894524 L -72.12310791015625 -39.68437957763671 L -71.81550598144531 -38.82608795166015 L -71.3967056274414 -37.70006942749023 L -71.38130187988281 -37.65799713134765 L -70.94175720214844 -36.52703857421874 L -70.47357177734375 -35.38125991821288 L -70.46194458007812 -35.352790832519524 L -70.46173095703125 -35.35228729248046 L -69.96116638183594 -34.18429565429687 L -69.9547119140625 -34.16961669921874 L -69.41442108154297 -32.972480773925774 L -69.40743255615234 -32.95740890502929 L -69.31742858886719 -32.76800155639648 L -68.82170104980469 -31.724712371826165 L -68.81412506103516 -31.70916557312011 L -68.17802429199219 -30.436958312988274 L -68.16979217529297 -30.420907974243157 L -67.47936248779297 -29.106227874755852 L -67.47277069091797 -29.093854904174798 L -66.91963195800781 -28.081422805786126 L -66.91500091552734 -28.072999954223626 L -66.52200317382812 -27.375999450683587 L -66.11599731445312 -26.670000076293938 L -65.69499969482422 -25.954999923706048 L -65.53600311279297 -25.68987846374511 L -65.26200103759766 -25.232999801635735 L -64.81600189208984 -24.50600051879882 L -64.35800170898438 -23.77499961853027 L -63.88999938964844 -23.041999816894528 L -63.4119987487793 -22.309000015258786 L -62.92599868774414 -21.57799911499023 L -62.43299865722656 -20.85199928283691 L -61.933998107910156 -20.131000518798825 L -61.43000030517578 -19.419000625610348 L -60.92100143432617 -18.715000152587887 L -60.40800094604492 -18.020999908447262 L -59.89099884033203 -17.336999893188473 L -59.36899948120117 -16.663999557495114 L -59.14643478393555 -16.38400077819824 L -58.84199905395508 -16.00099945068359 L -58.31100082397461 -15.347999572753903 L -57.77299880981445 -14.704999923706051 L -57.22800064086914 -14.071000099182125 L -56.67599868774414 -13.444000244140621 L -56.112998962402344 -12.82299995422363 L -55.54100036621094 -12.208000183105465 L -54.957000732421875 -11.59700012207031 L -54.361000061035156 -10.989999771118162 L -53.75199890136719 -10.387000083923338 L -53.130001068115234 -9.786000251770018 L -52.49399948120117 -9.189000129699705 L -51.84400177001953 -8.595000267028807 L -51.39122009277344 -8.19200038909912 L -51.18000030517578 -8.003999710083006 L -50.50299835205078 -7.4169998168945295 L -49.8120002746582 -6.835000038146971 L -49.152000427246094 -6.293893814086912 L -49.106998443603516 -6.25699996948242 L -48.38999938964844 -5.68499994277954 L -47.659000396728516 -5.119999885559081 L -46.91699981689453 -4.560999870300292 L -46.1619987487793 -4.008999824523925 L -45.39699935913086 -3.4649999141693106 L -44.62099838256836 -2.9289999008178706 L -43.83599853515625 -2.401000022888183 L -43.04199981689453 -1.8819999694824214 L -42.24100112915039 -1.3719999790191646 L -41.43299865722656 -0.8719999790191647 L -40.62099838256836 -0.38199999928474404 L -39.9737434387207 1.1102230246251565e-16 L -39.805999755859375 0.09899999946355828 L -38.98899841308594 0.5699999928474426 L -38.17300033569336 1.0290000438690186 L -37.35900115966797 1.4789999723434448 L -36.547000885009766 1.91700005531311 L -35.74100112915039 2.342999935150146 L -34.939998626708984 2.7590000629425044 L -34.14500045776367 3.1619999408721915 L -33.356998443603516 3.55399990081787 L -32.768001556396484 3.840968132019042 L -32.57500076293945 3.93499994277954 L -31.799999237060547 4.30399990081787 L -31.031999588012695 4.662000179290771 L -30.268999099731445 5.007999897003173 L -29.51099967956543 5.342999935150146 L -28.756999969482422 5.6680002212524405 L -28.0049991607666 5.982999801635741 L -27.2549991607666 6.28700017929077 L -26.5049991607666 6.581999778747557 L -25.753999710083008 6.868000030517576 L -25.00200080871582 7.14400005340576 L -24.576000213623047 7.295416355133055 L -24.24799919128418 7.41200017929077 L -23.492000579833984 7.6710000038146955 L -22.73200035095215 7.921999931335447 L -21.9689998626709 8.164999961853026 L -21.880990982055664 8.19200038909912 L -21.202999114990234 8.399999618530272 L -20.43400001525879 8.626999855041502 L -19.660999298095703 8.84700012207031 L -18.88599967956543 9.059000015258787 L -18.10700035095215 9.263999938964842 L -17.325000762939453 9.461000442504881 L -16.54199981689453 9.652000427246092 L -16.384000778198242 9.68878650665283 L -15.755999565124512 9.83500003814697 L -14.968000411987305 10.012999534606932 L -14.178000450134277 10.184000015258787 L -13.38700008392334 10.348999977111815 L -12.595000267028809 10.508999824523924 L -11.803000450134277 10.663999557495115 L -11.01099967956543 10.814000129699705 L -10.220000267028809 10.95899963378906 L -9.430000305175781 11.100999832153319 L -8.640999794006348 11.239000320434569 L -8.192000389099121 11.31564426422119 L -7.855999946594238 11.373000144958494 L -7.073999881744385 11.503000259399412 L -6.295000076293945 11.630000114440916 L -5.519999980926514 11.753000259399412 L -4.749000072479248 11.873000144958494 L -3.5999999046325684 12.045000076293942 L -2.0810000896453857 12.260000228881832 L -0.5730000138282776 12.454000473022457 L 0 12.519147872924801 L 0.9309999942779541 12.624999999999996 L 2.438999891281128 12.769000053405758 L 3.9570000171661377 12.883999824523922 L 4.858908653259277 12.934073448181149 L 5.48799991607666 12.968999862670895 L 5.506944179534912 12.969674110412594 L 5.540512561798096 12.970979690551754 L 6.649757385253906 13.014122962951657 L 7.0343017578125 13.024045944213864 L 7.415254592895508 13.033877372741696 L 7.429539680480957 13.034159660339352 L 8.197999954223633 13.046999931335446 L 8.97599983215332 13.052000045776364 L 10.466497421264648 13.038171768188473 L 10.476061820983887 13.038146972656246 L 10.485612869262695 13.038048744201657 L 10.489816665649414 13.037955284118649 L 10.499910354614258 13.037730216979977 L 10.537626266479492 13.036148071289059 L 14.211026191711426 12.916631698608395 L 14.26587200164795 12.912757873535153 L 17.199260711669922 12.724778175354 L 17.425647735595703 12.710270881652828 L 17.56893539428711 12.69777679443359 L 18.91261100769043 12.584483146667477 L 23.098295211791992 12.231564521789547 L 32.768001556396484 11.423086166381834 L 32.93913269042969 11.408778190612791 L 35.64158630371094 11.2546911239624 L 35.72541809082031 11.250117301940916 L 39.14793014526367 11.158257484436033 L 39.18333053588867 11.158294677734373 L 43.396034240722656 11.327198028564451 L 43.422218322753906 11.328587532043455 L 43.43000030517578 11.32900047302246 L 43.4479866027832 11.33097457885742 L 43.47563552856445 11.335584640502928 L 46.40131759643555 11.718827247619627 L 49.42577362060547 12.377648353576657 L 49.449241638183594 12.382761955261227 L 50.990116119384766 12.81242752075195 L 51.023651123046875 12.822028160095211 L 53.356689453125 13.580612182617184 L 53.37855911254883 13.587958335876461 L 53.38567352294922 13.590347290039059 L 53.42433547973633 13.605085372924801 L 57.31800079345703 15.0620002746582 L 60.40962219238281 16.356925964355465 L 60.46706771850586 16.38148498535156 L 63.532020568847656 17.77617263793945 L 63.57695770263672 17.797824859619137 L 65.53600311279297 18.805698394775387 L 68.11561584472656 20.132839202880856 L 69.0948257446289 20.699110031127926 L 70.33605194091797 21.41689872741699 L 70.39629364013672 21.450336456298825 L 70.42157745361328 21.466356277465817 L 75.39227294921875 24.61603927612304 L 75.42584991455078 24.636919021606438 L 75.48796081542969 24.678535461425774 L 77.54048156738281 26.07124710083007 L 81.21190643310547 28.690729141235344 L 81.242919921875 28.71290969848632 L 81.2735366821289 28.736206054687493 L 83.57694244384766 30.484504699707024 z" fill="none" stroke="rgb(255,0,0)" stroke-width="0.001mm" />
</svg>