<?xml version="1.0" standalone="no"?>
<!DOCTYPE svg PUBLIC "-//W3C//DTD SVG 1.1//EN"
  "http://www.w3.org/Graphics/SVG/1.1/DTD/svg11.dtd">
<svg width="67.41999816894531mm" height="82.17600250244139mm" viewBox="-33.69499969482422 -41.088001251220696 67.41999816894531 82.17600250244139" xmlns="http://www.w3.org/2000/svg" version="1.1">
	<title>svgOutput</title>
	<desc>made with tinkercad</desc>
<path d="M 6.295812606811523 -8.999936103820799 L 7.015207290649414 -8.712770462036131 L 7.740523338317871 -8.423630714416502 L 8.466825485229492 -8.134490966796873 L 9.194114685058594 -7.847325325012205 L 13.471010208129883 -6.214131355285643 L 13.557392120361328 -6.182206153869627 L 14.92216968536377 -5.692741394042968 L 18.777690887451172 -4.393094062805175 L 18.89972686767578 -4.353013038635253 L 25.532522201538086 -2.1834993362426753 L 25.537105560302734 -2.1819999217987056 L 25.587675094604492 -2.164331197738647 L 26.0011043548584 -2.020645141601562 L 28.88983726501465 -1.0166766643524165 L 29.267541885375977 -0.8854070901870724 L 31.007312774658203 -0.16798597574233995 L 31.02371597290039 -0.16141119599342332 L 31.04104232788086 -0.15216168761253343 L 31.31787109375 1.1102230246251565e-16 L 31.766359329223633 0.24651522934436804 L 31.77143096923828 0.250942349433899 L 32.327999114990234 0.6959999799728394 L 32.381019592285156 0.7829468250274657 L 32.7140007019043 1.3289999961853027 L 32.724998474121094 2.3069999217987056 L 32.21799850463867 3.0450000762939444 L 31.684999465942383 3.3619999885559073 L 31.67218017578125 3.3652281761169425 L 31.029756546020508 3.5537114143371573 L 30.81121063232422 3.582018852233886 L 30.43280029296875 3.631032705307006 L 29.80313491821289 3.712590217590331 L 29.789470672607422 3.7141449451446524 L 29.75148582458496 3.714474439620971 L 26.205825805664062 3.7509868144989005 L 26.09905433654785 3.7461464405059806 L 24.12686538696289 3.65674066543579 L 23.985471725463867 3.6503307819366446 L 23.937274932861328 3.648341178894042 L 23.926349639892578 3.647650480270385 L 21.361663818359375 3.485515117645263 L 21.320383071899414 3.482959032058715 L 20.66908073425293 3.4415125846862784 L 20.038450241088867 3.4035799503326407 L 20.012842178344727 3.4020395278930655 L 19.348709106445312 3.3645401000976554 L 18.675695419311523 3.3300013542175284 L 17.994787216186523 3.2984230518341056 L 17.30401039123535 3.269805192947387 L 17.224742889404297 3.267314910888671 L 16.52508544921875 3.243631124496459 L 16.384000778198242 3.239701032638549 L 16.04681396484375 3.230308771133422 L 15.816545486450195 3.2238945960998526 L 15.09912395477295 3.2081053256988517 L 14.374795913696289 3.1962635517120352 L 13.644545555114746 3.1893558502197257 L 12.910348892211914 3.1863951683044425 L 12.17319107055664 3.1863951683044425 L 11.435046195983887 3.1893558502197257 L 11.144702911376953 3.1920802593231192 L 10.698875427246094 3.1962635517120352 L 9.963691711425781 3.2071185111999503 L 9.233442306518555 3.219947338104247 L 9.126809120178223 3.2215020656585684 L 8.399519920349121 3.2372913360595694 L 7.676177978515625 3.2570276260375968 L 6.957769870758057 3.2807114124298087 L 6.2423224449157715 3.3073556423187247 L 5.530822277069092 3.3379473686218253 L 4.819322109222412 3.374459743499755 L 4.109795570373535 3.4159064292907706 L 3.5466580390930176 3.4525649547576895 L 3.397308826446533 3.462287187576293 L 2.6808743476867676 3.5165624618530265 L 2.6086835861206055 3.5218987464904776 L 1.8873151540756226 3.5820949077606192 L 1.15903902053833 3.650185823440551 L 0.4238550662994385 3.727158069610595 L 0 3.7750036716461173 L -0.31922346353530884 3.8110382556915274 L -1.0692098140716553 3.902812719345092 L -1.8251169919967651 4.003468990325927 L -1.879151463508606 4.010675907135009 L -2.6399927139282227 4.119226932525634 L -3.4028079509735107 4.234684944152831 L -4.165622711181641 4.3580379486083975 L -4.926464080810547 4.48731231689453 L -5.0042548179626465 4.502912521362304 L -5.757201671600342 4.639094352722167 L -6.500280380249023 4.779222965240478 L -7.228556156158447 4.924286365509032 L -7.938082695007324 5.074283599853515 L -8.625899314880371 5.227241039276122 L -8.676177978515625 5.239287376403808 L -9.289045333862305 5.386119842529296 L -9.924559593200684 5.548945903778075 L -10.5294828414917 5.717692852020263 L -11.104801177978516 5.893347740173339 L -11.142220497131348 5.905403614044189 L -11.683987617492676 6.089939594268797 L -12.669824600219727 6.486642837524412 L -12.687045097351074 6.495787143707274 L -13.552490234375 6.943805217742918 L -13.631217956542969 6.997130393981932 L -14.323200225830078 7.4658350944519025 L -14.34168529510498 7.4808425903320295 L -15.057132720947266 8.114383697509764 L -15.972821235656738 9.223992347717283 L -16.09625816345215 9.373571395874022 L -16.384000778198242 9.806405067443846 L -16.444608688354492 9.89757442474365 L -16.469127655029297 9.932582855224608 L -17.17865562438965 11.166112899780272 L -17.918773651123047 12.67101955413818 L -17.930999755859375 12.694999694824215 L -17.9342098236084 12.702408790588375 L -18.71256446838379 14.498914718627926 L -19.434673309326172 16.38400077819824 L -19.556299209594727 16.70150566101074 L -19.577999114990234 16.754999160766598 L -19.584074020385742 16.77255058288574 L -19.586803436279297 16.781139373779293 L -21.03569221496582 21.339572906494137 L -21.048999786376953 21.382999420166012 L -21.0643367767334 21.442132949829098 L -21.072940826416016 21.47967147827148 L -22.865999221801758 28.719999313354485 L -23.685014724731445 32.76800155639648 L -24.344999313354492 36.02999877929687 L -26.229000091552734 40.088001251220696 L -28.339000701904297 36.873001098632805 L -29.364824295043945 32.76800155639648 L -29.52614974975586 32.12242889404296 L -29.545398712158203 32.04428100585937 L -30.43650245666504 27.946989059448235 L -30.451271057128906 27.873928070068352 L -31.079877853393555 24.474319458007805 L -31.090511322021484 24.402404785156243 L -31.65497589111328 20.53602790832519 L -32.05661392211914 16.95089721679687 L -32.06237030029297 16.897705078124996 L -32.06418991088867 16.876756668090817 L -32.10084533691406 16.38400077819824 L -32.59115219116211 9.793332099914549 L -32.593353271484375 9.762711524963377 L -32.596317291259766 9.693432807922362 L -32.67384338378906 7.434310913085936 L -32.69499969482422 6.8178272247314435 L -32.69302749633789 2.426460266113281 L -32.6932258605957 2.3748633861541744 L -32.69218444824219 2.333873033523559 L -32.611820220947266 1.1102230246251565e-16 L -32.52836990356445 -2.423605918884277 L -32.5263671875 -2.461539268493652 L -32.2105827331543 -6.399954319000242 L -32.13064956665039 -7.113428115844725 L -32.042823791503906 -7.822954654693602 L -31.946115493774414 -8.525573730468748 L -31.936351776123047 -8.613101005554197 L -31.92809295654297 -8.656506538391112 L -31.35807228088379 -11.652519226074217 L -31.35300064086914 -11.677000045776365 L -31.34836196899414 -11.693957328796385 L -30.58456039428711 -14.179767608642575 L -30.572439193725586 -14.211586952209469 L -29.66160011291504 -16.22964286804199 L -29.65394401550293 -16.244714736938473 L -29.572795867919922 -16.38400077819824 L -28.926654815673828 -17.493047714233395 L -28.916357040405273 -17.50992965698242 L -28.913110733032227 -17.515249252319332 L -28.90266227722168 -17.530231475830075 L -28.886402130126953 -17.551614761352536 L -26.32164764404297 -21.120958328247067 L -26.282487869262695 -21.167995452880856 L -22.755578994750977 -25.353116989135735 L -21.13126564025879 -27.148149490356438 L -21.0788516998291 -27.205596923828118 L -17.11083221435547 -31.32953453063964 L -17.067642211914062 -31.3731460571289 L -16.384000778198242 -32.03506088256835 L -15.626999855041504 -32.76800155639648 L -14.180194854736328 -34.16881942749023 L -14.141563415527344 -34.20559310913085 L -10.65391731262207 -37.3083267211914 L -10.61860179901123 -37.33974838256835 L -10.575358390808105 -37.37719345092773 L -8.1240873336792 -39.20084381103515 L -8.106931686401367 -39.21367645263671 L -8.091358184814453 -39.22336196899413 L -6.941708087921143 -39.83223342895507 L -6.928663730621338 -39.83772659301757 L -6.0997314453125 -40.071601867675774 L -6.088413238525391 -40.073196411132805 L -5.670000076293945 -40.088001251220696 L -5.188000202178955 -39.99700164794921 L -4.703999996185303 -39.75400161743163 L -4.314000129699707 -39.37699890136718 L -4.068789482116699 -38.951370239257805 L -4.067999839782715 -38.950000762939446 L -4.06632661819458 -38.94461059570312 L -4.06557559967041 -38.93738937377929 L -3.8879473209381104 -38.16470718383788 L -3.9376626014709473 -37.36040878295898 L -3.9599854946136475 -36.99926757812499 L -4.0853118896484375 -36.334148406982415 L -4.089078426361084 -36.307971954345696 L -4.089317798614502 -36.30630874633788 L -4.101624011993408 -36.259468078613274 L -5.004696846008301 -32.76800155639648 L -5.5325188636779785 -30.727331161499016 L -5.728896617889404 -29.892478942871087 L -5.743403434753418 -29.82986640930175 L -6.314774513244629 -27.100311279296868 L -6.4489827156066895 -26.37006187438964 L -6.456717014312744 -26.323669433593743 L -6.843552112579346 -23.79542541503906 L -6.846252918243408 -23.768112182617184 L -7.030789375305176 -21.72538566589355 L -7.031118392944336 -21.705543518066403 L -7.051841735839844 -20.957530975341793 L -7.046424865722656 -20.783479690551754 L -7.014342784881592 -19.752618789672848 L -7.011826038360596 -19.727952957153317 L -6.93386697769165 -19.039150238037106 L -6.711831569671631 -17.9496955871582 L -6.705098628997803 -17.9276008605957 L -6.506746768951416 -17.313795089721676 L -6.092031478881836 -16.38400077819824 L -6.074518203735352 -16.344734191894528 L -6.0631208419799805 -16.3250617980957 L -5.484841823577881 -15.426065444946286 L -5.072349548339844 -14.913904190063473 L -5.0559983253479 -14.896380424499508 L -4.243842124938965 -14.09606552124023 L -3.6902334690093994 -13.642127037048336 L -3.668822765350342 -13.626565933227536 L -2.6188418865203857 -12.917039871215817 L -1.9221440553665161 -12.511454582214352 L -1.4257715940475464 -12.248959541320797 L -0.90571528673172 -11.99041175842285 L -0.36197522282600403 -11.734824180603026 L 0 -11.572754859924315 L 0.20446178317070007 -11.481210708618162 L 0.7935957908630371 -11.226610183715819 L 0.8709384202957153 -11.190981864929197 L 1.0633796453475952 -11.110019683837889 L 1.4807957410812378 -10.93440818786621 L 2.110389471054077 -10.67586040496826 L 2.758732795715332 -10.412378311157225 L 3.0179314613342285 -10.308390617370604 L 3.422865390777588 -10.145935058593748 L 4.101800441741943 -9.874558448791502 L 4.794550895690918 -9.598248481750487 L 5.498156547546387 -9.317990303039549 L 6.210643291473389 -9.033784866333006 L 6.295812606811523 -8.999936103820799 z" fill="none" stroke="rgb(255,0,0)" stroke-width="0.001mm" />
</svg>