<?xml version="1.0" standalone="no"?>
<!DOCTYPE svg PUBLIC "-//W3C//DTD SVG 1.1//EN"
  "http://www.w3.org/Graphics/SVG/1.1/DTD/svg11.dtd">
<svg width="217.96698760986328mm" height="249.60022735595697mm" viewBox="-108.98198699951172 -124.818000793457 217.96698760986328 249.60022735595697" xmlns="http://www.w3.org/2000/svg" version="1.1">
	<title>svgOutput</title>
	<desc>made with tinkercad</desc>
<path d="M 0.33000001311302185 -66.04699707031249 L 0 -65.54903411865233 L -0.008639215491712093 -65.53600311279295 L -3.7899999618530273 -59.83000183105467 L -7.5970001220703125 -57.52500152587889 L -9.96500015258789 -56.75699996948241 L -11.534000396728516 -56.44200134277342 L -11.547454833984375 -56.44033813476561 L -14.000964164733887 -56.17455673217772 L -14.120505332946777 -56.16160583496092 L -15.953580856323242 -56.08126068115233 L -15.982315063476562 -56.079887390136705 L -15.996726036071777 -56.07994079589842 L -15.999258995056152 -56.07995223999022 L -16.01267433166504 -56.080348968505845 L -24.140371322631836 -56.28694915771483 L -24.168272018432617 -56.287658691406236 L -24.190011978149414 -56.28867721557616 L -24.2341251373291 -56.29021072387694 L -29.851388931274414 -56.44395828247069 L -29.875455856323242 -56.44399261474608 L -32.768001556396484 -56.416557312011705 L -33.5356559753418 -56.409275054931626 L -33.57991409301758 -56.407924652099595 L -36.2154541015625 -56.316669464111314 L -39.748687744140625 -56.10241317749022 L -39.7881965637207 -56.09936141967772 L -42.79967498779297 -55.80674362182616 L -42.82455825805664 -55.80338287353514 L -47.83675003051758 -55.00389099121092 L -47.866703033447266 -54.99837493896483 L -50.05191421508789 -54.42504501342772 L -50.0620002746582 -54.42200088500975 L -50.698001861572266 -54.07199859619139 L -51.29800033569336 -53.556999206542955 L -51.78900146484375 -52.914001464843736 L -51.792076110839844 -52.90818405151366 L -52.49336624145508 -51.44212341308592 L -52.49864959716797 -51.42848205566405 L -53.55504608154297 -48.179931640624986 L -53.56100082397461 -48.16099929809569 L -54.45100021362305 -44.82300186157226 L -54.96184158325195 -42.642749786376946 L -54.9705810546875 -42.60363006591796 L -55.53300094604492 -39.97900009155273 L -55.85239791870117 -36.13727951049804 L -55.85722732543945 -36.07617568969726 L -56.104469299316406 -32.76800155639648 L -56.13100051879883 -32.41299819946288 L -56.321449279785156 -29.084102630615227 L -56.32366180419922 -29.03349876403808 L -56.404998779296875 -26.146999359130852 L -56.37200164794922 -23.73500061035156 L -56.23099899291992 -21.80800056457519 L -55.999000549316406 -20.30100059509277 L -55.69599914550781 -19.121999740600582 L -55.347835540771484 -18.180664062499996 L -54.9659423828125 -17.384149551391598 L -54.959999084472656 -17.370000839233395 L -54.95443344116211 -17.36014366149902 L -54.55727767944336 -16.656806945800778 L -54.3876838684082 -16.38400077819824 L -54.14166259765625 -15.988249778747555 L -54.1349983215332 -15.977000236511227 L -54.128662109375 -15.967338562011715 L -53.711448669433594 -15.331257820129391 L -53.282936096191406 -14.696426391601559 L -52.850460052490234 -14.067546844482418 L -52.416988372802734 -13.43965911865234 L -52.40299987792969 -13.418999671936032 L -52.3990364074707 -13.413655281066891 L -51.96159362792969 -12.823845863342282 L -51.519195556640625 -12.240594863891598 L -50.6343994140625 -11.114760398864744 L -50.619998931884766 -11.0959997177124 L -50.075435638427734 -10.434916496276854 L -49.95243453979492 -10.285597801208494 L -49.152000427246094 -9.359259605407713 L -48.82362747192383 -8.979234695434569 L -48.80522918701172 -8.957840919494627 L -47.927940368652344 -8.010162353515623 L -47.63079071044922 -7.689170360565184 L -46.39485168457031 -6.43835401535034 L -45.880043029785156 -5.9414000511169425 L -45.857852935791016 -5.918981075286864 L -45.33014678955078 -5.423018932342528 L -44.7588005065918 -4.97367763519287 L -44.75199890136719 -4.967999935150146 L -44.750633239746094 -4.9672555923461905 L -44.13199996948242 -4.630000114440917 L -43.4636344909668 -4.582117080688476 L -43.46200180053711 -4.581999778747558 L -42.81999969482422 -4.986000061035155 L -42.316001892089844 -5.831999778747558 L -41.94200134277344 -6.929999828338621 L -41.492000579833984 -8.791000366210936 L -40.92100143432617 -10.65499973297119 L -39.849998474121094 -13.213000297546383 L -39.145999908447266 -14.520000457763668 L -38.303001403808594 -15.83600044250488 L -37.883819580078125 -16.38400077819824 L -37.30400085449219 -17.142000198364254 L -36.13199996948242 -18.4109992980957 L -34.78499984741211 -19.604999542236325 L -33.27399826049805 -20.681999206542965 L -32.768001556396484 -20.963418960571286 L -31.62700080871582 -21.597999572753903 L -29.891000747680664 -22.32099914550781 L -28.121999740600586 -22.834999084472653 L -26.374000549316406 -23.14500045776367 L -24.69499969482422 -23.267999649047848 L -23.115999221801758 -23.236999511718746 L -21.656999588012695 -23.083000183105465 L -20.331789016723633 -22.839979171752926 L -20.317237854003906 -22.836830139160153 L -20.311180114746094 -22.83551979064941 L -20.302215576171875 -22.83268547058105 L -20.29399299621582 -22.829608917236325 L -20.207387924194336 -22.802700042724606 L -16.976999282836914 -21.79899978637695 L -16.838525772094727 -21.737411499023434 L -15.60099983215332 -21.1870002746582 L -15.587820053100586 -21.18009567260742 L -13.235968589782715 -19.896545410156246 L -13.214913368225098 -19.882711410522457 L -11.278677940368652 -18.564443588256832 L -11.264472961425781 -18.553396224975582 L -9.602999687194824 -17.25099945068359 L -9.59187126159668 -17.241018295288082 L -8.646077156066895 -16.41010475158691 L -8.644583702087402 -16.40879440307617 L -8.62466812133789 -16.389015197753903 L -8.619577407836914 -16.38400077819824 L -5.758999824523926 -13.565999984741207 L 0 -7.930838584899901 L 0.007053576875478029 -7.9239368438720685 L 0.0407390296459198 -7.890614986419676 L 0.052594397217035294 -7.87937545776367 L 0.06623530387878418 -7.866443157196043 L 0.07855137437582016 -7.8549671173095685 L 0.08791965991258621 -7.846349716186522 L 1.859655499458313 -6.196536540985106 L 4.642834186553955 -3.6048831939697257 L 5.427445888519287 -2.896649599075317 L 5.440230369567871 -2.8851006031036373 L 5.441066741943359 -2.8843545913696285 L 6.239721298217773 -2.1719074249267574 L 6.246311187744141 -2.1660764217376705 L 6.638372421264648 -1.8210626840591426 L 7.064648628234863 -1.4459396600723262 L 7.071408271789551 -1.4400360584259029 L 7.9155354499816895 -0.7089881896972654 L 7.922529220581055 -0.7029876112937925 L 8.749242782592773 1.1102230246251565e-16 L 8.797406196594238 0.04095530509948741 L 8.804682731628418 0.04708507284522066 L 9.718244552612305 0.8098745346069335 L 9.725860595703125 0.8161739110946654 L 10.685050964355469 1.6007857322692867 L 10.693061828613281 1.6072708368301387 L 11.704824447631836 2.416680812835693 L 11.713264465332031 2.423343420028686 L 13.87565803527832 4.08283233642578 L 13.884452819824219 4.089600086212157 L 13.885163307189941 4.090126991271972 L 13.893643379211426 4.096415996551513 L 16.604572296142578 6.008845329284666 L 16.61427879333496 6.015742301940916 L 16.61586570739746 6.016812324523924 L 16.62472915649414 6.022792816162108 L 18.75240707397461 7.370817661285399 L 18.767000198364258 7.380000114440916 L 18.7805118560791 7.386686801910399 L 24.056554794311523 9.88931083679199 L 24.070833206176758 9.896142959594725 L 24.07350730895996 9.897352218627928 L 24.086000442504883 9.902999877929686 L 24.101327896118164 9.909396171569822 L 27.748632431030273 11.34867763519287 L 27.76300048828125 11.354000091552733 L 29.304000854492188 11.829999923706053 L 30.572999954223633 12.119999885559078 L 31.608999252319336 12.260999679565426 L 31.62255096435547 12.261299133300778 L 32.768001556396484 12.257642745971676 L 34.41939926147461 12.252372741699215 L 34.419776916503906 12.252371788024899 L 34.45854187011719 12.25085353851318 L 38.08700180053711 12.109999656677243 L 38.108726501464844 12.110040664672848 L 42.497989654541016 12.170547485351559 L 42.51332473754883 12.171103477478024 L 42.515594482421875 12.171185493469235 L 42.53236770629883 12.172591209411618 L 43.1951789855957 12.224365234374996 L 45.034000396728516 12.368000030517575 L 47.18299865722656 12.637000083923336 L 47.19875717163086 12.63974571228027 L 50.51945877075195 13.291813850402828 L 51.073211669921875 13.400551795959469 L 51.0890007019043 13.404000282287594 L 53.95367431640625 14.187620162963864 L 53.96931076049805 14.191698074340817 L 53.99222183227539 14.198757171630856 L 56.77556228637695 15.094464302062985 L 56.79839324951172 15.102628707885739 L 61.19063186645508 16.759141921997067 L 61.232627868652344 16.776102066040036 L 65.53600311279297 18.61896705627441 L 66.32615661621094 18.957342147827145 L 66.36161041259766 18.973243713378903 L 69.7817611694336 20.600992202758786 L 69.81495666503906 20.617862701416012 L 72.60028076171875 22.070039749145504 L 72.62085723876953 22.081668853759762 L 75.86345672607422 23.941526412963864 L 75.89060974121094 23.95809745788574 L 79.75018310546875 26.375415802001946 L 79.80390167236328 26.411371231079094 L 83.86285400390625 29.142137527465813 L 87.12528991699219 31.454313278198235 L 88.85588073730469 32.76800155639648 L 90.06932067871094 33.68911743164062 L 90.11100006103516 33.719951629638665 L 90.1259765625 33.732124328613274 L 92.33191680908203 35.52525329589843 L 92.35747528076172 35.54642105102538 L 94.36811065673828 37.29815673828124 L 94.38433074951172 37.31265640258788 L 98.30400085449219 41.09212112426757 L 98.93230438232422 41.69794845581054 L 98.94379425048828 41.70879745483398 L 98.94876098632812 41.713821411132805 L 98.96759033203125 41.732864379882805 L 101.73316192626953 44.83895111083984 L 102.27863311767578 45.451587677001946 L 102.29132843017578 45.46554946899413 L 102.29493713378906 45.46990203857421 L 102.30000305175781 45.476001739501946 L 104.11720275878906 47.95085144042968 L 104.12603759765625 47.962383270263665 L 104.13200378417969 47.97100067138671 L 105.58399963378906 50.449001312255845 L 106.26000213623047 51.888000488281236 L 106.86100006103516 53.45700073242186 L 107.35399627685547 55.13499832153319 L 107.71399688720703 56.88899993896483 L 107.92500305175781 58.68099975585936 L 107.98500061035156 60.473999023437486 L 107.9010009765625 62.234001159667955 L 107.68900299072266 63.93999862670897 L 107.37467956542969 65.53600311279295 L 107.36699676513672 65.57499694824217 L 106.95832824707031 67.11942291259764 L 106.95108032226562 67.14395904541014 L 106.5714111328125 68.30333709716795 L 106.47000122070312 68.61299896240233 L 105.3471450805664 71.3318634033203 L 105.34037780761719 71.34860229492186 L 104.39408111572266 73.21937561035155 L 104.38665008544922 73.23506927490233 L 104.37580871582031 73.25446319580077 L 103.37000274658203 75.03099822998045 L 102.30070495605469 76.71131896972655 L 100.7999267578125 78.84296417236327 L 100.78214263916016 78.86978149414061 L 100.77264404296875 78.88233184814452 L 100.76824951171875 78.88796234130858 L 99.1935043334961 80.90189361572264 L 99.16670989990234 80.9331588745117 L 98.30400085449219 81.92977142333983 L 97.31089782714844 83.07700347900389 L 97.30685424804688 83.08167266845702 L 97.29095458984375 83.09799194335936 L 94.92918395996094 85.58375549316405 L 93.14669799804688 87.30672454833983 L 93.13031768798828 87.32244873046874 L 90.34896087646484 89.8220977783203 L 90.32218933105469 89.8456573486328 L 86.55665588378906 92.93704986572264 L 86.37731170654297 93.08428955078124 L 86.35299682617188 93.10399627685545 L 83.17388153076172 95.4816436767578 L 83.15025329589844 95.49942016601561 L 83.13005828857422 95.51366424560545 L 79.79322052001953 97.82781982421872 L 79.774658203125 97.84006500244138 L 79.03227996826172 98.30400085449216 L 76.00336456298828 100.19687652587888 L 75.98200225830078 100.20999908447263 L 72.7364273071289 102.06092834472653 L 72.7063980102539 102.07787322998044 L 68.00765228271484 104.47932434082028 L 67.9729995727539 104.49700164794919 L 65.53600311279297 105.5880432128906 L 61.97979736328125 107.18015289306638 L 61.950618743896484 107.19352722167966 L 61.91495132446289 107.20851135253903 L 58.536460876464844 108.54760742187497 L 55.417850494384766 109.66252899169919 L 55.371646881103516 109.67906188964841 L 55.37137985229492 109.67914581298825 L 53.179325103759766 110.35003662109372 L 51.31071090698242 110.92194366455075 L 49.5351676940918 111.38021087646482 L 49.49700164794922 111.390998840332 L 46.481998443603516 112.06199645996091 L 43.46059799194336 112.58375549316403 L 43.42613220214844 112.5893859863281 L 39.18069839477539 113.08931732177732 L 39.151065826416016 113.09237670898435 L 36.12569808959961 113.267951965332 L 36.091243743896484 113.26950073242185 L 32.768001556396484 113.29962921142575 L 31.82398796081543 113.30818939208982 L 31.804000854492188 113.30799865722653 L 28.96299934387207 113.42900085449216 L 27.144142150878906 113.67390441894528 L 27.13599967956543 113.67500305175778 L 24.850000381469727 114.13999938964841 L 22.030000686645508 114.86100006103513 L 22.003284454345703 114.86872100830075 L 15.098502159118652 116.92795562744138 L 15.03815746307373 116.9466857910156 L 11.264680862426758 118.13139343261716 L 11.25 118.13600158691403 L 11.226813316345215 118.14250946044919 L 11.182976722717285 118.15387725830075 L 10.877915382385254 118.23785400390622 L 5.763104438781738 119.64573669433591 L 0.3343047797679901 120.97491455078122 L 0.3050854206085205 120.98178100585935 L -8.312867402901145e-14 121.04582214355466 L -3.2817113399505615 121.73465728759763 L -3.306117296218872 121.73954010009763 L -6.378105640411377 122.27815246582028 L -6.405806541442871 122.28292083740232 L -11.430892944335938 122.93759155273435 L -11.461477279663086 122.94152832031247 L -11.499305725097656 122.94506072998044 L -16.554149627685547 123.39936065673825 L -16.593061447143555 123.40196228027341 L -19.316883087158203 123.58149719238278 L -25.139476776123047 123.78087615966794 L -25.164505004882812 123.78186035156247 L -25.169815063476562 123.78191375732419 L -25.20054054260254 123.78222656249997 L -30.546018600463867 123.75346374511716 L -30.574695587158203 123.75267791748044 L -32.768001556396484 123.63511657714841 L -34.127769470214844 123.56222534179685 L -34.15877914428711 123.56024169921872 L -37.37856674194336 123.26464843749997 L -37.39991760253906 123.26241302490232 L -37.42648696899414 123.25823974609372 L -39.87158203125 122.92198181152341 L -41.084922790527344 122.684455871582 L -43.099300384521484 122.29012298583982 L -43.11539077758789 122.28664398193357 L -45.198429107666016 121.72422027587888 L -45.21541976928711 121.71960449218747 L -45.23198699951172 121.71401214599607 L -49.152000427246094 120.24724578857419 L -49.43377685546875 120.14181518554685 L -49.45344161987305 120.13330078124997 L -52.095924377441406 118.68708038330075 L -52.106536865234375 118.68149566650388 L -52.11399841308594 118.67700195312497 L -52.12583923339844 118.66864776611325 L -53.760780334472656 117.4906311035156 L -54.077945709228516 117.26210021972653 L -55.10756301879883 116.35548400878903 L -55.119998931884766 116.3450012207031 L -56.172000885009766 115.25900268554685 L -56.63236999511719 114.68800354003903 L -57.20399856567383 113.97899627685544 L -58.16699981689453 112.49999999999997 L -59.00600051879883 110.83399963378903 L -59.66600036621094 109.01899719238278 L -60.108001708984375 107.1159973144531 L -60.316001892089844 105.19599914550778 L -60.30099868774414 103.32800292968747 L -60.09299850463867 101.56300354003903 L -59.73400115966797 99.93299865722653 L -59.26499938964844 98.44699859619138 L -59.206844329833984 98.30400085449216 L -58.71799850463867 97.10199737548825 L -57.80699920654297 95.33000183105467 L -56.84400177001953 93.76300048828124 L -56.185001373291016 92.83100128173827 L -55.190101623535156 91.56927490234374 L -55.17653274536133 91.55257415771483 L -53.81561279296875 90.00021362304686 L -53.804161071777344 89.98787689208983 L -51.99588394165039 87.9931182861328 L -51.98699951171875 87.98300170898436 L -51.64228439331055 87.06994628906249 L -51.52299880981445 86.75399780273436 L -51.66600036621094 85.19300079345702 L -52.38800048828125 84.00599670410155 L -53.356998443603516 83.19799804687499 L -53.371116638183594 83.1880645751953 L -54.017818450927734 82.73081970214842 L -55.8360481262207 81.44525909423827 L -58.64120864868164 79.33940124511717 L -58.66254425048828 79.32375335693358 L -58.70622253417969 79.28880310058592 L -63.58946228027344 75.33698272705077 L -65.53600311279297 73.63488006591795 L -65.73796844482422 73.45827484130858 L -65.75726318359375 73.44157409667967 L -65.76123046875 73.4379425048828 L -65.77979278564453 73.42090606689452 L -68.33598327636719 71.08195495605467 L -68.4240493774414 70.99558258056639 L -70.85150146484375 68.61503601074217 L -70.87202453613281 68.5950469970703 L -70.87431335449219 68.59266662597655 L -73.3329849243164 66.03488922119139 L -73.37859344482422 65.98516845703124 L -73.7800064086914 65.53600311279295 L -75.7463150024414 63.33573913574217 L -78.62399291992188 59.890705108642564 L -78.74986267089844 59.740016937255845 L -78.76799774169922 59.71799850463866 L -81.57315826416016 56.10144424438475 L -81.59465026855469 56.07383346557616 L -81.61209106445312 56.04997634887694 L -83.75067901611328 53.11983489990233 L -83.77686309814453 53.08160018920897 L -86.83100128173828 48.61100006103514 L -86.85126495361328 48.57922744750975 L -90.37854766845703 42.99767303466796 L -90.40228271484375 42.958084106445305 L -92.93466186523438 38.618415832519524 L -92.96842193603516 38.55463027954101 L -94.50590515136719 35.73855972290038 L -95.36067199707031 34.034534454345696 L -95.99598693847656 32.76800155639648 L -96.81212615966797 31.140993118286126 L -98.70272827148438 26.866792678833 L -98.71729278564453 26.833936691284173 L -98.72358703613281 26.819749832153313 L -98.73644256591797 26.785667419433587 L -99.86524963378906 23.939838409423825 L -100.63300323486328 21.83200073242187 L -100.64097595214844 21.808038711547848 L -102.04058074951172 17.516975402832028 L -102.04662322998047 17.4971809387207 L -102.90166473388672 14.513473510742184 L -102.91690063476562 14.453992843627926 L -104.07546997070312 9.852458000183104 L -105.01383209228516 5.348132133483886 L -105.01966094970703 5.320075511932372 L -105.025634765625 5.286446571350097 L -105.72296142578125 1.4070322513580322 L -105.75952911376953 1.1568130254745483 L -105.92860412597656 1.1102230246251565e-16 L -106.4520263671875 -3.581352949142455 L -106.45906066894531 -3.630051851272582 L -106.83698272705078 -6.599872112274168 L -106.84086608886719 -6.632346153259276 L -107.32691192626953 -11.293395996093748 L -107.33024597167969 -11.326985359191893 L -107.33274841308594 -11.362108230590819 L -107.79696655273438 -17.1440315246582 L -107.79847717285156 -17.198287963867184 L -107.963134765625 -21.63516235351562 L -107.97833251953125 -23.65968322753906 L -107.9819564819336 -24.142295837402337 L -107.98198699951172 -24.1457233428955 L -107.9806900024414 -24.199493408203118 L -107.85868835449219 -29.709630966186516 L -107.62458801269531 -33.77056503295898 L -107.62252044677734 -33.80358886718749 L -106.97876739501953 -40.33143997192382 L -106.97633361816406 -40.357898712158196 L -106.97563934326172 -40.36317062377929 L -106.97061920166016 -40.40107345581054 L -106.52722930908203 -43.50281906127929 L -105.85370635986328 -47.34156417846679 L -105.84807586669922 -47.37491226196288 L -105.8466796875 -47.38162612915038 L -105.0723876953125 -51.11743927001952 L -105.06352996826172 -51.15862655639647 L -104.1678237915039 -54.82775497436522 L -104.15594482421875 -54.872890472412095 L -103.28900146484375 -58.05300140380858 L -102.61548614501953 -60.311611175537095 L -102.603271484375 -60.350254058837876 L -101.8087387084961 -62.789394378662095 L -100.83159637451172 -65.53600311279295 L -100.52915954589844 -66.38610839843749 L -100.51277160644531 -66.43131256103514 L -98.87907409667969 -70.62020874023436 L -98.8596420288086 -70.66787719726561 L -97.34200286865234 -74.33699798583983 L -91.62000274658203 -83.58000183105467 L -88.5994644165039 -88.27230072021483 L -88.58999633789062 -88.28700256347655 L -88.54647827148438 -88.35306549072264 L -84.21619415283203 -94.95352172851561 L -84.2117691040039 -94.96026611328124 L -84.20046997070312 -94.97634887695311 L -81.802001953125 -98.45800018310544 L -81.79203033447266 -98.47139739990232 L -79.97978973388672 -100.87086486816403 L -79.96065521240234 -100.89501953124997 L -77.74073028564453 -103.65554046630857 L -75.68347930908203 -106.02524566650388 L -75.65773010253906 -106.05488586425778 L -72.65914154052734 -109.31831359863278 L -72.62506866455078 -109.35459136962888 L -69.88041687011719 -112.18852233886716 L -67.99575805664062 -114.04936981201169 L -67.9729995727539 -114.07199859619138 L -67.96895599365234 -114.0758361816406 L -67.9569320678711 -114.08724212646482 L -65.86198425292969 -116.06910705566403 L -65.8450927734375 -116.08408355712888 L -65.53600311279297 -116.35853576660153 L -63.889015197753906 -117.82094573974607 L -63.84920120239258 -117.85385894775388 L -62.22258377075195 -119.19872283935544 L -62.2021369934082 -119.21519470214841 L -61.238975524902344 -119.94425964355466 L -61.225547790527344 -119.95346832275388 L -59.69599914550781 -120.99400329589841 L -59.68626022338867 -120.99987030029294 L -58.05057907104492 -121.95013427734372 L -58.03446578979492 -121.95788574218747 L -56.494998931884766 -122.68099975585935 L -55.02799987792969 -123.20099639892575 L -53.025001525878906 -123.65699768066403 L -50.29399871826172 -123.818000793457 L -49.152000427246094 -123.6257400512695 L -46.83100128173828 -123.23500061035153 L -43.15299987792969 -121.46600341796872 L -40.17599868774414 -118.6679992675781 L -38.382999420166016 -115.63700103759763 L -37.54899978637695 -113.01899719238278 L -37.25600051879883 -110.97200012207028 L -37.215999603271484 -109.40299987792966 L -37.28799819946289 -108.18000030517575 L -37.28947830200195 -108.16882324218747 L -37.53087615966797 -106.60887908935544 L -37.66938400268555 -105.71381378173825 L -37.99424743652344 -104.33201599121091 L -38.09988021850586 -103.8827209472656 L -38.10405349731445 -103.86271667480466 L -38.85395050048828 -100.91273498535153 L -38.86248779296875 -100.87878417968747 L -38.867435455322266 -100.85511779785153 L -39.43687438964844 -98.30400085449216 L -39.5141716003418 -97.95771026611325 L -39.86134338378906 -95.57709503173827 L -39.862998962402344 -95.56400299072264 L -39.86250686645508 -95.5588912963867 L -39.6452751159668 -94.51538085937499 L -39.64400100708008 -94.51200103759764 L -39.369998931884766 -94.11499786376952 L -38.98513412475586 -93.75790405273436 L -38.97587203979492 -93.75126647949217 L -38.49578094482422 -93.43484497070311 L -38.48611068725586 -93.4304733276367 L -36.68973922729492 -92.62205505371092 L -36.6427116394043 -92.60424804687499 L -32.768001556396484 -91.15554046630858 L -28.391887664794922 -89.5193634033203 L -28.36511993408203 -89.50970458984374 L -28.3612060546875 -89.50829315185545 L -28.326908111572266 -89.49703979492186 L -28.3006591796875 -89.48891448974608 L -19.611406326293945 -86.68573760986327 L -19.549592971801758 -86.66603851318358 L -14.009696960449219 -84.92818450927733 L -9.580757141113281 -83.38574218749999 L -9.559000015258789 -83.37799835205077 L -7.098999977111816 -82.27999877929686 L -5.4710001945495605 -81.32499694824217 L -3.002000093460083 -79.3000030517578 L 0 -74.56552124023436 L 0.11699999868869781 -74.38099670410155 L 0.33000001311302185 -66.04699707031249 z" fill="none" stroke="rgb(255,0,0)" stroke-width="0.001mm" />
</svg>