<?xml version="1.0" standalone="no"?>
<!DOCTYPE svg PUBLIC "-//W3C//DTD SVG 1.1//EN"
  "http://www.w3.org/Graphics/SVG/1.1/DTD/svg11.dtd">
<svg width="196.5828094482422mm" height="233.23297882080072mm" viewBox="-98.29881286621094 -116.62300109863278 196.5828094482422 233.23297882080072" xmlns="http://www.w3.org/2000/svg" version="1.1">
	<title>svgOutput</title>
	<desc>made with tinkercad</desc>
<path d="M -7.681000232696533 -71.33599853515624 L -8.625 -69.96099853515624 L -9.54699993133545 -69.41799926757811 L -9.555217742919922 -69.41535186767577 L -11.022003173828125 -69.05482482910155 L -11.038427352905273 -69.05223846435545 L -11.057168960571289 -69.0512237548828 L -14.432257652282715 -68.90108489990233 L -14.456727027893066 -68.90110778808592 L -16.384000778198242 -68.95638275146483 L -16.833215713500977 -68.96926116943358 L -16.93800163269043 -68.97483062744139 L -24.300573348999023 -69.3936309814453 L -27.823822021484375 -69.4795684814453 L -27.882734298706055 -69.48106384277342 L -27.885175704956055 -69.48106384277342 L -30.798524856567383 -69.48106384277342 L -30.846078872680664 -69.48075103759764 L -32.768001556396484 -69.42677307128905 L -36.57789993286133 -69.3197555541992 L -36.622291564941406 -69.31844329833983 L -36.665958404541016 -69.31565856933592 L -40.73048400878906 -69.01242065429686 L -40.771034240722656 -69.00803375244139 L -44.64591598510742 -68.51515197753905 L -44.69683074951172 -68.50738525390624 L -48.73073959350586 -67.78436279296874 L -48.76693344116211 -67.7770538330078 L -51.10786437988281 -67.25355529785155 L -51.13727569580078 -67.24598693847655 L -52.2869987487793 -66.92299652099608 L -53.055458068847656 -66.66915130615233 L -53.724151611328125 -66.40345001220702 L -53.75150680541992 -66.39236450195311 L -54.516998291015625 -66.0189971923828 L -55.172000885009766 -65.60199737548827 L -55.251548767089844 -65.53600311279295 L -55.76499938964844 -65.11000061035155 L -56.35200119018555 -64.48100280761717 L -56.96699905395508 -63.65000152587889 L -57.45399856567383 -62.870998382568345 L -57.792999267578125 -62.257999420166 L -58.14500045776367 -61.569999694824205 L -58.5099983215332 -60.80400085449217 L -58.88800048828125 -59.960998535156236 L -59.27899932861328 -59.03300094604491 L -59.685001373291016 -58.00699996948241 L -59.93124008178711 -57.34400177001952 L -60.111000061035156 -56.86000061035155 L -60.560001373291016 -55.55899810791014 L -61.03900146484375 -54.06299972534178 L -61.551998138427734 -52.32500076293944 L -62.10499954223633 -50.29000091552733 L -62.3885498046875 -49.15200042724608 L -62.70199966430664 -47.89400100708007 L -62.71405792236328 -47.8423843383789 L -63.35411071777344 -45.05401229858398 L -64.0158920288086 -42.318977355957024 L -64.02787780761719 -42.26910400390624 L -64.66200256347656 -39.61999893188476 L -65.53600311279297 -35.69845581054687 L -66.16928100585938 -32.856983184814446 L -66.17650604248047 -32.82611083984374 L -66.18280029296875 -32.79797363281249 L -66.18800354003906 -32.772998809814446 L -66.1888427734375 -32.76800155639648 L -66.73619079589844 -29.532243728637688 L -66.74018859863281 -29.51057052612304 L -66.74299621582031 -29.492000579833977 L -66.94449615478516 -27.11847496032714 L -66.94621276855469 -27.102626800537102 L -66.9469985961914 -27.08900070190429 L -66.91143798828125 -25.249837875366204 L -66.91149139404297 -25.237855911254876 L -66.91100311279297 -25.226999282836907 L -66.642333984375 -22.84952354431152 L -66.6414566040039 -22.839380264282223 L -66.64031219482422 -22.829616546630856 L -66.63899993896484 -22.819999694824215 L -66.6375503540039 -22.810382843017575 L -66.36894226074219 -21.229110717773434 L -66.10516357421875 -19.676301956176754 L -66.10359191894531 -19.666637420654293 L -66.10187530517578 -19.65686225891113 L -66.0999984741211 -19.646999359130856 L -65.53600311279297 -17.236928939819332 L -65.53600311279297 -17.236909866333004 L -65.53392791748047 -17.226993560791012 L -65.53160095214844 -17.21700859069824 L -65.52899932861328 -17.20700073242187 L -65.0282211303711 -15.60489463806152 L -65.02528381347656 -15.594923019409176 L -65.02423858642578 -15.592161178588864 L -65.0136489868164 -15.564270973205563 L -64.39828491210938 -13.987847328186032 L -63.674278259277344 -12.44500637054443 L -63.66110610961914 -12.41756725311279 L -63.266998291015625 -11.657999992370604 L -63.261932373046875 -11.64864158630371 L -61.94528579711914 -9.432165145874022 L -61.933998107910156 -9.413999557495115 L -61.915283203125 -9.388119697570799 L -58.82564926147461 -5.276181697845458 L -58.7999267578125 -5.243407726287841 L -58.786643981933594 -5.2277441024780265 L -57.22800064086914 -3.3550000190734854 L -57.207305908203125 -3.3321611881256095 L -57.20014572143555 -3.32466697692871 L -56.84105682373047 -2.9336385726928706 L -54.957000732421875 -0.8820000290870663 L -54.93458938598633 -0.8597867488861081 L -54.0551643371582 1.1102230246251565e-16 L -52.501800537109375 1.5186773538589473 L -52.477882385253906 1.5405225753784175 L -52.46957778930664 1.5477225780487056 L -50.50299835205078 3.2969999313354483 L -50.485877990722656 3.3112282752990714 L -50.477081298828125 3.318244218826293 L -49.75469207763672 3.901693582534789 L -49.152000427246094 4.38846731185913 L -47.667964935302734 5.5870699882507315 L -47.659000396728516 5.5939998626708975 L -47.649898529052734 5.6008563041687 L -47.6406364440918 5.607627391815185 L -47.631256103515625 5.614299774169921 L -47.2752799987793 5.8747496604919425 L -45.39699935913086 7.249000072479246 L -45.372474670410156 7.2659401893615705 L -44.62099838256836 7.784999847412108 L -44.01589584350586 8.19200038909912 L -43.83599853515625 8.312999725341795 L -43.04199981689453 8.831000328063963 L -42.24100112915039 9.340999603271483 L -41.43299865722656 9.840999603271483 L -40.62099838256836 10.331000328063963 L -39.805999755859375 10.812000274658201 L -38.98899841308594 11.281999588012694 L -38.17300033569336 11.741999626159666 L -37.35900115966797 12.190999984741207 L -36.547000885009766 12.628999710083004 L -35.74100112915039 13.055999755859371 L -34.939998626708984 13.470999717712399 L -33.76558303833008 14.063640594482418 L -33.75583267211914 14.068595886230465 L -33.750999450683594 14.071000099182125 L -33.74616622924805 14.073404312133786 L -32.768001556396484 14.539318084716793 L -31.827987670898438 14.987058639526364 L -31.80900001525879 14.996000289916989 L -30.285999298095703 15.609999656677243 L -29.562000274658203 15.725000381469723 L -28.926000595092773 15.517000198364254 L -28.475000381469727 14.819000244140621 L -28.31800079345703 13.567000389099118 L -28.503000259399414 11.857000350952147 L -28.9689998626709 9.869000434875487 L -30.17799949645996 5.863999843597411 L -30.8521785736084 3.3410396575927725 L -30.85700035095215 3.322999954223632 L -30.865819931030273 3.278352737426757 L -31.354747772216797 1.0312572717666626 L -31.52397918701172 1.1102230246251565e-16 L -31.576000213623047 -0.3170000016689299 L -31.777000427246094 -2.176000118255615 L -31.861000061035156 -3.872999906539916 L -31.850000381469727 -4.9099998474121085 L -31.750999450683594 -6.344999790191649 L -31.5049991607666 -8.08399963378906 L -31.480335235595703 -8.19200038909912 L -31.145999908447266 -9.6560001373291 L -30.535999298095703 -11.442999839782713 L -30.063419342041016 -12.410946846008297 L -30.05900001525879 -12.420000076293942 L -30.046844482421875 -12.438067436218258 L -29.495689392089844 -13.339868545532223 L -29.06800079345703 -13.892999649047848 L -28.32200050354004 -14.645000457763668 L -27.481000900268555 -15.28699970245361 L -26.867000579833984 -15.62800025939941 L -25.89699935913086 -15.99100017547607 L -25.876920700073242 -15.994250297546383 L -24.902027130126953 -16.205625534057614 L -24.576000213623047 -16.221134185791012 L -23.946887969970703 -16.25106048583984 L -23.93535804748535 -16.25055885314941 L -23.01775360107422 -16.184379577636715 L -23.003341674804688 -16.181877136230465 L -22.145000457763672 -16.010999679565426 L -21.06798553466797 -15.67991733551025 L -21.065000534057617 -15.678999900817868 L -21.047067642211914 -15.670904159545895 L -19.946731567382812 -15.196792602539059 L -18.71206283569336 -14.526120185852047 L -18.695812225341797 -14.516724586486813 L -17.77820587158203 -13.911244392395016 L -17.772626876831055 -13.907174110412594 L -17.759170532226562 -13.897358894348141 L -17.747541427612305 -13.887448310852047 L -16.384000778198242 -12.815201759338375 L -16.022958755493164 -12.531289100646969 L -14.592448234558105 -11.190708160400389 L -14.498884201049805 -11.103025436401365 L -14.466968536376953 -11.07190704345703 L -10.07747745513916 -6.6873550415039045 L -10.03934383392334 -6.649318695068358 L -9.979904174804688 -6.592823028564451 L -5.568726062774658 -2.3959496021270748 L -5.246997356414795 -2.089851379394531 L -5.242730140686035 -2.0857915878295894 L -5.200854778289795 -2.047228097915649 L -2.9846043586730957 1.1102230246251565e-16 L -2.4292726516723633 0.5129792094230652 L -1.184727430343628 1.6370208263397212 L -1.1663042306900024 1.6534813642501827 L -0.3050000071525574 2.41700005531311 L 0 2.683409452438354 L 0.5960000157356262 3.203999996185302 L 1.531999945640564 4.007999897003173 L 2.509000062942505 4.831999778747558 L 3.5329999923706055 5.677999973297118 L 4.610000133514404 6.5510001182556135 L 5.748000144958496 7.453000068664549 L 6.954999923706055 8.38300037384033 L 8.244999885559082 9.3459997177124 L 9.277000427246094 10.088999748229979 L 10.005999565124512 10.597999572753904 L 10.747184753417969 11.100531578063963 L 10.770000457763672 11.116000175476072 L 10.779886245727539 11.122500419616697 L 12.020480155944824 11.92157745361328 L 12.037260055541992 11.931954383850096 L 13.901114463806152 13.094517707824703 L 13.919157028198242 13.105924606323239 L 13.932882308959961 13.115553855895993 L 15.534000396728516 14.206999778747555 L 15.85351848602295 14.46291637420654 L 16.384000778198242 14.887802124023434 L 16.80500030517578 15.225000381469723 L 18.09965705871582 16.38400077819824 L 18.226999282836914 16.497999191284176 L 19.746999740600586 17.94799995422363 L 21.305999755859375 19.47200012207031 L 22.639999389648438 20.604999542236325 L 23.795000076293945 21.42000007629394 L 24.792999267578125 21.95299911499023 L 25.670000076293945 22.264999389648434 L 25.67971420288086 22.2669506072998 L 27.114025115966797 22.475593566894528 L 27.193910598754883 22.487215042114254 L 27.202999114990234 22.488000869750973 L 28.242095947265625 22.481086730957028 L 28.250890731811523 22.481355667114254 L 28.25520896911621 22.48099899291992 L 28.278623580932617 22.47906112670898 L 32.768001556396484 22.138120651245114 L 32.9348030090332 22.125453948974606 L 33.01942443847656 22.12036323547363 L 38.10921859741211 21.889232635498043 L 38.1412467956543 21.888792037963864 L 41.259521484375 21.9095344543457 L 41.30317687988281 21.91143417358398 L 43.42483139038086 22.0396614074707 L 43.427791595458984 22.039840698242184 L 43.45484924316406 22.042955398559567 L 44.90385818481445 22.20198059082031 L 46.941551208496094 22.531885147094723 L 46.962318420410156 22.535404205322262 L 46.988224029541016 22.541292190551754 L 50.992496490478516 23.52309989929199 L 51.0321044921875 23.534801483154293 L 54.14445495605469 24.563032150268548 L 56.28684997558594 25.368036270141594 L 56.35568618774414 25.393684387207024 L 56.36363983154297 25.39688873291015 L 58.627506256103516 26.309352874755852 L 58.68377685546875 26.332031249999993 L 58.76715850830078 26.369564056396477 L 61.27106475830078 27.449157714843743 L 65.53600311279297 29.486349105834954 L 65.84723663330078 29.63501358032226 L 65.90550994873047 29.66642761230468 L 69.6510009765625 31.71400070190429 L 69.69149780273438 31.738887786865227 L 71.3941421508789 32.76800155639648 L 71.88130950927734 33.06245040893554 L 74.7230224609375 34.88284683227538 L 74.82066345214844 34.94942474365234 L 77.5715103149414 36.80043792724609 L 78.64317321777344 37.55569839477538 L 80.25122833251953 38.68898391723632 L 83.13541412353516 40.85607528686523 L 83.16199493408203 40.87611770629882 L 83.19232940673828 40.900711059570305 L 85.71598815917969 42.94433212280273 L 85.74664306640625 42.97163772583007 L 85.75538635253906 42.97942352294921 L 89.53050994873047 46.404888153076165 L 89.545654296875 46.41949462890624 L 91.75126647949219 48.65967559814452 L 91.78006744384766 48.6895179748535 L 92.1690673828125 49.15200042724608 L 94.46871185302734 51.88604354858397 L 94.69783020019531 52.15844345092772 L 94.71131134033203 52.17385864257811 L 94.72396087646484 52.18989181518553 L 95.40845489501953 53.23096466064452 L 95.41727447509766 53.243583679199205 L 95.42522430419922 53.257053375244126 L 95.8983383178711 54.09306335449217 L 96.0484848022461 54.35837554931639 L 96.40999603271484 55.139675140380845 L 96.41699981689453 55.15399932861327 L 96.85700225830078 56.41500091552733 L 97.16500091552734 57.73799896240233 L 97.27300262451172 58.651000976562486 L 97.28399658203125 60.04600143432616 L 97.1500015258789 61.44800186157225 L 96.97000122070312 62.38199996948241 L 96.58000183105469 63.77099990844725 L 96.08200073242188 65.14600372314452 L 96.07450866699219 65.16259765624999 L 95.89728546142578 65.53600311279295 L 95.02256774902344 67.37907409667967 L 95.01522064208984 67.39286804199217 L 95.01100158691406 67.40080261230467 L 95.00132751464844 67.41678619384764 L 94.99077606201172 67.43241119384764 L 92.87899780273438 70.84799957275389 L 91.6500015258789 72.50700378417967 L 88.93399810791016 75.68399810791014 L 86.19214630126953 78.43128967285155 L 85.90799713134766 78.71600341796874 L 83.67176818847656 80.73196411132811 L 83.65178680419922 80.75020599365233 L 83.61991882324219 80.7772750854492 L 81.68988800048828 82.41197204589842 L 79.19388580322266 84.38744354248045 L 79.16015625 84.41422271728514 L 79.15841674804688 84.41551208496092 L 77.0256576538086 86.00546264648436 L 76.9789810180664 86.03895568847655 L 72.98754119873047 88.75028991699217 L 72.95465850830078 88.77205657958983 L 68.79728698730469 91.26509857177733 L 68.74707794189453 91.29463958740233 L 65.8451156616211 92.85130310058592 L 65.79762268066406 92.87632751464842 L 65.53600311279297 93.00625610351561 L 63.908748626708984 93.8143844604492 L 63.16630172729492 94.18309783935545 L 60.30384826660156 95.5046920776367 L 60.25199890136719 95.52899932861327 L 56.31838607788086 97.17388153076169 L 56.17265701293945 97.23481750488278 L 56.12514114379883 97.25472259521482 L 56.12444305419922 97.25498199462888 L 52.12580490112305 98.71262359619138 L 52.073001861572266 98.73200225830075 L 49.334999084472656 99.579475402832 L 49.28239440917969 99.59507751464841 L 49.24812316894531 99.60312652587888 L 44.48625564575195 100.76470184326169 L 44.461158752441406 100.76942443847653 L 43.8203010559082 100.87751770019528 L 41.42190170288086 101.28205871582028 L 41.371402740478516 101.28868103027341 L 38.82485580444336 101.56190490722653 L 37.80864715576172 101.67093658447263 L 37.783355712890625 101.6728591918945 L 32.768001556396484 101.81032562255857 L 32.197715759277344 101.8259582519531 L 32.1724739074707 101.82696533203122 L 32.12215805053711 101.8263244628906 L 29.08882713317871 101.68310546874997 L 29.063695907592773 101.68137359619138 L 28.04830551147461 101.57963562011716 L 28.003398895263672 101.57672882080075 L 24.895000457763672 101.39399719238278 L 23.777000427246094 101.47899627685544 L 22.573999404907227 101.73699951171872 L 21.23699951171875 102.24199676513669 L 19.714000701904297 103.05599975585935 L 17.96500015258789 104.20600128173825 L 15.901622772216797 105.74983215332028 L 15.848732948303223 105.78845214843747 L 13.652999877929688 107.35500335693357 L 11.189000129699707 108.81400299072263 L 8.505999565124512 109.96299743652341 L 5.803999900817871 110.84200286865232 L 2.1306161880493164 111.87023162841794 L 2.0591928958892822 111.88957214355466 L 0 112.37010192871091 L -4.734557151794434 113.47493743896482 L -5.136451244354248 113.56872558593747 L -5.1853790283203125 113.57993316650388 L -7.2843146324157715 113.9730529785156 L -7.324999809265137 113.98100280761716 L -9.453567504882812 114.31584167480466 L -9.50422477722168 114.32331085205075 L -11.61912727355957 114.582160949707 L -13.813709259033203 114.85076141357419 L -19.80530548095703 115.34561920166013 L -19.901052474975586 115.35454559326169 L -19.948631286621094 115.3572082519531 L -24.99298858642578 115.59031677246091 L -28.597232818603516 115.60907745361325 L -28.66886329650879 115.60997772216794 L -28.68305206298828 115.6095275878906 L -32.07456970214844 115.50231170654294 L -32.12379455566406 115.50041198730466 L -32.768001556396484 115.44650268554685 L -36.136959075927734 115.1645812988281 L -36.17182922363281 115.16161346435544 L -36.19871520996094 115.15812683105466 L -39.35651397705078 114.68800354003903 L -39.502685546875 114.66623687744138 L -39.53931427001953 114.6589431762695 L -41.505889892578125 114.19766998291013 L -41.52420425415039 114.1923904418945 L -42.65650177001953 113.84860992431638 L -42.99790573120117 113.74494934082028 L -43.97279739379883 113.37850189208982 L -43.99100112915039 113.37200164794919 L -44.95404052734375 112.93936920166013 L -44.97773742675781 112.92761230468747 L -45.92300033569336 112.41300201416013 L -46.85300064086914 111.78199768066403 L -47.52399826049805 111.21700286865232 L -47.948001861572266 110.77899932861325 L -48.520999908447266 110.01899719238278 L -49.000999450683594 109.15399932861325 L -49.152000427246094 108.65500640869138 L -49.39500045776367 107.85199737548825 L -49.47303009033203 107.1793518066406 L -49.4740104675293 107.16263580322263 L -49.4714469909668 107.14643096923825 L -49.26599884033203 105.1679992675781 L -49.152000427246094 104.82453155517575 L -48.95881652832031 104.24249267578122 L -48.95647048950195 104.23474121093747 L -48.95536804199219 104.23210906982419 L -48.951812744140625 104.22362518310544 L -48.555728912353516 103.33763122558591 L -48.54795455932617 103.32347869873044 L -47.78739929199219 102.0641174316406 L -46.89547348022461 100.85117340087888 L -46.86957931518555 100.81794738769528 L -44.94350051879883 98.71407318115232 L -44.92398452758789 98.69437408447263 L -44.484161376953125 98.30400085449216 L -43.24582290649414 97.20487213134763 L -43.24420166015625 97.20347595214841 L -43.230037689208984 97.19130706787107 L -43.199764251708984 97.16925048828122 L -41.527530670166016 95.88124847412108 L -38.5959358215332 93.9522018432617 L -38.55590057373047 93.92697143554686 L -35.56306457519531 92.19251251220702 L -35.49380111694336 92.15446472167967 L -32.768001556396484 90.6796417236328 L -31.69300079345703 90.09799957275389 L -30.38599967956543 88.23799896240233 L -29.493999481201172 86.56600189208983 L -29.232999801635742 85.21299743652342 L -29.56100082397461 84.20300292968749 L -30.288000106811523 83.45400238037108 L -31.21500015258789 82.8470001220703 L -31.268882751464844 82.81854248046874 L -32.768001556396484 82.02787017822264 L -34.83460235595703 80.93789672851561 L -34.992557525634766 80.85202026367186 L -38.55540084838867 78.91501617431639 L -38.59365463256836 78.89418792724608 L -38.634132385253906 78.87077331542967 L -43.006832122802734 76.32834625244139 L -43.05451965332031 76.29855346679686 L -45.915000915527344 74.49099731445311 L -49.706912994384766 71.84584808349608 L -49.75419616699219 71.8130645751953 L -49.758094787597656 71.81014251708983 L -49.783203125 71.79135131835936 L -53.16718292236328 69.2410202026367 L -56.19162368774414 66.76872253417967 L -56.24939727783203 66.7217559814453 L -56.254825592041016 66.71706390380858 L -57.619873046875 65.53600311279295 L -58.609092712402344 64.6801071166992 L -58.68085861206055 64.61409759521483 L -63.24053955078125 60.294452667236314 L -63.259010314941406 60.27695465087889 L -63.32218933105469 60.209186553955064 L -65.53076171875 57.90282821655272 L -65.53600311279297 57.89699554443358 L -67.67414855957031 55.51547241210936 L -67.7068862915039 55.476074218749986 L -70.6039047241211 51.998264312744126 L -70.71134185791016 51.86037445068358 L -72.54085540771484 49.51213455200194 L -72.57376098632812 49.469684600830064 L -76.03182220458984 44.693000793457024 L -77.16178894042969 43.034595489501946 L -77.21785736083984 42.95469665527343 L -77.24357604980469 42.9146385192871 L -77.24444580078125 42.91328811645507 L -80.5850830078125 37.71026611328124 L -82.96947479248047 33.70500183105468 L -83.01470947265625 33.62906646728515 L -83.01509857177734 33.62836074829101 L -83.49128723144531 32.76800155639648 L -84.9111557006836 30.202615737915032 L -84.93363952636719 30.161268234252923 L -84.9551773071289 30.117858886718743 L -87.65367126464844 24.649761199951165 L -87.67272186279297 24.60672187805175 L -88.57984161376953 22.518436431884762 L -88.84318542480469 21.912181854248043 L -89.92969512939453 19.155416488647457 L -89.9439468383789 19.119907379150387 L -89.9564208984375 19.08481407165527 L -90.88335418701172 16.470212936401364 L -90.95896911621094 16.256931304931637 L -91.80743408203125 13.607828140258786 L -91.81900024414062 13.571999549865719 L -92.65956115722656 10.636453628540037 L -92.67399597167969 10.584741592407225 L -93.56098175048828 7.024947166442869 L -93.57880401611328 6.946225643157957 L -94.49344635009766 2.698968410491943 L -94.5004653930664 2.6605274677276607 L -94.97296905517578 1.1102230246251565e-16 L -95.19583129882812 -1.254851102828979 L -95.21214294433594 -1.3712283372879024 L -95.75934600830078 -4.993249893188476 L -96.1926040649414 -8.365704536437987 L -96.22555541992188 -8.622185707092283 L -96.91993713378906 -15.478049278259274 L -96.92791748046875 -15.562277793884274 L -96.97858428955078 -16.38400077819824 L -97.18177032470703 -19.67915534973144 L -97.18437957763672 -19.7258129119873 L -97.18522644042969 -19.75414657592773 L -97.29881286621094 -23.937202453613278 L -97.29814147949219 -24.015960693359368 L -97.10256958007812 -31.83288955688476 L -97.09950256347656 -31.89004707336425 L -97.02386474609375 -32.76800155639648 L -96.50389862060547 -38.8031997680664 L -96.49939727783203 -38.85368347167968 L -96.494873046875 -38.89082717895507 L -95.40345764160156 -45.95854187011718 L -95.37577056884766 -46.137832641601555 L -95.36499786376953 -46.20299911499023 L -94.71637725830078 -49.26865386962889 L -94.6429672241211 -49.61562347412108 L -94.63603973388672 -49.64894866943358 L -93.75596618652344 -53.27294540405272 L -93.74299621582031 -53.326999664306626 L -93.21600341796875 -55.26699829101561 L -92.28752899169922 -58.344779968261705 L -92.27440643310547 -58.38773345947264 L -91.13455963134766 -61.792453765869126 L -91.11431121826172 -61.85114669799803 L -90.42405700683594 -63.73496246337889 L -90.16608428955078 -64.43901062011717 L -89.731201171875 -65.53600311279295 L -88.54027557373047 -68.54008483886717 L -88.51599884033203 -68.60199737548827 L -86.24099731445312 -71.97399902343749 L -82.9229965209961 -76.71499633789061 L -74.48774719238281 -88.37421417236327 L -74.38909912109375 -88.51031494140624 L -74.35709381103516 -88.55848693847655 L -72.62954711914062 -91.1740036010742 L -72.60527038574219 -91.21067810058592 L -72.60226440429688 -91.21530914306639 L -70.61103820800781 -94.28055572509764 L -70.28253936767578 -94.72739410400389 L -69.2894515991211 -96.07823181152341 L -69.27104187011719 -96.10260772705075 L -69.24446105957031 -96.13436126708982 L -65.7646713256836 -100.29074859619138 L -65.70514678955078 -100.35566711425778 L -65.53600311279297 -100.53583526611325 L -60.718074798583984 -105.66770172119138 L -60.685020446777344 -105.70089721679685 L -57.61415481567383 -108.71842193603513 L -57.555572509765625 -108.77289581298825 L -53.854331970214844 -112.12483215332028 L -53.850582122802734 -112.12822723388669 L -53.81470489501953 -112.15670013427732 L -52.03974533081055 -113.58397674560544 L -50.06724166870117 -114.88877105712888 L -50.05201721191406 -114.89841461181638 L -50.04203414916992 -114.90330505371091 L -49.31999969482422 -115.24999999999997 L -49.152000427246094 -115.30940246582028 L -48.6609992980957 -115.48300170898435 L -48.10300064086914 -115.59600067138669 L -47.40700149536133 -115.62300109863278 L -46.57600021362305 -115.46800231933591 L -45.71900177001953 -115.03900146484372 L -45.029998779296875 -114.37200164794919 L -44.68960952758789 -113.7783279418945 L -44.608001708984375 -113.63600158691403 L -44.40299987792969 -112.9649963378906 L -44.402042388916016 -112.95799255371091 L -44.37626266479492 -112.64656829833982 L -44.37254333496094 -112.60163879394528 L -44.31512451171875 -111.90803527832028 L -44.31548309326172 -111.89810943603513 L -44.31562423706055 -111.89411163330075 L -44.31715774536133 -111.88454437255857 L -44.49100112915039 -110.47899627685544 L -44.512882232666016 -110.39218139648435 L -46.22758865356445 -103.58768463134763 L -46.234554290771484 -103.55382537841794 L -46.94572448730469 -100.07404327392575 L -46.950016021728516 -100.04796600341794 L -47.197715759277344 -98.30400085449216 L -47.3865966796875 -96.97413635253903 L -47.39036178588867 -96.93147277832028 L -47.46839141845703 -95.96646118164061 L -47.5 -95.03700256347655 L -47.4772834777832 -94.16285705566405 L -47.475982666015625 -94.14195251464842 L -47.39400100708008 -93.33300018310545 L -47.24800109863281 -92.58300018310545 L -47.03799819946289 -91.8939971923828 L -47.0324821472168 -91.88249206542967 L -46.759864807128906 -91.25231933593749 L -46.5880012512207 -90.95600128173827 L -46.416133880615234 -90.65968322753905 L -46.00846862792969 -90.11199951171874 L -45.993385314941406 -90.09173583984374 L -45.986000061035156 -90.08100128173827 L -45.470001220703125 -89.52700042724608 L -44.858001708984375 -88.99099731445311 L -44.14400100708008 -88.4710006713867 L -43.32099914550781 -87.96499633789061 L -42.3849983215332 -87.46800231933592 L -42.37211990356445 -87.46191406249999 L -41.60860061645508 -87.09546661376952 L -41.334999084472656 -86.9720001220703 L -41.085838317871094 -86.85956573486327 L -41.061397552490234 -86.84853363037108 L -40.48653793334961 -86.59962463378905 L -40.47228240966797 -86.59344482421874 L -39.56258010864258 -86.21316528320311 L -39.5511360168457 -86.20840454101561 L -39.54315185546875 -86.20516967773436 L -38.088218688964844 -85.61450195312499 L -38.07363510131836 -85.60865020751952 L -38.00493621826172 -85.58133697509764 L -37.999202728271484 -85.57904815673827 L -33.24701690673828 -83.68389892578124 L -32.787574768066406 -83.50687408447264 L -32.768001556396484 -83.49932861328124 L -28.669044494628906 -81.9199981689453 L -28.260936737060547 -81.76275634765624 L -28.216938018798828 -81.74594879150389 L -28.215251922607422 -81.74536132812499 L -28.175823211669922 -81.73152923583983 L -28.093299865722656 -81.70446777343749 L -17.568004608154297 -78.17529296874999 L -17.492568969726562 -78.14947509765624 L -17.3546085357666 -78.10374450683592 L -16.384000778198242 -77.78199005126952 L -16.24110984802246 -77.73462677001952 L -12.483769416809082 -76.44069671630858 L -12.39034652709961 -76.40310668945311 L -10.232722282409668 -75.53494262695311 L -10.211000442504883 -75.52600097656249 L -9.026000022888184 -74.86100006103514 L -8.399999618530273 -74.32199859619139 L -7.701000213623047 -73.17900085449217 L -7.681000232696533 -71.33599853515624 z" fill="none" stroke="rgb(255,0,0)" stroke-width="0.001mm" />
</svg>