<?xml version="1.0" standalone="no"?>
<!DOCTYPE svg PUBLIC "-//W3C//DTD SVG 1.1//EN"
  "http://www.w3.org/Graphics/SVG/1.1/DTD/svg11.dtd">
<svg width="190.90611267089844mm" height="222.37583160400385mm" viewBox="-95.44611358642578 -111.18800354003903 190.90611267089844 222.37583160400385" xmlns="http://www.w3.org/2000/svg" version="1.1">
	<title>svgOutput</title>
	<desc>made with tinkercad</desc>
<path d="M -13.636852264404297 -70.17521667480467 L -13.885320663452148 -70.04350280761717 L -13.885771751403809 -70.04309082031249 L -13.887995719909668 -70.04257965087889 L -15.24908447265625 -69.80309295654295 L -16.384000778198242 -69.74649810791014 L -16.78978729248047 -69.72625732421874 L -16.79525375366211 -69.72599029541014 L -16.803075790405273 -69.72617340087889 L -24.026620864868164 -69.93872070312499 L -24.042360305786133 -69.93929290771483 L -28.737316131591797 -70.07899475097655 L -28.74662208557129 -70.07896423339842 L -32.768001556396484 -70.04547882080077 L -33.89959716796875 -70.03605651855467 L -33.908958435058594 -70.03575897216795 L -38.26564025878906 -69.87310791015624 L -38.27494430541992 -69.87250518798827 L -41.98250961303711 -69.60093688964842 L -42.11672592163086 -69.59111022949217 L -45.497493743896484 -69.21092224121092 L -45.5068244934082 -69.20988464355467 L -48.03142166137695 -68.82370758056639 L -48.04119110107422 -68.82204437255858 L -49.152000427246094 -68.61497497558592 L -50.72955322265625 -68.32089996337889 L -51.140560150146484 -68.24428558349608 L -53.36180877685547 -67.75632476806639 L -53.36800003051758 -67.75499725341795 L -53.372318267822266 -67.75384521484374 L -56.0306282043457 -67.02540588378905 L -56.03681945800781 -67.02308654785155 L -57.21430206298828 -66.60498046874999 L -57.455055236816406 -66.49099731445311 L -58.79092788696289 -65.8585739135742 L -58.793025970458984 -65.8573760986328 L -59.25457000732422 -65.53600311279295 L -60.06131362915039 -64.97426605224608 L -60.064151763916016 -64.97199249267577 L -61.012123107910156 -64.07191467285155 L -61.014686584472656 -64.06888580322264 L -62.1851806640625 -62.5152130126953 L -62.186805725097656 -62.51267242431639 L -63.21959686279297 -60.65464782714842 L -63.222007751464844 -60.64990615844725 L -64.37254333496094 -58.080402374267564 L -64.37420654296875 -58.07651519775389 L -64.37596893310547 -58.071838378906236 L -65.2979965209961 -55.6590003967285 L -65.2999267578125 -55.653110504150376 L -65.37012481689453 -55.43479919433592 L -65.53600311279297 -54.918979644775376 L -66.43649291992188 -52.118671417236314 L -66.43864440917969 -52.11089706420897 L -67.22395324707031 -49.15200042724608 L -67.47442626953125 -48.208244323730455 L -67.4762191772461 -48.20075225830077 L -68.0469970703125 -45.74700164794921 L -68.0523910522461 -45.71944046020507 L -68.6640853881836 -42.84159851074218 L -69.02313232421875 -40.95999908447265 L -70.572998046875 -32.838001251220696 L -71.25700378417969 -34.77700042724609 L -72.30176544189453 -38.62377166748046 L -72.3041000366211 -38.6324119567871 L -72.3042984008789 -38.63314819335937 L -72.30650329589844 -38.64255142211913 L -72.85691833496094 -40.95999908447265 L -73.47799682617188 -43.575000762939446 L -74.25800323486328 -47.52799987792968 L -74.4952392578125 -49.15200042724608 L -75.17404174804688 -53.798583984374986 L -75.17579650878906 -53.810295104980455 L -75.51806640625 -56.96354675292967 L -75.51900482177734 -56.97200775146483 L -75.51909637451172 -56.97307968139647 L -75.55060577392578 -57.34400177001952 L -75.78543853759766 -60.10829925537108 L -75.78629302978516 -60.11951065063475 L -76.05172729492188 -65.38424682617186 L -76.05199432373047 -65.39035034179686 L -76.05209350585938 -65.40084075927733 L -76.05249786376953 -65.53600311279295 L -76.07005310058594 -71.40499114990233 L -76.06974029541016 -71.4143600463867 L -75.98348236083984 -73.72799682617186 L -75.9639663696289 -74.25128936767577 L -75.7140884399414 -77.78928375244139 L -75.71250915527344 -77.81167602539061 L -75.71184539794922 -77.82050323486327 L -75.36957550048828 -80.57960510253905 L -75.36921691894531 -80.58255767822264 L -75.36820983886719 -80.58814239501952 L -75.13571166992188 -81.89434814453124 L -75.12936401367188 -81.9198760986328 L -75.12933349609375 -81.9199981689453 L -74.6806869506836 -83.72543334960936 L -74.6792221069336 -83.73046874999999 L -74.04158020019531 -85.57253265380858 L -74.03982543945312 -85.57658386230467 L -73.49099731445312 -86.78500366210936 L -73.05899810791016 -87.57900238037108 L -73.05703735351562 -87.58216094970702 L -71.66900634765625 -89.74951934814452 L -71.4061279296875 -90.11199951171874 L -70.83678436279297 -90.89706420898436 L -70.83162689208984 -90.90407562255858 L -68.24515533447266 -94.16609954833983 L -68.24113464355469 -94.17104339599608 L -68.23638153076172 -94.17652893066405 L -65.53600311279297 -97.24710845947263 L -64.60652923583984 -98.30400085449216 L -63.68711471557617 -99.34946441650388 L -63.681888580322266 -99.35520172119138 L -61.401763916015625 -101.76204681396482 L -61.396217346191406 -101.76779937744138 L -58.89656448364258 -104.26145935058591 L -58.89046859741211 -104.26744842529294 L -57.34400177001953 -105.69053649902341 L -56.46870803833008 -106.4960021972656 L -54.888031005859375 -107.950569152832 L -54.882747650146484 -107.95536804199216 L -54.87931823730469 -107.95812988281247 L -53.61901092529297 -108.96298217773435 L -53.24800109863281 -109.21551513671872 L -52.55030059814453 -109.69042205810544 L -52.54798889160156 -109.69201660156247 L -52.547828674316406 -109.69210815429685 L -52.5469970703125 -109.69255828857419 L -51.820552825927734 -110.06576538085935 L -51.81895446777344 -110.06626129150388 L -51.33000183105469 -110.18800354003903 L -51.064998626708984 -110.13899993896482 L -50.91731643676758 -110.02623748779294 L -50.91679382324219 -110.02559661865232 L -50.81999969482422 -109.83599853515622 L -50.75813293457031 -109.4857482910156 L -50.75802230834961 -109.484016418457 L -50.7939453125 -108.82143402099607 L -50.915687561035156 -108.08600616455075 L -50.91610336303711 -108.08349609374997 L -51.30168151855469 -106.4960021972656 L -52.065643310546875 -103.3506164550781 L -52.06743621826172 -103.34336090087888 L -52.06777572631836 -103.34184265136716 L -52.06938934326172 -103.334602355957 L -52.62519836425781 -100.80401611328122 L -52.62689971923828 -100.79277801513669 L -53.047000885009766 -98.48970794677732 L -53.07404327392578 -98.30400085449216 L -53.41621017456055 -95.95413208007811 L -53.64472198486328 -92.9076461791992 L -53.64496612548828 -92.90416717529295 L -53.64490509033203 -92.8998336791992 L -53.60997772216797 -91.41800689697264 L -53.490234375 -90.36525726318358 L -53.48951721191406 -90.36082458496092 L -53.43770980834961 -90.11199951171874 L -53.40668869018555 -89.96301269531249 L -53.276973724365234 -89.34001159667967 L -52.542545318603516 -87.4261016845703 L -52.541481018066406 -87.42298126220702 L -52.53987121582031 -87.42011260986327 L -51.93217086791992 -86.43621826171874 L -51.9300537109375 -86.43363189697264 L -51.20460891723633 -85.51559448242186 L -51.20337677001953 -85.51440429687499 L -51.20201873779297 -85.51329803466795 L -51.116493225097656 -85.43699645996092 L -49.694244384765625 -84.16817474365233 L -49.69123077392578 -84.16615295410155 L -49.152000427246094 -83.81195068359374 L -48.26627731323242 -83.2301559448242 L -48.26286697387695 -83.22835540771483 L -46.6543083190918 -82.39514160156249 L -46.64900588989258 -82.39286804199217 L -45.537349700927734 -81.9199981689453 L -44.155338287353516 -81.33213806152342 L -44.13899612426758 -81.32587432861327 L -36.936405181884766 -78.56678009033202 L -36.9078369140625 -78.55621337890624 L -32.98585891723633 -77.10590362548827 L -32.976463317871094 -77.10245513916014 L -32.96856689453125 -77.09981536865233 L -32.768001556396484 -77.03287506103514 L -27.487009048461914 -75.27030181884764 L -27.48529624938965 -75.26973724365233 L -27.473899841308594 -75.2661895751953 L -17.2377986907959 -72.05306243896483 L -17.225147247314453 -72.04904937744139 L -16.384000778198242 -71.7422637939453 L -14.798338890075684 -71.16394042968749 L -14.792250633239746 -71.16166687011717 L -13.79438591003418 -70.6427764892578 L -13.79322624206543 -70.64215087890624 L -13.792526245117188 -70.64146423339842 L -13.571000099182129 -70.38999938964842 L -13.56947135925293 -70.33240509033202 L -13.567999839782715 -70.27700042724608 L -13.636852264404297 -70.17521667480467 M -82.41400146484375 -74.46499633789061 L -81.91999816894531 -75.10897064208983 L -80.63200378417969 -76.78800201416014 L -81.0460205078125 -75.37934112548827 L -81.05394744873047 -75.35056304931639 L -81.37774658203125 -73.72799682617186 L -81.41277313232422 -73.55252075195311 L -81.41840362548828 -73.51660919189452 L -81.4200668334961 -73.49741363525389 L -81.7020034790039 -70.8939971923828 L -81.7034912109375 -70.85903167724608 L -81.74903869628906 -69.70445251464842 L -81.81291198730469 -68.08508300781249 L -81.80035400390625 -65.53600311279295 L -81.79812622070312 -65.0844039916992 L -81.79751586914062 -65.01939392089842 L -81.79750061035156 -65.01824951171874 L -81.79624938964844 -64.98803710937499 L -81.63458251953125 -60.974975585937486 L -81.63349914550781 -60.95898056030272 L -81.63155364990234 -60.93016052246092 L -81.62739562988281 -60.88525772094725 L -81.33413696289062 -57.34400177001952 L -81.16999816894531 -55.361999511718736 L -81.16547393798828 -55.32390213012694 L -80.78807830810547 -52.23280334472655 L -80.78792572021484 -52.23154830932616 L -80.77906036376953 -52.17292404174803 L -80.32398986816406 -49.15200042724608 L -80.20928192138672 -48.39053344726561 L -79.42362976074219 -44.0580825805664 L -79.40831756591797 -43.97472763061523 L -78.8631820678711 -41.35652542114257 L -78.84603118896484 -41.28334426879882 L -78.76890563964844 -40.95999908447265 L -78.04559326171875 -37.92779159545898 L -77.68169403076172 -36.55072402954101 L -77.6709976196289 -36.51025772094726 L -77.64948272705078 -36.43595123291015 L -77.2660140991211 -35.06967544555663 L -76.87762451171875 -33.75268936157226 L -76.57382202148438 -32.76800155639648 L -76.48529052734375 -32.48104858398437 L -76.3372573852539 -32.01537704467773 L -76.09295654296875 -31.246868133544915 L -75.69864654541016 -30.04324531555175 L -75.40093994140625 -29.15704154968261 L -75.10028076171875 -28.28069305419921 L -75.07807159423828 -28.213617324829094 L -74.66996002197266 -27.05435371398925 L -74.6218490600586 -26.922502517700188 L -74.24805450439453 -25.8980484008789 L -73.80642700195312 -24.734842300415032 L -73.78766632080078 -24.684516906738274 L -73.31844329833984 -23.506525039672848 L -72.81668853759766 -22.305860519409176 L -72.2764892578125 -21.07759284973144 L -72.25387573242188 -21.024963378906246 L -72.24336242675781 -21.002283096313473 L -71.76740264892578 -19.974905014038082 L -71.6693115234375 -19.76317977905273 L -71.03644561767578 -18.46393775939941 L -70.349365234375 -17.12329292297363 L -70.32341003417969 -17.071090698242184 L -69.95621490478516 -16.38400077819824 L -69.7723617553711 -16.039976119995114 L -69.38693237304688 -15.339096069335934 L -69.3759994506836 -15.319000244140621 L -69.3711166381836 -15.310333251953121 L -68.97000122070312 -14.598999977111813 L -68.55000305175781 -13.869000434875485 L -68.11599731445312 -13.131999969482418 L -67.66899871826172 -12.38799953460693 L -67.20999908447266 -11.638999938964842 L -66.73799896240234 -10.885999679565428 L -66.25599670410156 -10.13099956512451 L -65.76399993896484 -9.376000404357908 L -65.53600311279297 -9.03263187408447 L -65.26399993896484 -8.623000144958494 L -64.75599670410156 -7.874000072479246 L -64.24199676513672 -7.131000041961668 L -63.72100067138672 -6.394999980926512 L -63.19499969482422 -5.66699981689453 L -62.66400146484375 -4.947999954223632 L -62.12699890136719 -4.238999843597411 L -61.584999084472656 -3.5390000343322745 L -61.0369987487793 -2.848999977111816 L -60.483001708984375 -2.168999910354614 L -59.922000885009766 -1.498000025749206 L -59.35300064086914 -0.8349999785423275 L -58.775001525878906 -0.18000000715255723 L -58.61191940307617 1.1102230246251565e-16 L -58.1870002746582 0.4690000116825104 L -57.5890007019043 1.1130000352859497 L -56.97800064086914 1.751000046730041 L -56.35499954223633 2.3849999904632564 L -55.71900177001953 3.016000032424926 L -55.06999969482422 3.641999959945678 L -54.40599822998047 4.265999794006347 L -53.729000091552734 4.885000228881835 L -53.0369987487793 5.500999927520751 L -52.33000183105469 6.112999916076658 L -51.61000061035156 6.721000194549559 L -50.875 7.322999954223631 L -50.12699890136719 7.919000148773192 L -49.36600112915039 8.508999824523924 L -49.152000427246094 8.669915199279783 L -48.59199905395508 9.090999603271483 L -47.805999755859375 9.666000366210936 L -47.00899887084961 10.232000350952147 L -46.20199966430664 10.789999961853026 L -45.38600158691406 11.338000297546385 L -44.5629997253418 11.876000404357908 L -43.733001708984375 12.404000282287594 L -42.89699935913086 12.920999526977536 L -42.05799865722656 13.427000045776364 L -41.21699905395508 13.923000335693356 L -40.959999084472656 14.07108116149902 L -40.37699890136719 14.406999588012692 L -39.5369987487793 14.880000114440914 L -38.70000076293945 15.34099960327148 L -37.86800003051758 15.789999961853024 L -37.040000915527344 16.228000640869137 L -36.73898696899414 16.38400077819824 L -36.21799850463867 16.653999328613278 L -35.40299987792969 17.068000793457028 L -34.59299850463867 17.471000671386715 L -33.790000915527344 17.861999511718746 L -32.99300003051758 18.24200057983398 L -32.768001556396484 18.34683036804199 L -32.20100021362305 18.611000061035153 L -31.413999557495117 18.968999862670895 L -30.6299991607666 19.315000534057614 L -29.850000381469727 19.65200042724609 L -29.06999969482422 19.978000640869137 L -28.29199981689453 20.294000625610348 L -27.511999130249023 20.600000381469723 L -26.73200035095215 20.896999359130856 L -25.951000213623047 21.18499946594238 L -25.16699981689453 21.462999343872067 L -24.576000213623047 21.666015624999996 L -24.381000518798828 21.73299980163574 L -23.590999603271484 21.993000030517575 L -22.799999237060547 22.245000839233395 L -22.0049991607666 22.489000320434567 L -21.207000732421875 22.725000381469723 L -20.4060001373291 22.951999664306637 L -19.60300064086914 23.170999526977536 L -18.79800033569336 23.38199996948242 L -17.990999221801758 23.58600044250488 L -17.183000564575195 23.78300094604492 L -16.384000778198242 23.969432830810543 L -16.37299919128418 23.97200012207031 L -15.562999725341797 24.153999328613274 L -14.751999855041504 24.329999923706048 L -13.940999984741211 24.4990005493164 L -13.558362007141113 24.57600021362304 L -13.130999565124512 24.662000656127923 L -12.321999549865723 24.81999969482421 L -11.515000343322754 24.9729995727539 L -10.708999633789062 25.12000083923339 L -9.906999588012695 25.263999938964837 L -9.107000350952148 25.40299987792968 L -8.310999870300293 25.53899955749511 L -7.519000053405762 25.670999526977532 L -6.730000019073486 25.79999923706054 L -5.553999900817871 25.98600006103515 L -3.996000051498413 26.222000122070305 L -2.447000026702881 26.440999984741204 L -0.8999999761581421 26.641000747680657 L 0 26.74312782287597 L 0.6510000228881836 26.816999435424798 L 2.2119998931884766 26.96699905395507 L 3.7860000133514404 27.08699989318847 L 4.97599983215332 27.156999588012688 L 5.77400016784668 27.193000793457024 L 6.573999881744385 27.222000122070305 L 7.376999855041504 27.242000579833977 L 8.937470436096191 27.25382995605468 L 8.94891357421875 27.254014968872063 L 8.960370063781738 27.254085540771477 L 8.968575477600098 27.254064559936516 L 8.971826553344727 27.254056930541985 L 8.983255386352539 27.253929138183587 L 8.987796783447266 27.25384330749511 L 8.994654655456543 27.25371551513671 L 9.017312049865723 27.253004074096673 L 15.113301277160645 27.079507827758782 L 15.174086570739746 27.076065063476555 L 16.384000778198242 26.98409461975097 L 20.227819442749023 26.69191360473632 L 20.257692337036133 26.689643859863274 L 20.446208953857422 26.67340469360351 L 32.47257995605469 25.654121398925774 L 32.54262924194336 25.649551391601555 L 32.768001556396484 25.635728836059563 L 35.17857360839844 25.487886428833 L 38.80225372314453 25.38043785095214 L 38.85575485229492 25.378885269165032 L 38.891319274902344 25.379682540893548 L 42.50810241699219 25.475301742553704 L 42.54767990112305 25.478889465332024 L 44.451385498046875 25.676858901977532 L 44.54780578613281 25.686885833740227 L 46.59031677246094 26.01317596435546 L 46.62099838256836 26.017999649047844 L 49.48899841308594 26.70100021362304 L 51.71799850463867 27.388000488281243 L 54.75199890136719 28.472000122070305 L 58.573001861572266 30.016000747680657 L 61.599998474121094 31.364999771118157 L 64.42652130126953 32.76800155639648 L 65.26606750488281 33.18472671508788 L 65.31639862060547 33.20959091186523 L 65.31865692138672 33.210830688476555 L 65.35025024414062 33.22813415527343 L 65.53600311279297 33.330799102783196 L 67.73143005371094 34.54425430297851 L 68.05224609375 34.721572875976555 L 68.0906982421875 34.744373321533196 L 72.39061737060547 37.398059844970696 L 78.23622131347656 41.391407012939446 L 78.3080825805664 41.43824386596679 L 78.34906768798828 41.46694946289062 L 78.35199737548828 41.469001770019524 L 78.39248657226562 41.49913024902343 L 81.03927612304688 43.46080780029296 L 83.08474731445312 45.09521102905273 L 83.12210845947266 45.12548065185546 L 85.89704132080078 47.52681350708007 L 85.93134307861328 47.557014465332024 L 87.60540008544922 49.15200042724608 L 87.99751281738281 49.525592803955064 L 89.80836486816406 51.382778167724595 L 89.86000061035156 51.43399810791014 L 91.28099822998047 53.03699874877928 L 92.18888854980469 54.19330596923827 L 92.20342254638672 54.21210479736327 L 92.99203491210938 55.383197784423814 L 93.00408172607422 55.401481628417955 L 93.00460815429688 55.40227127075194 L 93.01127624511719 55.41533279418944 L 93.56394958496094 56.47956085205077 L 93.7929916381836 56.92060089111327 L 94.1192855834961 57.86201095581053 L 94.12466430664062 57.87540435791014 L 94.12828826904297 57.889308929443345 L 94.30335235595703 58.64561462402342 L 94.3530502319336 58.860290527343736 L 94.43289184570312 59.52962493896483 L 94.43499755859375 59.543998718261705 L 94.45999908447266 60.241001129150376 L 94.38705444335938 61.3046417236328 L 94.3853759765625 61.325195312499986 L 94.27490997314453 61.98503112792967 L 94.20201873779297 62.420383453369126 L 94.00979614257812 63.170551300048814 L 94.00499725341797 63.19200134277342 L 93.60900115966797 64.35700225830077 L 93.0993423461914 65.53600311279295 L 92.93572235107422 65.91451263427733 L 92.92327117919922 65.94264984130858 L 92.09127807617188 67.51100921630858 L 92.08200073242188 67.52799987792967 L 91.117919921875 69.08748626708983 L 91.0964126586914 69.12115478515624 L 89.58523559570312 71.22576904296874 L 89.56244659423828 71.25584411621092 L 87.13154602050781 74.11753082275389 L 87.11133575439453 74.14141845703124 L 87.11123657226562 74.14154052734374 L 87.07129669189453 74.18301391601561 L 84.73699951171875 76.60800170898436 L 83.23173522949219 78.02355957031249 L 83.18707275390625 78.06435394287108 L 78.19120025634766 82.27358245849608 L 78.16714477539062 82.29386138916014 L 78.1668930053711 82.29405975341795 L 78.11585235595703 82.33389282226561 L 76.30500030517578 83.71199798583983 L 76.25870513916016 83.74439239501952 L 72.45659637451172 86.4049835205078 L 72.45004272460938 86.40916442871092 L 70.48308563232422 87.66577911376952 L 70.42063903808594 87.70521545410155 L 67.39827728271484 89.48847198486327 L 67.36529541015625 89.50714111328124 L 65.53600311279297 90.50357055664061 L 65.32574462890625 90.61810302734374 L 65.27964782714844 90.64185333251952 L 60.94424057006836 92.78688812255858 L 60.88749694824219 92.81362915039061 L 57.873016357421875 94.15920257568358 L 57.817684173583984 94.18224334716795 L 53.166831970214844 96.03153991699216 L 53.10934829711914 96.05256652832028 L 49.04995346069336 97.3941955566406 L 48.99842071533203 97.40980529785153 L 46.38416290283203 98.12152862548825 L 46.34979248046875 98.12994384765622 L 45.5079345703125 98.30400085449216 L 42.96965026855469 98.82880401611325 L 42.5260009765625 98.92052459716794 L 42.487998962402344 98.92800140380857 L 40.56378173828125 99.2168273925781 L 37.66661071777344 99.50762939453122 L 37.607460021972656 99.51520538330075 L 37.56911849975586 99.51775360107419 L 34.43240737915039 99.67054748535153 L 34.373313903808594 99.67064666748044 L 32.768001556396484 99.6628723144531 L 31.72652816772461 99.65782928466794 L 29.08171272277832 99.51292419433591 L 29.043527603149414 99.5107727050781 L 24.927946090698242 99.05928802490232 L 24.871999740600586 99.05300140380857 L 20.518558502197266 98.30400085449216 L 20.414358139038086 98.28607177734372 L 20.313480377197266 98.26720428466794 L 15.74444580078125 97.25875854492185 L 15.661643981933594 97.23880767822263 L 15.582143783569336 97.21811676025388 L 2.3738389015197754 93.7777862548828 L 2.239687919616699 93.73966979980467 L 0 93.08905029296874 L -2.32441782951355 92.41381072998045 L -5.879555702209473 91.27150726318358 L -6.205386161804199 91.16681671142577 L -6.250999927520752 91.15200042724608 L -10.812148094177246 89.52449798583983 L -10.869048118591309 89.50434112548827 L -10.928168296813965 89.48134613037108 L -14.278793334960938 88.17224884033202 L -16.384000778198242 87.28551483154295 L -18.238622665405273 86.5043258666992 L -18.3046875 86.47631835937499 L -18.350927352905273 86.4552536010742 L -23.28075408935547 84.21164703369139 L -23.361684799194336 84.17272949218749 L -26.00935935974121 82.8995895385742 L -26.113737106323242 82.8488082885742 L -27.863475799560547 81.99020385742186 L -27.999923706054688 81.9199981689453 L -32.768001556396484 79.46674346923827 L -34.45037841796875 78.60113525390624 L -34.49433898925781 78.57857513427733 L -34.574337005615234 78.5351104736328 L -38.581485748291016 76.32206726074217 L -38.62348175048828 76.29734039306639 L -39.74738311767578 75.62479400634764 L -42.46009063720703 74.00148773193358 L -45.609466552734375 71.90953826904295 L -46.93449401855469 71.02939605712889 L -46.99085235595703 70.9933624267578 L -47.01599884033203 70.97599792480467 L -51.94878387451172 67.25472259521483 L -51.984989166259766 67.22814178466795 L -52.03135681152344 67.19173431396483 L -54.00743103027344 65.53600311279295 L -55.52787780761719 64.26203155517577 L -55.57257843017578 64.22428894042967 L -57.02030563354492 62.94382476806639 L -57.85068893432617 62.20938110351561 L -57.87799835205078 62.185001373291 L -61.191165924072266 58.995056152343736 L -61.2178955078125 58.96974945068358 L -61.272315979003906 58.91380310058592 L -63.061485290527344 57.05760192871092 L -65.49337768554688 54.3615264892578 L -65.52590942382812 54.325336456298814 L -65.53600311279297 54.313232421874986 L -67.92376708984375 51.44866561889647 L -68.01398468017578 51.34043121337889 L -68.02371978759766 51.32901763916014 L -68.03333282470703 51.31751632690428 L -68.0472412109375 51.30042648315428 L -68.04747772216797 51.30014038085936 L -68.06586456298828 51.27684020996092 L -68.09233856201172 51.24172973632811 L -71.74263763427734 46.49032974243163 L -71.7740707397461 46.44638061523437 L -71.79985809326172 46.408252716064446 L -75.92628479003906 40.416755676269524 L -75.9454574584961 40.38735198974609 L -75.95162200927734 40.37759780883788 L -75.9566421508789 40.36964797973632 L -75.9712905883789 40.345935821533196 L -75.98558807373047 40.32212829589843 L -76.64862823486328 39.23946380615234 L -80.51815032958984 32.92098236083984 L -80.5247573852539 32.9095115661621 L -80.53887176513672 32.88500213623046 L -80.56355285644531 32.83967208862304 L -80.60336303710938 32.76800155639648 L -82.41876983642578 29.499891281127923 L -82.43276977539062 29.472480773925774 L -84.55118560791016 25.239593505859368 L -84.56873321533203 25.202632904052727 L -86.37761688232422 21.09000778198242 L -86.39925384521484 21.039798736572262 L -86.41879272460938 20.987979888916012 L -88.17543029785156 16.2602367401123 L -88.19195556640625 16.210054397583004 L -89.09393310546875 13.416387557983395 L -90.40204620361328 8.656113624572752 L -90.4219970703125 8.58399963378906 L -90.42272186279297 8.58087921142578 L -90.4346923828125 8.529049873352049 L -91.50524139404297 3.7835631370544425 L -91.5157699584961 3.7295382022857657 L -92.19983673095703 1.1102230246251565e-16 L -92.36846160888672 -0.9193434119224545 L -92.37516021728516 -0.9592642784118649 L -93.29193115234375 -7.384500026702879 L -93.30297088623047 -7.464028358459471 L -93.77318572998047 -11.671286582946776 L -93.78328704833984 -11.766270637512205 L -94.11542510986328 -16.38400077819824 L -94.37376403808594 -19.975746154785153 L -94.3777084350586 -20.031650543212887 L -94.38006591796875 -20.102809906005856 L -94.44611358642578 -25.794633865356438 L -94.44585418701172 -25.839336395263665 L -94.2674331665039 -30.988002777099602 L -94.26481628417969 -31.0586929321289 L -94.14037322998047 -32.76800155639648 L -93.98485565185547 -34.90417480468749 L -93.98100280761719 -34.95800018310546 L -93.67639923095703 -37.83841323852538 L -93.67059326171875 -37.89167404174804 L -93.67034912109375 -37.89393234252929 L -93.66584014892578 -37.925910949707024 L -93.11873626708984 -41.86307144165038 L -93.10908508300781 -41.91890335083007 L -92.56986999511719 -45.01815795898437 L -92.56001281738281 -45.06567764282226 L -91.67906951904297 -49.15200042724608 L -91.59986877441406 -49.51937866210936 L -91.5906753540039 -49.557434082031236 L -90.30030822753906 -54.45078659057616 L -90.28700256347656 -54.499999999999986 L -90.27843475341797 -54.52857971191405 L -88.98707580566406 -58.64612960815428 L -88.96060180664062 -58.72314071655272 L -88.1463623046875 -61.05349731445311 L -86.40401458740234 -65.53600311279295 L -85.9086685180664 -66.8103790283203 L -85.88099670410156 -66.88099670410155 L -83.7030029296875 -72.03600311279295 L -82.41400146484375 -74.46499633789061 M -25.934595108032227 -9.304337501525877 L -25.82221794128418 -9.361512184143065 L -25.428895950317383 -9.56162357330322 L -25.426185607910156 -9.562876701354979 L -25.4215087890625 -9.565038681030272 L -25.413766860961914 -9.56703186035156 L -24.886381149291992 -9.743483543395994 L -24.8784122467041 -9.744394302368162 L -23.95671844482422 -9.83902835845947 L -23.937490463256836 -9.836822509765623 L -23.17746353149414 -9.76584720611572 L -23.079631805419922 -9.738400459289549 L -22.032001495361328 -9.44448661804199 L -22.022628784179688 -9.441404342651365 L -22.01690101623535 -9.439519882202147 L -22.004833221435547 -9.4340124130249 L -21.067367553710938 -9.044633865356444 L -20.524208068847656 -8.754817962646483 L -19.627111434936523 -8.19200038909912 L -19.487180709838867 -8.104210853576658 L -19.4576358795166 -8.085097312927244 L -19.440073013305664 -8.07045269012451 L -17.284198760986328 -6.313814163208006 L -17.24163055419922 -6.272000312805174 L -17.01345443725586 -6.046959877014158 L -16.384000778198242 -5.426153659820556 L -14.94577693939209 -4.0076913833618155 L -12.745542526245117 -1.8005570173263545 L -12.6285982131958 -1.6879816055297847 L -11.598087310791016 -0.7059981822967527 L -10.857199668884277 1.1102230246251565e-16 L -6.851012229919434 3.817532539367675 L -6.796432018280029 3.867131233215331 L -3.291041374206543 7.078763008117674 L -3.24127197265625 7.121658325195311 L -2.7524328231811523 7.542056083679197 L 1.5957868851001708e-15 9.909127235412596 L 1.750657081604004 11.41467761993408 L 1.8071725368499756 11.45990753173828 L 1.8162809610366821 11.46683883666992 L 1.8257453441619873 11.473911285400389 L 1.835593819618225 11.481127738952635 L 8.037059783935547 16.21478462219238 L 8.066790580749512 16.235506057739254 L 8.288350105285645 16.38400077819824 L 10.473050117492676 17.84822273254394 L 10.543171882629395 17.89137458801269 L 12.897185325622559 19.326652526855465 L 16.2724552154541 21.168067932128903 L 16.305999755859375 21.186000823974606 L 15.967000007629395 21.330999374389645 L 10.129281997680664 21.501537322998043 L 10.036417961120605 21.503957748413082 L 7.162904262542725 21.45664024353027 L 7.091644763946533 21.454120635986325 L 4.434999942779541 21.323999404907223 L 4.406877517700195 21.321851730346676 L 8.647324927126155e-19 20.885986328124996 L -0.3671967387199402 20.849668502807614 L -0.4059790372848511 20.84541320800781 L -0.4444767236709595 20.840175628662106 L -4.690179347991943 20.23787117004394 L -4.7288336753845215 20.231737136840817 L -4.830749034881592 20.212951660156246 L -11.654234886169434 18.99749946594238 L -12.742570877075195 18.754550933837887 L -16.384000778198242 17.941677093505856 L -17.527441024780273 17.686428070068356 L -17.57345199584961 17.676294326782223 L -17.577890396118164 17.675165176391598 L -17.61933708190918 17.664623260498043 L -22.062192916870117 16.42255592346191 L -22.107606887817383 16.40914916992187 L -22.182825088500977 16.38400077819824 L -24.982107162475586 15.448025703430172 L -25.01799964904785 15.43599987030029 L -25.364999771118164 14.675999641418453 L -26.18400001525879 12.451000213623043 L -26.197805404663086 12.409371376037594 L -26.874042510986328 10.425020217895506 L -27.048097610473633 9.84534454345703 L -27.65871238708496 7.8117494583129865 L -27.66696548461914 7.783211708068846 L -27.669273376464844 7.775229930877684 L -27.674453735351562 7.753825187683104 L -28.260000228881836 5.455999851226806 L -28.637897491455078 3.475261688232421 L -28.641000747680664 3.45900011062622 L -28.645610809326172 3.418652057647704 L -28.884166717529297 1.6679282188415523 L -28.96500015258789 0.6240000128746033 L -28.96539878845215 0.6035627722740173 L -28.96539878845215 1.1102230246251565e-16 L -28.96539878845215 -1.6804615259170528 L -28.96111488342285 -1.7260468006134029 L -28.691999435424805 -4.014999866485595 L -28.687673568725586 -4.033857345581054 L -28.207605361938477 -5.932446479797362 L -28.203039169311523 -5.946201801300048 L -28.202125549316406 -5.948955535888671 L -28.19557762145996 -5.963031291961669 L -27.420764923095703 -7.710797786712645 L -27.41322135925293 -7.722354412078856 L -27.088390350341797 -8.19200038909912 L -27.016721725463867 -8.295619964599608 L -27.01300048828125 -8.300999641418455 L -27.0023250579834 -8.311986923217772 L -26.570560455322266 -8.802899360656737 L -26.26300048828125 -9.072999954223631 L -26.25595474243164 -9.077610969543455 L -25.934595108032227 -9.304337501525877 M 13.268060684204102 102.48393249511716 L 14.676613807678223 102.83391571044919 L 14.774999618530273 102.85800170898435 L 14.133000373840332 103.09300231933591 L 14.02413272857666 103.12491607666013 L 6.263000011444092 105.40000152587888 L 1.3630000352859497 106.7149963378906 L -6.294049076415245e-14 107.04351806640622 L -2.565999984741211 107.66200256347653 L -5.00676155090332 108.18544006347653 L -5.123449802398682 108.20647430419919 L -10.765000343322754 109.13999938964841 L -13.772578239440918 109.48107910156247 L -13.82748031616211 109.48712921142575 L -13.829776763916016 109.48738098144528 L -13.869769096374512 109.49069976806638 L -18.33135414123535 109.86725616455075 L -18.389562606811523 109.87078857421872 L -22.692440032958984 110.10343170166013 L -22.74591064453125 110.10502624511716 L -26.499713897705078 110.18782806396482 L -26.54245376586914 110.18779754638669 L -30.863075256347656 110.09020996093747 L -30.90328025817871 110.08891296386716 L -30.940013885498047 110.08649444580075 L -32.768001556396484 109.9585266113281 L -34.995460510253906 109.80259704589841 L -35.03986740112305 109.79748535156247 L -37.60187911987305 109.46035003662107 L -37.63543701171875 109.45442962646482 L -39.88298797607422 109.00788116455075 L -40.959999084472656 108.70460510253903 L -41.622867584228516 108.517951965332 L -41.662105560302734 108.50691986083982 L -42.91008758544922 108.05051422119138 L -42.9290885925293 108.04280090332028 L -44.43336868286133 107.28079986572263 L -44.44551086425781 107.27453613281247 L -45.095130920410156 106.82404327392575 L -45.111183166503906 106.81246948242185 L -46.10187911987305 105.75473785400388 L -46.11199951171875 105.74299621582028 L -46.41899871826172 105.12400054931638 L -46.555999755859375 104.62400054931638 L -46.595001220703125 104.27300262451169 L -46.57331466674805 103.72688293457028 L -46.572715759277344 103.71632385253903 L -46.41203689575195 102.94841003417966 L -46.40911865234375 102.937141418457 L -46.08972930908203 102.12289428710935 L -46.08599853515625 102.11399841308591 L -45.608001708984375 101.24999999999997 L -45.59917449951172 101.23725891113278 L -44.25261688232422 99.452033996582 L -43.40386962890625 98.53428649902341 L -43.38100051879883 98.50800323486325 L -43.36821365356445 98.49572753906247 L -43.36690902709961 98.49447631835935 L -43.15530014038086 98.30400085449216 L -41.24455261230469 96.58406066894528 L -41.22800064086914 96.56999969482419 L -39.839054107666016 95.5270538330078 L -39.81589889526367 95.50991058349608 L -37.29233169555664 93.86564636230467 L -37.25550079345703 93.84178161621092 L -32.768001556396484 91.30700683593749 L -32.20146560668945 90.98699951171874 L -32.13199996948242 90.94799804687499 L -28.184999465942383 88.91400146484374 L -26.9689998626709 88.75800323486327 L -21.91699981689453 91.11000061035155 L -21.895580291748047 91.11953735351561 L -16.445270538330078 93.46566009521483 L -16.38800048828125 93.48999786376952 L -16.384000778198242 93.49156951904295 L -12.345000267028809 95.07900238037108 L -8.309000015258789 96.52999877929685 L -4.326000213623047 97.82800292968747 L -4.242429256439209 97.85212707519528 L -4.200516223907471 97.86321258544919 L -2.627497673034668 98.30400085449216 L -2.0660756731614065e-20 99.04027557373044 L 4.615206718444824 100.33354187011716 L 4.663182735443115 100.34584045410153 L 13.268060684204102 102.48393249511716 z" fill="none" stroke="rgb(255,0,0)" stroke-width="0.001mm" />
</svg>