<?xml version="1.0" standalone="no"?>
<!DOCTYPE svg PUBLIC "-//W3C//DTD SVG 1.1//EN"
  "http://www.w3.org/Graphics/SVG/1.1/DTD/svg11.dtd">
<svg width="190.90394592285156mm" height="227.55080413818354mm" viewBox="-95.90394592285156 -117.55200195312497 190.90394592285156 227.55080413818354" xmlns="http://www.w3.org/2000/svg" version="1.1">
	<title>svgOutput</title>
	<desc>made with tinkercad</desc>
<path d="M -11.359771728515625 -75.83008575439452 L -11.360390663146973 -75.82994079589842 L -11.92156982421875 -75.69836425781249 L -11.923802375793457 -75.69789886474608 L -13.091304779052734 -75.59212493896483 L -13.096449851989746 -75.59193420410155 L -16.061107635498047 -75.58694458007811 L -16.06532859802246 -75.58704376220702 L -16.384000778198242 -75.60472106933592 L -23.387662887573242 -75.99317932128905 L -23.4061336517334 -75.99417877197264 L -27.954402923583984 -76.12989044189452 L -27.963186264038086 -76.13002014160155 L -32.768001556396484 -76.08502197265624 L -34.99514389038086 -76.0641632080078 L -35.0040397644043 -76.06407928466795 L -35.01189041137695 -76.0637969970703 L -39.669044494628906 -75.81091308593749 L -39.95531463623047 -75.79537200927733 L -39.961795806884766 -75.79492950439452 L -44.298519134521484 -75.30896759033202 L -44.305843353271484 -75.30817413330077 L -44.311275482177734 -75.30738067626952 L -48.537235260009766 -74.62683105468749 L -48.543827056884766 -74.62564849853514 L -49.152000427246094 -74.49794006347655 L -51.561370849609375 -73.99200439453124 L -51.57023239135742 -73.98988342285155 L -52.56078338623047 -73.72799682617186 L -53.54800033569336 -73.46700286865233 L -55.81999969482422 -72.60399627685545 L -56.8120002746582 -72.05699920654295 L -57.34400177001953 -71.67125701904295 L -57.724998474121094 -71.39499664306639 L -58.57500076293945 -70.59100341796874 L -58.57734298706055 -70.58799743652342 L -59.77178955078125 -69.05228424072264 L -59.773651123046875 -69.0492477416992 L -60.54499816894531 -67.76399993896483 L -60.54730224609375 -67.75932312011717 L -61.323638916015625 -66.23159027099608 L -61.55892562866211 -65.70417022705077 L -61.63394546508789 -65.53600311279295 L -62.1289176940918 -64.42645263671874 L -62.13246536254883 -64.41754150390624 L -62.99062728881836 -62.24419021606444 L -63.93360900878906 -59.50505065917967 L -63.93553161621094 -59.49933624267577 L -63.93727111816406 -59.493259429931626 L -65.2813949584961 -54.830234527587876 L -65.28470611572266 -54.81663513183592 L -65.327880859375 -54.63551330566405 L -65.53600311279297 -53.76235961914061 L -66.5510025024414 -49.504001617431626 L -66.62384033203125 -49.15200042724608 L -68.61900329589844 -39.509998321533196 L -69.27300262451172 -41.458999633789055 L -69.2757797241211 -41.47009658813476 L -71.04199981689453 -48.7525177001953 L -71.0438232421875 -48.760986328124986 L -71.11852264404297 -49.15200042724608 L -71.94988250732422 -53.50384140014647 L -71.95176696777344 -53.51485443115233 L -72.46561431884766 -57.34400177001952 L -72.8947525024414 -60.54182052612303 L -72.89591217041016 -60.55130767822264 L -72.89604949951172 -60.552429199218736 L -72.89677429199219 -60.56098556518553 L -73.2480239868164 -64.49057769775389 L -73.31278991699219 -65.53600311279295 L -73.48052978515625 -68.24355316162108 L -73.48117065429688 -68.25563049316405 L -73.60291290283203 -72.5404586791992 L -73.60293579101562 -72.55192565917967 L -73.5719985961914 -76.31288146972655 L -73.45125579833984 -79.56891632080077 L -73.45072937011719 -79.58128356933592 L -73.29497528076172 -81.9199981689453 L -73.26117706298828 -82.42749786376952 L -73.2611312866211 -82.42819213867186 L -73.2603759765625 -82.43604278564452 L -73.05880737304688 -84.56748199462889 L -72.67362976074219 -87.32059478759764 L -72.67274475097656 -87.32640838623045 L -72.30851745605469 -89.09661865234374 L -72.30722045898438 -89.10191345214842 L -72.03732299804688 -90.11199951171874 L -71.94300079345703 -90.46499633789061 L -71.32099914550781 -92.15399932861327 L -70.55400085449219 -93.75800323486327 L -70.55191802978516 -93.76139068603514 L -68.40650177001953 -96.9974670410156 L -68.40306854248047 -97.0022277832031 L -67.34370422363281 -98.30400085449216 L -65.53600311279297 -100.52535247802732 L -64.92750549316406 -101.27309417724607 L -64.92230224609375 -101.27946472167966 L -64.91616821289062 -101.28641510009763 L -60.776023864746094 -105.83068847656247 L -60.76325988769531 -105.84377288818357 L -60.123756408691406 -106.4960021972656 L -58.305519104003906 -108.35041046142575 L -55.74300003051758 -110.83808898925778 L -55.73616027832031 -110.84438323974607 L -54.16053009033203 -112.30226135253903 L -54.038185119628906 -112.40620422363278 L -51.352272033691406 -114.68800354003903 L -51.10306930541992 -114.89970397949216 L -51.09733200073242 -114.90450286865232 L -49.651424407958984 -115.92931365966794 L -49.648460388183594 -115.93132781982419 L -49.152000427246094 -116.17736053466794 L -48.5208740234375 -116.49012756347653 L -48.519874572753906 -116.49066162109372 L -48.51826858520508 -116.49112701416013 L -48.176998138427734 -116.55200195312497 L -47.91299819946289 -116.49800109863278 L -47.731998443603516 -116.32399749755857 L -47.63399887084961 -116.02999877929685 L -47.634071350097656 -116.02804565429685 L -47.694374084472656 -115.15332031249997 L -47.716896057128906 -114.82661437988278 L -48.05217742919922 -113.39367675781247 L -48.05455017089844 -113.384162902832 L -49.020484924316406 -109.7190017700195 L -49.02214050292969 -109.71221923828122 L -49.152000427246094 -109.13430023193357 L -49.744842529296875 -106.4960021972656 L -49.93518829345703 -105.64891052246091 L -49.93695068359375 -105.63954162597653 L -50.336097717285156 -103.34345245361325 L -50.33670425415039 -103.33827972412107 L -50.65302658081055 -100.93741607666013 L -50.69551086425781 -100.28906249999997 L -50.75979995727539 -99.30789947509763 L -50.76001739501953 -99.30297088623044 L -50.751953125 -98.30400085449216 L -50.74823760986328 -97.84409332275388 L -50.748043060302734 -97.82014465332028 L -50.7479133605957 -97.81786346435544 L -50.44755554199219 -95.7393112182617 L -50.44723892211914 -95.73710632324217 L -50.447235107421875 -95.73708343505858 L -50.44595718383789 -95.73287200927733 L -50.14759826660156 -94.7479782104492 L -49.55586242675781 -93.47071075439452 L -49.554298400878906 -93.46781921386717 L -49.152000427246094 -92.87725830078124 L -48.68216323852539 -92.18756103515624 L -48.68008804321289 -92.18493652343749 L -47.879798889160156 -91.30780792236327 L -47.87858963012695 -91.30660247802733 L -47.87653350830078 -91.30493927001952 L -46.94456100463867 -90.50866699218749 L -46.94452667236328 -90.50864410400389 L -46.9422607421875 -90.50711059570311 L -46.629188537597656 -90.2946319580078 L -45.53227615356445 -89.55015563964842 L -45.528892517089844 -89.54830169677733 L -43.93330764770508 -88.6891403198242 L -43.92803955078125 -88.68679046630858 L -40.24192428588867 -87.08920288085936 L -40.216285705566406 -87.07910156249999 L -32.768001556396484 -84.15966796874999 L -29.640911102294922 -82.93396759033202 L -26.699466705322266 -81.9199981689453 L -23.651723861694336 -80.86938476562499 L -23.63857078552246 -80.86486053466795 L -23.6229248046875 -80.85971832275389 L -16.384000778198242 -78.4819869995117 L -16.313562393188477 -78.45885467529295 L -16.30616569519043 -78.45616149902342 L -12.251838684082031 -76.96335601806639 L -12.250252723693848 -76.96265411376952 L -11.260370254516602 -76.42879486083983 L -11.259222030639648 -76.4281539916992 L -11.25853443145752 -76.42745208740233 L -11.041000366210938 -76.17099761962889 L -11.038999557495117 -76.05899810791014 L -11.109848022460938 -75.95821380615233 L -11.359314918518066 -75.83049011230467 L -11.359771728515625 -75.83008575439452 M -81.08343505859375 -81.23952484130858 L -81.49745178222656 -79.8308639526367 L -81.52656555175781 -79.69149780273436 L -81.80797576904297 -78.34432983398436 L -81.81199645996094 -78.32499694824217 L -81.91999816894531 -77.5283737182617 L -82.02690124511719 -76.73988342285155 L -82.03132629394531 -76.70269775390624 L -82.20580291748047 -74.34671020507811 L -82.2076416015625 -74.30686187744139 L -82.25419616699219 -71.73413848876952 L -82.26481628417969 -71.14747619628905 L -82.24805450439453 -69.73487091064452 L -82.24790954589844 -69.68671417236327 L -82.2479019165039 -69.68390655517577 L -82.24559783935547 -69.62851715087889 L -82.08285522460938 -65.53600311279295 L -82.0790023803711 -65.43900299072264 L -81.91999816894531 -63.18152236938475 L -81.88480377197266 -62.68180465698241 L -81.8781967163086 -62.60208129882811 L -81.87330627441406 -62.56136322021483 L -81.36662292480469 -57.691669464111314 L -81.36052703857422 -57.64948654174803 L -81.31706237792969 -57.34400177001952 L -80.84300231933594 -54.01200103759764 L -80.8376235961914 -53.979267120361314 L -80.79176330566406 -53.71066284179686 L -80.18701171875 -50.16828536987303 L -80.18403625488281 -50.15160751342772 L -80.18196105957031 -50.14039230346678 L -79.99512481689453 -49.15200042724608 L -79.96115112304688 -48.972255706787095 L -79.95899963378906 -48.960998535156236 L -79.802001953125 -48.1699981689453 L -79.64099884033203 -47.37900161743163 L -79.38999938964844 -46.20199966430663 L -79.04100036621094 -44.65499877929687 L -78.6780014038086 -43.145000457763665 L -78.3030014038086 -41.68199920654296 L -77.73027038574219 -39.61977386474609 L -77.71920776367188 -39.58030700683593 L -77.6965103149414 -39.50879287719726 L -76.9167709350586 -36.918193817138665 L -75.95880126953125 -34.03419113159179 L -75.53821563720703 -32.76800155639648 L -75.32771301269531 -32.13426208496093 L -75.30681610107422 -32.075542449951165 L -74.470947265625 -29.786865234374993 L -74.46004486083984 -29.757013320922844 L -74.43492126464844 -29.696472167968743 L -73.49449920654297 -27.336544036865227 L -71.72603607177734 -23.43684387207031 L -71.70171356201172 -23.386634826660153 L -69.48077392578125 -19.199090957641598 L -69.46041107177734 -19.161489486694332 L -69.45977020263672 -19.16030883789062 L -69.4365005493164 -19.120944976806637 L -67.8839111328125 -16.48795700073242 L -67.86366271972656 -16.455837249755856 L -67.81804656982422 -16.38400077819824 L -66.21255493164062 -13.855465888977047 L -66.2125015258789 -13.855379104614254 L -66.17618560791016 -13.802409172058102 L -65.53600311279297 -12.868615150451657 L -64.1622543334961 -10.864819526672362 L -62.45589065551758 -8.568964958190916 L -62.424015045166016 -8.527270317077635 L -62.4194450378418 -8.521288871765135 L -62.393287658691406 -8.490392684936522 L -59.144630432128906 -4.591820716857909 L -58.934226989746094 -4.339321613311767 L -57.7542610168457 -3.0706379413604727 L -57.729000091552734 -3.0429999828338614 L -55.18299865722656 -0.5199999809265134 L -54.59836959838867 1.1102230246251565e-16 L -52.415000915527344 1.942000031471252 L -52.38335037231445 1.9675884246826167 L -49.43840026855469 4.314884185791015 L -49.43491744995117 4.317660331726073 L -47.88627243041992 5.450308322906493 L -47.84158706665039 5.482998371124267 L -46.652748107910156 6.311043739318846 L -45.84836196899414 6.851244449615477 L -45.83100128173828 6.862999916076658 L -45.8256721496582 6.866482257843016 L -45.007999420166016 7.401000022888182 L -44.178001403808594 7.928999900817869 L -43.35389709472656 8.4396276473999 L -43.336036682128906 8.45060062408447 L -42.09495544433594 9.193869590759276 L -42.0650520324707 9.21141719818115 L -40.40797805786133 10.165641784667967 L -40.354637145996094 10.194588661193846 L -38.705448150634766 11.103466987609862 L -37.66839599609375 11.65238285064697 L -37.07400131225586 11.967000007629393 L -37.02791976928711 11.989927291870115 L -35.420127868652344 12.806143760681149 L -33.83599853515625 13.578000068664547 L -32.768001556396484 14.074916839599606 L -32.27580642700195 14.303923606872555 L -32.27454376220703 14.304511070251461 L -32.20751190185547 14.334170341491696 L -30.662813186645508 15.018293380737301 L -29.125999450683594 15.66199970245361 L -27.591089248657227 16.26454353332519 L -27.589187622070312 16.26528930664062 L -27.522369384765625 16.289867401123043 L -27.266939163208008 16.38400077819824 L -25.981613159179688 16.857671737670895 L -24.430999755859375 17.38899993896484 L -22.926063537597656 17.867843627929684 L -22.869543075561523 17.885828018188473 L -21.297243118286133 18.350124359130856 L -19.71409797668457 18.78189086914062 L -19.623029708862305 18.807806015014645 L -17.832874298095703 19.2563304901123 L -17.79181671142578 19.265510559082028 L -16.606201171875 19.530887603759762 L -14.797052383422852 19.93583297729492 L -9.4512300491333 20.92948722839355 L -9.385849952697754 20.942268371582028 L -9.326675415039062 20.95211601257324 L -6.475495338439941 21.4161262512207 L -4.468808650970459 21.742702484130856 L -1.0334059000015259 22.19418334960937 L -0.9615361094474792 22.204460144042965 L -0.8948181867599487 22.21073532104492 L -5.3047688041308466e-14 22.28086471557617 L 2.5707154273986816 22.482337951660153 L 4.777298450469971 22.65527534484863 L 5.696029186248779 22.7272777557373 L 8.863303184509277 22.778537750244137 L 8.945860862731934 22.78102874755859 L 12.081904411315918 22.71193122863769 L 12.88301944732666 22.694280624389645 L 12.937000274658203 22.693000793457028 L 16.36933708190918 22.47207450866699 L 18.220718383789062 22.352909088134762 L 18.297212600708008 22.348056793212887 L 18.30030059814453 22.34778785705566 L 24.47699546813965 21.808841705322262 L 24.599515914916992 21.798082351684567 L 24.612319946289062 21.79703330993652 L 32.64042663574219 21.13958930969238 L 32.742027282714844 21.1318187713623 L 32.768001556396484 21.130655288696286 L 37.85126495361328 20.90312004089355 L 37.92734909057617 20.900985717773434 L 41.37753677368164 20.95816040039062 L 41.4012451171875 20.958744049072262 L 41.426307678222656 20.960636138916012 L 42.96607208251953 21.091112136840817 L 43.41558837890625 21.129203796386715 L 45.43937301635742 21.40916061401367 L 45.47700119018555 21.413999557495114 L 45.49698257446289 21.417913436889645 L 47.60114288330078 21.875371932983395 L 48.29458999633789 22.02613258361816 L 49.737754821777344 22.42832565307617 L 49.77899932861328 22.438999176025387 L 49.829864501953125 22.45606422424316 L 53.435394287109375 23.674186706542965 L 53.541282653808594 23.709960937499996 L 58.059059143066406 25.516874313354485 L 58.12701416015625 25.54395675659179 L 58.16872787475586 25.56261444091796 L 61.15166091918945 26.893402099609368 L 61.192832946777344 26.913370132446282 L 61.227535247802734 26.930782318115227 L 65.53600311279297 29.092748641967766 L 65.58541870117188 29.117547988891594 L 65.6168441772461 29.13424110412597 L 65.66062927246094 29.1596450805664 L 69.9388656616211 31.64772415161132 L 69.9591293334961 31.66028976440429 L 70.03755187988281 31.712450027465813 L 71.70176696777344 32.76800155639648 L 72.12639617919922 33.03732299804687 L 76.99115753173828 36.33668899536132 L 77.00604248046875 36.34756851196288 L 77.05635070800781 36.3843650817871 L 79.4793701171875 38.14297485351562 L 79.72286987304688 38.334339141845696 L 82.63777160644531 40.62514114379882 L 82.67402648925781 40.65444183349609 L 85.7486343383789 43.33277511596679 L 85.78399658203125 43.36399841308593 L 88.7300033569336 46.23300170898437 L 90.59300231933594 48.27000045776366 L 91.26030731201172 49.15200042724608 L 92.3486557006836 50.59049987792967 L 92.35885620117188 50.602993011474595 L 92.37115478515625 50.61977386474608 L 92.73194122314453 51.211235046386705 L 92.73867797851562 51.22191238403319 L 92.73999786376953 51.223999023437486 L 92.7486801147461 51.24146270751952 L 93.21100616455078 52.145412445068345 L 93.6762924194336 53.3914222717285 L 93.68099975585938 53.40499877929686 L 93.90899658203125 54.39099884033202 L 93.98999786376953 55.069999694824205 L 94 56.1230010986328 L 93.89700317382812 57.210998535156236 L 93.75499725341797 57.95700073242186 L 93.44053649902344 59.08767700195311 L 93.43000793457031 59.12065124511717 L 93.01499938964844 60.27399826049803 L 92.0770034790039 62.257999420166 L 91.16300201416016 63.8470001220703 L 90.1259994506836 65.4189987182617 L 90.10752868652344 65.4436798095703 L 90.03569030761719 65.53600311279295 L 87.76336669921875 68.45618438720702 L 87.7387466430664 68.48558807373045 L 85.05450439453125 71.3807907104492 L 85.0250015258789 71.41200256347655 L 83.53900146484375 72.85299682617186 L 81.38706970214844 74.79299163818358 L 81.34123992919922 74.8336944580078 L 78.61460876464844 77.11279296874999 L 78.57717895507812 77.1430206298828 L 75.11996459960938 79.77287292480467 L 74.95645141601562 79.89725494384764 L 74.91699981689453 79.92700195312499 L 73.22553253173828 81.09499359130858 L 72.2859878540039 81.74377441406249 L 72.2550048828125 81.76531982421874 L 69.28882598876953 83.64616394042967 L 69.24984741210938 83.67142486572264 L 66.9786376953125 84.99925231933592 L 65.53600311279297 85.78507232666014 L 64.93907928466797 86.11021423339842 L 64.84384155273438 86.16344451904295 L 64.81299591064453 86.17889404296874 L 61.26845932006836 87.95458221435545 L 61.25371551513672 87.96191406249999 L 56.73298263549805 89.97978210449217 L 56.62467956542969 90.02738189697264 L 49.85047912597656 92.53025054931639 L 49.7982063293457 92.54943847656249 L 49.756961822509766 92.5623321533203 L 46.90414810180664 93.40121459960936 L 46.86982345581055 93.41027069091795 L 43.05391311645508 94.27182769775389 L 43.01599884033203 94.27999877929686 L 42.988277435302734 94.28468322753905 L 39.442840576171875 94.81686401367186 L 39.139835357666016 94.86234283447264 L 37.20772933959961 95.04470825195311 L 37.138065338134766 95.0518112182617 L 33.278785705566406 95.20657348632811 L 33.22311019897461 95.20783233642577 L 32.768001556396484 95.19430541992186 L 29.375656127929688 95.09348297119139 L 29.330528259277344 95.09171295166014 L 29.281726837158203 95.08700561523436 L 25.418500900268555 94.71340179443358 L 23.46470832824707 94.43442535400389 L 23.404438018798828 94.42516326904295 L 21.426000595092773 94.08999633789061 L 18.41152000427246 93.48572540283202 L 18.353384017944336 93.47386932373045 L 12.813365936279297 92.1736373901367 L 12.739660263061523 92.15597534179686 L 12.624526023864746 92.12582397460936 L 2.1408798694610596 89.36566925048827 L 2.057567834854126 89.34210205078124 L 0 88.75060272216795 L -1.782985806465149 88.23804473876952 L -1.833593487739563 88.22214508056639 L -5.700762748718262 87.00866699218749 L -5.749891757965088 86.99197387695311 L -8.639338493347168 86.01007843017577 L -8.687000274658203 85.99400329589842 L -12.550899505615234 84.54003906249999 L -13.64344310760498 84.12892913818358 L -13.700668334960938 84.10768127441405 L -13.708403587341309 84.10448455810545 L -17.665428161621094 82.46932983398436 L -17.72272491455078 82.44613647460936 L -18.9056396484375 81.9199981689453 L -21.667770385742188 80.69146728515624 L -21.772886276245117 80.64407348632811 L -25.091459274291992 79.06971740722655 L -26.722429275512695 78.2959747314453 L -28.72649574279785 77.30626678466795 L -28.792999267578125 77.2740020751953 L -30.307140350341797 76.5139694213867 L -30.347301483154297 76.49363708496092 L -31.360671997070312 75.97709655761717 L -32.768001556396484 75.23202514648436 L -36.93913650512695 73.02372741699217 L -37.01599884033203 72.98300170898436 L -41.01100158691406 70.69300079345702 L -43.8184700012207 68.94720458984374 L -43.868919372558594 68.91564178466795 L -46.03879165649414 67.47648620605467 L -46.55612564086914 67.13336944580077 L -48.26939010620117 65.92087554931639 L -48.334999084472656 65.87512207031249 L -48.370418548583984 65.84819030761717 L -48.77910614013672 65.53600311279295 L -52.449527740478516 62.732177734374986 L -52.504547119140625 62.68665313720702 L -55.05078887939453 60.59288024902342 L -55.34796142578125 60.33381271362303 L -57.341712951660156 58.59571456909178 L -57.39502716064453 58.54817962646483 L -60.55835723876953 55.59481811523436 L -60.57699966430664 55.576999664306626 L -63.80933380126953 52.2549591064453 L -63.821319580078125 52.242851257324205 L -63.83543395996094 52.22858810424803 L -63.90546798706055 52.150714874267564 L -64.95433044433594 51.002292633056626 L -65.53600311279297 50.340332031249986 L -66.32553100585938 49.44182205200194 L -67.17855834960938 48.41125106811522 L -68.96837615966797 46.24892044067382 L -68.982666015625 46.23161315917968 L -68.99199676513672 46.22000122070312 L -71.7807388305664 42.57659912109374 L -71.78993225097656 42.56494522094726 L -71.80345153808594 42.547412872314446 L -71.82099914550781 42.52399826049804 L -71.84620666503906 42.48883438110351 L -75.2668228149414 37.6171646118164 L -75.2968521118164 37.573188781738274 L -77.42216491699219 34.31423950195312 L -77.44696044921875 34.27600097656249 L -78.36518096923828 32.76800155639648 L -80.45355224609375 29.338285446166985 L -80.47205352783203 29.308712005615227 L -80.48286437988281 29.290880203247063 L -80.49574279785156 29.26899337768554 L -80.49956512451172 29.26250267028808 L -81.91999816894531 26.741504669189446 L -82.37744903564453 25.929620742797844 L -82.40361022949219 25.882968902587884 L -82.42720794677734 25.837341308593743 L -84.28044891357422 22.256046295166012 L -84.29408264160156 22.227443695068356 L -85.39830780029297 19.910902023315426 L -85.4173812866211 19.870883941650387 L -86.4603271484375 17.48926734924316 L -86.47534942626953 17.454868316650387 L -86.90127563476562 16.38400077819824 L -87.61982727050781 14.577411651611325 L -87.64105224609375 14.522761344909664 L -88.62188720703125 11.799083709716795 L -88.63765716552734 11.752546310424803 L -89.79263305664062 8.083688735961912 L -89.8156509399414 8.010569572448729 L -89.82499694824219 7.9800000190734846 L -90.84724426269531 4.165076255798339 L -90.8602066040039 4.116902351379394 L -90.87551879882812 4.051621913909911 L -91.7965316772461 1.1102230246251565e-16 L -91.9549331665039 -0.6968243718147276 L -91.96831512451172 -0.7690356969833371 L -92.54597473144531 -3.8022449016571036 L -92.62870025634766 -4.333714008331298 L -93.40753936767578 -9.337334632873533 L -93.41699981689453 -9.399000167846678 L -91.1709976196289 -5.0949997901916495 L -88.31000518798828 1.1102230246251565e-16 L -88.27799987792969 0.05700000002980242 L -86.36900329589844 3.188999891281127 L -84.62000274658203 5.892000198364257 L -83.56128692626953 7.432755947113035 L -83.50361633300781 7.511684417724608 L -81.91999816894531 9.643626213073729 L -80.65376281738281 11.34829521179199 L -78.9700698852539 13.440095901489254 L -78.93558502197266 13.482733726501461 L -78.1449966430664 14.434000015258786 L -77.52423095703125 15.168802261352536 L -77.38300323486328 15.335978507995602 L -76.64860534667969 16.196554183959957 L -76.4867172241211 16.38400077819824 L -75.93688201904297 17.020656585693356 L -75.2478256225586 17.812227249145504 L -75.19636535644531 17.871986389160153 L -74.52899932861328 18.632999420166012 L -74.02934265136719 19.198818206787106 L -73.88134765625 19.36641120910644 L -73.25341796875 20.073207855224606 L -72.64224243164062 20.756345748901364 L -72.04683685302734 21.41779518127441 L -71.18428802490234 22.370048522949215 L -70.07628631591797 23.58451461791992 L -70.00424194335938 23.664440155029293 L -68.9376449584961 24.82271766662597 L -67.90159606933594 25.937622070312493 L -66.88231658935547 27.019994735717766 L -65.86993408203125 28.07969665527343 L -65.8106689453125 28.142557144165032 L -65.77210235595703 28.182094573974602 L -65.53600311279297 28.424148559570305 L -64.7933578491211 29.185499191284173 L -64.7785873413086 29.20047187805175 L -63.74747085571289 30.233556747436516 L -63.73242950439453 30.248428344726555 L -62.67864227294922 31.276584625244134 L -62.66324234008789 31.29140090942382 L -61.58185577392578 32.31660079956054 L -61.566017150878906 32.331401824951165 L -61.09359359741211 32.76800155639648 L -60.73402786254883 33.10029983520507 L -60.717674255371094 33.11511611938476 L -59.86399841308594 33.884998321533196 L -58.99060821533203 34.655872344970696 L -58.97370147705078 34.67071533203124 L -58.07665252685547 35.44256973266601 L -58.05918884277344 35.45742797851562 L -56.82993698120117 36.48657226562499 L -56.811920166015625 36.5014305114746 L -55.54422378540039 37.53057098388671 L -55.525634765625 37.545398712158196 L -54.2194938659668 38.56961441040038 L -54.20037841796875 38.58437347412109 L -52.85874938964844 39.60365676879882 L -52.8391227722168 39.618301391601555 L -51.462989807128906 40.627727508544915 L -51.442893981933594 40.64221572875976 L -50.03521728515625 41.63882827758788 L -50.01986312866211 41.64957046508788 L -50.00950241088867 41.656658172607415 L -49.152000427246094 42.2464370727539 L -48.93600082397461 42.395000457763665 L -48.20000076293945 42.88700103759765 L -47.45899963378906 43.37499999999999 L -46.71200180053711 43.855998992919915 L -45.959999084472656 44.33000183105468 L -45.20399856567383 44.79800033569335 L -44.44300079345703 45.256999969482415 L -43.67900085449219 45.70800018310546 L -42.91299819946289 46.15100097656249 L -42.14400100708008 46.583999633789055 L -40.98699951171875 47.21500015258788 L -40.959999084472656 47.2291030883789 L -39.439998626708984 48.02299880981444 L -37.88999938964844 48.79299926757811 L -37.12933349609375 49.15200042724608 L -36.3390007019043 49.52500152587889 L -34.78900146484375 50.22000122070311 L -33.24100112915039 50.882999420166 L -32.768001556396484 51.076721191406236 L -31.69300079345703 51.51699829101561 L -30.143999099731445 52.12799835205077 L -28.58799934387207 52.72000122070311 L -27.018999099731445 53.29600143432616 L -25.42799949645996 53.86000061035155 L -25.4049015045166 53.867885589599595 L -22.877391815185547 54.71564483642577 L -22.85970115661621 54.72148132324217 L -22.84764862060547 54.72533798217772 L -22.83539390563965 54.72916412353514 L -22.822885513305664 54.732963562011705 L -17.255264282226562 56.408771514892564 L -17.202266693115234 56.423698425292955 L -16.384000778198242 56.631469726562486 L -13.901490211486816 57.26181030273436 L -13.234548568725586 57.43115615844725 L -13.175643920898438 57.445529937744126 L -8.72785758972168 58.402709960937486 L -8.712045669555664 58.40619659423827 L -8.661737442016602 58.41630172729491 L -3.6579768657684326 59.29757690429686 L -3.6401872634887695 59.300807952880845 L -3.633460283279419 59.30189514160155 L -3.583573818206787 59.30995941162108 L -6.033898830885495e-14 59.80839920043944 L 1.3137234449386597 59.99112701416014 L 1.3543405532836914 59.996704101562486 L 1.409303069114685 60.00285339355467 L 6.947349548339844 60.55882644653319 L 6.982999801635742 60.56200027465819 L 7.068830966949463 60.566467285156236 L 8.829413414001465 60.690673828124986 L 12.679824829101562 60.879943847656236 L 12.756647109985352 60.88130950927733 L 13.349933624267578 60.89348983764647 L 17.17387580871582 60.9720001220703 L 17.595409393310547 60.967365264892564 L 23.806123733520508 60.89905166625975 L 23.884000778198242 60.89799880981444 L 30.79800033569336 60.63899993896483 L 32.106998443603516 59.20100021362303 L 31.477272033691406 58.6277618408203 L 30.8949031829834 58.09763717651366 L 30.66900062561035 57.89199829101561 L 30.53135108947754 57.8964385986328 L 23.77489471435547 58.14978408813475 L 22.355480194091797 58.16017913818358 L 16.102659225463867 58.20597076416014 L 16.031999588012695 58.20600128173827 L 11.784000396728516 58.090000152587876 L 8.122856140136719 57.88496017456053 L 8.064093589782715 57.88150024414061 L 4.78641414642334 57.605487823486314 L 4.722884178161621 57.59970855712889 L 4.681057453155518 57.59464263916014 L -6.392020972852824e-14 57.022663116455064 L -1.4583081007003784 56.84447097778319 L -1.488052248954773 56.840332031249986 L -1.5364255905151367 56.83244705200194 L -5.108850002288818 56.271545410156236 L -5.953768253326416 56.11246871948241 L -9.245134353637695 55.49278640747069 L -9.310955047607422 55.48033523559569 L -13.028287887573242 54.65229034423827 L -13.105693817138672 54.63402938842772 L -16.384000778198242 53.769836425781236 L -17.813724517822266 53.39294815063475 L -17.864131927490234 53.3788604736328 L -17.910812377929688 53.364372253417955 L -17.942163467407227 53.35379791259764 L -17.96719741821289 53.34495925903319 L -26.275253295898438 50.64001083374022 L -28.356210708618164 49.86815261840819 L -28.39443588256836 49.853935241699205 L -30.13833999633789 49.15200042724608 L -32.768001556396484 48.093540191650376 L -32.8737678527832 48.050964355468736 L -32.92898178100586 48.02856826782225 L -32.932987213134766 48.026943206787095 L -32.975807189941406 48.007717132568345 L -35.200687408447266 47.017017364501946 L -40.959999084472656 44.03286743164062 L -42.019248962402344 43.484024047851555 L -42.05126953125 43.46838378906249 L -42.09379196166992 43.44558715820312 L -42.09627151489258 43.44411468505859 L -42.13848114013672 43.41908645629882 L -46.11549758911133 40.95999908447265 L -46.29152297973633 40.85115814208984 L -47.7001838684082 39.90679168701171 L -47.77877426147461 39.85403823852538 L -49.152000427246094 38.88713073730468 L -49.840999603271484 38.40200042724609 L -53.13149642944336 35.92969131469726 L -53.20372009277344 35.87414550781249 L -56.11666488647461 33.49745941162109 L -56.15678405761719 33.46313095092773 L -56.94301986694336 32.76800155639648 L -59.125919342041016 30.83803176879882 L -60.85002899169922 29.21644210815429 L -62.75453186035156 27.328695297241204 L -62.84140396118164 27.245269775390618 L -62.90247344970703 27.182056427001946 L -64.83660125732422 25.18008613586425 L -64.85098266601562 25.16504287719726 L -64.96412658691406 25.0407428741455 L -65.53600311279297 24.427904129028313 L -67.3309555053711 22.50436210632324 L -71.53032684326172 17.827011108398434 L -72.82587432861328 16.38400077819824 L -73.47130584716797 15.665101051330563 L -73.53438568115234 15.590910911560055 L -76.44239807128906 12.180152893066403 L -76.6245346069336 11.95621585845947 L -78.05314636230469 10.199744224548338 L -78.09033203125 10.152111053466795 L -81.27436065673828 5.903449058532714 L -81.32563781738281 5.829373359680175 L -81.91999816894531 4.944322109222411 L -83.447998046875 2.668999910354614 L -85.09959411621094 1.1102230246251565e-16 L -85.27100372314453 -0.27700001001358016 L -87.2750015258789 -3.7179999351501456 L -87.29598999023438 -3.756169319152831 L -90.3213119506836 -9.377020835876463 L -90.34400177001953 -9.420000076293944 L -93.87593841552734 -16.38400077819824 L -94.32195281982422 -17.263414382934567 L -94.33999633789062 -17.29899978637695 L -94.70769500732422 -22.101663589477536 L -94.71251678466797 -22.162176132202145 L -94.82588195800781 -24.489576339721673 L -94.8284683227539 -24.546245574951165 L -94.82902526855469 -24.589168548583977 L -94.90394592285156 -28.548999786376946 L -94.89207458496094 -29.46516799926757 L -94.8655014038086 -31.51714897155761 L -94.86451721191406 -31.575967788696282 L -94.81214904785156 -32.76800155639648 L -94.65553283691406 -36.33328628540038 L -94.65296936035156 -36.3877944946289 L -94.64971160888672 -36.42934799194335 L -94.27314758300781 -40.87319183349609 L -94.2662582397461 -40.93572616577148 L -93.72803497314453 -45.303665161132805 L -93.72393035888672 -45.33217239379882 L -93.54975891113281 -46.44964981079101 L -93.48931884765625 -46.83744049072265 L -93.48699951171875 -46.85200119018554 L -93.21788787841797 -48.399658203124986 L -93.21536254882812 -48.414455413818345 L -93.20476531982422 -48.46866607666014 L -93.0681381225586 -49.15200042724608 L -92.5561294555664 -51.712829589843736 L -92.5455093383789 -51.75851440429686 L -91.75 -55.201801300048814 L -91.72086334228516 -55.30693435668944 L -90.35710906982422 -60.22823333740233 L -90.3454818725586 -60.272365570068345 L -90.33306884765625 -60.314636230468736 L -89.43207550048828 -63.12013244628905 L -89.4219970703125 -63.151000976562486 L -88.57452392578125 -65.53600311279295 L -88.2699966430664 -66.3929977416992 L -86.78148651123047 -70.22369384765624 L -86.74665069580078 -70.31153106689452 L -84.17182159423828 -76.45385742187499 L -84.14800262451172 -76.51000213623045 L -82.85900115966797 -78.94000244140624 L -81.91999816894531 -80.16354370117186 L -81.0770034790039 -81.26200103759764 L -81.08343505859375 -81.23952484130858 M -24.772605895996094 -17.190198898315426 L -24.020465850830078 -17.18329811096191 L -23.99843406677246 -17.179613113403317 L -23.233478546142578 -17.049491882324215 L -22.09491539001465 -16.661098480224606 L -22.07992935180664 -16.655321121215817 L -22.06805992126465 -16.64931488037109 L -21.499874114990234 -16.38400077819824 L -21.143409729003906 -16.217548370361325 L -21.132110595703125 -16.21058845520019 L -19.915672302246094 -15.459433555603024 L -19.578914642333984 -15.207553863525387 L -18.94961929321289 -14.736865043640133 L -18.05059814453125 -13.966979980468746 L -18.012727737426758 -13.936240196228024 L -16.867265701293945 -12.855837821960446 L -16.790571212768555 -12.779840469360348 L -16.384000778198242 -12.372393608093258 L -13.134355545043945 -9.115739822387694 L -11.04649829864502 -7.089985847473143 L -9.571788787841797 -5.686251640319823 L -6.493234157562256 -2.7999219894409175 L -6.40627908706665 -2.7176916599273677 L -6.3878912925720215 -2.701156616210937 L -6.348085880279541 -2.665361881256103 L -3.6924257278442383 -0.24135747551918013 L -3.410922050476074 1.1102230246251565e-16 L 0 2.9244785308837886 L 0.931813657283783 3.723402976989745 L 0.9702675342559814 3.7560360431671134 L 1.0142717361450195 3.7913873195648184 L 4.809479713439941 6.819667816162108 L 4.835865497589111 6.839663505554197 L 6.834017753601074 8.320287704467772 L 6.912121295928955 8.373072624206541 L 8.40753173828125 9.417000770568846 L 10.065593719482422 10.508246421813963 L 10.124756813049316 10.544294357299803 L 12.419609069824219 11.942540168762205 L 12.485729217529297 11.979598999023436 L 15.861000061035156 13.821999549865719 L 15.522000312805176 13.967000007629391 L 15.485908508300781 13.96857929229736 L 13.844143867492676 14.028625488281246 L 12.987691879272461 14.059949874877926 L 11.227389335632324 14.124331474304196 L 11.156316757202148 14.125028610229489 L 9.577115058898926 14.138829231262203 L 5.767120838165283 14.052082061767575 L 2.9744389057159424 13.883515357971188 L 2.8949837684631348 13.879416465759274 L 2.8772809505462646 13.877651214599606 L 2.8657076358795166 13.876496315002438 L 2.8615963459014893 13.876086235046383 L 2.8450591564178467 13.874079704284664 L -2.180791015978477e-14 13.541088104248043 L -3.1937577724456787 13.167284011840817 L -3.2322402000427246 13.161818504333493 L -3.287700891494751 13.15276718139648 L -8.47875690460205 12.307964324951168 L -8.506936073303223 12.302954673767086 L -8.616612434387207 12.283076286315914 L -9.898935317993164 12.050660133361813 L -10.073321342468262 12.019053459167477 L -10.159252166748047 12.001633644104 L -11.342174530029297 11.778849601745604 L -12.133746147155762 11.625070571899412 L -14.123026847839355 11.215975761413572 L -16.384000778198242 10.641587257385252 L -21.860322952270508 9.250353813171385 L -21.88332176208496 9.244932174682615 L -21.90627670288086 9.239110946655272 L -21.971586227416992 9.219883918762205 L -25.435575485229492 8.080335617065428 L -25.46299934387207 8.071000099182127 L -25.809999465942383 7.310999870300291 L -25.831418991088867 7.2506861686706525 L -26.638763427734375 5.05735158920288 L -27.040252685546875 3.846674919128417 L -27.59495735168457 2.17397928237915 L -27.609560012817383 2.1244816780090328 L -28.223888397216797 1.1102230246251565e-16 L -28.340999603271484 -0.4050000011920927 L -28.69734001159668 -1.8773536682128902 L -28.704999923706055 -1.9090000391006465 L -28.71214485168457 -1.9500440359115596 L -28.987173080444336 -3.300546646118163 L -29.188270568847656 -4.535714626312255 L -29.366695404052734 -6.190819740295408 L -29.369583129882812 -6.21854257583618 L -29.36998176574707 -6.238979339599608 L -29.442928314208984 -7.727489471435545 L -29.441648483276367 -7.75174045562744 L -29.427656173706055 -8.19200038909912 L -29.386444091796875 -9.488664627075194 L -29.383441925048828 -9.509997367858885 L -29.32560157775879 -9.94889450073242 L -29.136999130249023 -11.380000114440916 L -29.13389778137207 -11.394445419311522 L -29.093246459960938 -11.57162570953369 L -28.834224700927734 -12.700588226318356 L -28.8275203704834 -12.72150897979736 L -28.508846282958984 -13.681670188903805 L -28.447999954223633 -13.86499977111816 L -28.11678123474121 -14.617141723632809 L -27.334081649780273 -15.818793296813961 L -27.319992065429688 -15.844424247741696 L -27.30931854248047 -15.855410575866696 L -26.861780166625977 -16.302949905395504 L -26.854734420776367 -16.307559967041012 L -26.754343032836914 -16.38400077819824 L -26.379594802856445 -16.669338226318356 L -26.372209548950195 -16.672754287719723 L -26.080293655395508 -16.81446838378906 L -25.694000244140625 -17.002000808715817 L -25.68625831604004 -17.003978729248043 L -25.631736755371094 -17.01516723632812 L -24.783294677734375 -17.189302444458004 L -24.772605895996094 -17.190198898315426 M 14.32699966430664 101.40899658203122 L 14.326807022094727 101.40907287597653 L 14.086626052856445 101.49839019775388 L 13.687000274658203 101.6470031738281 L 13.638171195983887 101.66200256347653 L 3.3477354049682617 104.70014190673825 L 3.247999906539917 104.72899627685544 L 0 105.57978820800778 L -1.1269999742507935 105.87499999999997 L -6.045984268188477 106.96920013427732 L -6.096264362335205 106.98087310791013 L -6.137735366821289 106.98912811279294 L -10.015748023986816 107.68212127685544 L -12.170638084411621 107.97785186767575 L -12.254931449890137 107.99010467529294 L -12.278154373168945 107.99260711669919 L -16.079713821411133 108.40216064453122 L -16.219240188598633 108.41298675537107 L -22.771642684936523 108.87728118896482 L -26.873424530029297 108.99459075927732 L -28.107606887817383 108.99853515624997 L -28.22439193725586 108.99880218505857 L -30.51630210876465 108.95937347412107 L -32.768001556396484 108.85285186767575 L -33.66287612915039 108.81052398681638 L -33.70899963378906 108.80779266357419 L -36.59138870239258 108.53670501708982 L -36.63874816894531 108.5310363769531 L -39.03909683227539 108.1623611450195 L -39.07631301879883 108.15486145019528 L -40.747188568115234 107.78717041015622 L -40.959999084472656 107.72377777099607 L -42.47129821777344 107.27358245849607 L -42.495521545410156 107.26655578613278 L -42.51323699951172 107.25968170166013 L -43.738548278808594 106.78060150146482 L -44.494632720947266 106.40502166748044 L -44.51081466674805 106.39675140380857 L -45.51826858520508 105.74515533447263 L -45.52899932861328 105.73799896240232 L -46.09400177001953 105.23200225830075 L -46.54100036621094 104.67099761962888 L -46.846588134765625 104.06278228759763 L -46.85242462158203 104.04930114746091 L -46.96038055419922 103.66451263427732 L -46.99042892456055 103.5574035644531 L -47.03183364868164 103.21140289306638 L -47.03300094604492 103.20400238037107 L -47.015254974365234 102.65788269042966 L -47.0152702331543 102.65268707275388 L -46.700809478759766 101.47568511962888 L -46.696285247802734 101.45606994628903 L -46.69462203979492 101.452522277832 L -46.690635681152344 101.4440002441406 L -46.0686149597168 100.18123626708982 L -45.46236801147461 99.29502868652341 L -45.4449462890625 99.26948547363278 L -45.444671630859375 99.26915740966794 L -45.433589935302734 99.25626373291013 L -45.420555114746094 99.2428283691406 L -44.55949020385742 98.30400085449216 L -42.87727355957031 96.469856262207 L -42.86212921142578 96.45600891113278 L -42.093257904052734 95.81381988525389 L -41.22279739379883 95.08677673339842 L -41.204750061035156 95.07218170166014 L -41.18253707885742 95.05625152587889 L -37.54505157470703 92.57803344726561 L -37.516998291015625 92.55999755859374 L -37.48103713989258 92.53890991210936 L -33.4857177734375 90.24404144287108 L -33.39645767211914 90.19640350341795 L -32.768001556396484 89.86522674560545 L -28.718000411987305 87.73100280761717 L -27.503999710083008 87.56700134277342 L -27.417572021484375 87.60633850097655 L -20.189918518066406 90.86430358886717 L -20.118146896362305 90.89427185058592 L -16.38800048828125 92.43699645996092 L -14.869000434875488 93.03199768066405 L -10.814000129699707 94.52899932861327 L -6.791999816894531 95.87999725341795 L -6.735685348510742 95.89706420898436 L -4.776963710784912 96.5052795410156 L -3.784245491027832 96.79137420654294 L -0.904865562915802 97.62117004394528 L 0 97.85519409179685 L 1.7353278398513794 98.30400085449216 L 6.264627933502197 99.47540283203122 L 6.408524036407471 99.51311492919919 L 6.4344940185546875 99.51933288574216 L 14.226653099060059 101.38509368896482 L 14.32699966430664 101.40899658203122 z" fill="none" stroke="rgb(255,0,0)" stroke-width="0.001mm" />
</svg>