<?xml version="1.0" standalone="no"?>
<!DOCTYPE svg PUBLIC "-//W3C//DTD SVG 1.1//EN"
  "http://www.w3.org/Graphics/SVG/1.1/DTD/svg11.dtd">
<svg width="200.85199737548828mm" height="232.4278182983398mm" viewBox="-100.44499969482422 -116.213996887207 200.85199737548828 232.4278182983398" xmlns="http://www.w3.org/2000/svg" version="1.1">
	<title>svgOutput</title>
	<desc>made with tinkercad</desc>
<path d="M -14.171966552734375 -76.16303253173827 L -14.145576477050781 -76.15263366699217 L -13.627398490905762 -75.96276855468749 L -12.85606575012207 -75.66115570068358 L -12.089360237121582 -75.33120727539061 L -12.060999870300293 -75.31900024414061 L -10.72700023651123 -74.58000183105467 L -9.92935848236084 -73.91941833496092 L -9.72599983215332 -73.75099945068358 L -8.527999877929688 -71.86199951171874 L -8.446999549865723 -68.72000122070311 L -10.008999824523926 -66.36499786376952 L -11.373605728149414 -65.53600311279295 L -11.501999855041504 -65.45800018310545 L -12.508999824523926 -65.12400054931639 L -13.59000015258789 -64.91500091552733 L -13.605567932128906 -64.91339111328124 L -15.140321731567383 -64.75516510009764 L -16.93515396118164 -64.69484710693358 L -16.981746673583984 -64.69415283203124 L -19.349143981933594 -64.70997619628905 L -19.531339645385742 -64.71679687499999 L -21.331865310668945 -64.78414154052733 L -21.413158416748047 -64.78742218017577 L -23.533334732055664 -64.88927459716795 L -25.804811477661133 -64.98717498779295 L -27.294076919555664 -65.03365325927733 L -27.659500122070312 -65.03929138183592 L -28.498807907104492 -65.05223083496092 L -29.346019744873047 -65.06529998779295 L -32.1030387878418 -65.0504684448242 L -32.18220138549805 -65.05063629150389 L -32.206642150878906 -65.04991149902342 L -32.21146011352539 -65.04976654052733 L -32.768001556396484 -65.03466796874999 L -36.25699996948242 -64.94000244140624 L -36.84603500366211 -64.91247558593749 L -38.01326370239258 -64.85792541503905 L -39.39573287963867 -64.7748565673828 L -39.469600677490234 -64.76959228515624 L -40.83822250366211 -64.66773223876952 L -45.01924133300781 -64.20690917968749 L -45.042999267578125 -64.20400238037108 L -45.07565689086914 -64.19882965087889 L -48.3478889465332 -63.67472076416014 L -49.152000427246094 -63.513305664062486 L -51.022830963134766 -63.137756347656236 L -51.039188385009766 -63.13471221923827 L -51.07716751098633 -63.12624359130858 L -52.87200164794922 -62.70299911499022 L -52.895591735839844 -62.69589996337889 L -54.53813552856445 -62.222221374511705 L -54.788780212402344 -62.126071929931626 L -55.75743103027344 -61.75447845458983 L -55.77236557006836 -61.74772262573241 L -56.39141082763672 -61.42039871215819 L -56.397735595703125 -61.41594314575194 L -56.955467224121094 -61.019401550292955 L -57.643733978271484 -60.28366851806639 L -57.652000427246094 -60.27500152587889 L -57.65238571166992 -60.27441787719725 L -58.28499984741211 -59.31900024414061 L -58.87799835205078 -58.215000152587876 L -59.287933349609375 -57.34400177001952 L -59.367000579833984 -57.175998687744126 L -59.7130012512207 -56.36899948120116 L -60.073001861572266 -55.47700119018553 L -60.446998596191406 -54.48799896240233 L -60.8390007019043 -53.37799835205077 L -61.25299835205078 -52.116001129150376 L -61.694000244140625 -50.66099929809569 L -62.11474609375 -49.15200042724608 L -62.167999267578125 -48.960998535156236 L -62.678001403808594 -46.96099853515624 L -63.229000091552734 -44.597000122070305 L -63.827999114990234 -40.38899993896484 L -64.38400268554688 -36.24599838256835 L -64.79915618896484 -32.76800155639648 L -64.85800170898438 -32.2750015258789 L -65.21299743652344 -28.6240005493164 L -65.42500305175781 -25.444000244140618 L -65.48500061035156 -22.83200073242187 L -65.40699768066406 -20.794000625610348 L -65.21399688720703 -19.252000808715817 L -64.93599700927734 -18.07799911499023 L -64.60099792480469 -17.14100074768066 L -64.25263214111328 -16.38400077819824 L -64.23100280761719 -16.336999893188473 L -63.8380012512207 -15.597000122070309 L -63.433998107910156 -14.883999824523922 L -63.02399826049805 -14.180000305175778 L -62.57699966430664 -13.465000152587887 L -62.11899948120117 -12.748000144958493 L -61.652000427246094 -12.031000137329098 L -61.176998138427734 -11.31700038909912 L -60.69499969482422 -10.607000350952147 L -60.20800018310547 -9.904000282287596 L -59.715999603271484 -9.20899963378906 L -59.220001220703125 -8.524000167846678 L -58.97492980957031 -8.19200038909912 L -58.72100067138672 -7.848000049591063 L -58.21699905395508 -7.184000015258787 L -57.71099853515625 -6.530000209808348 L -57.20000076293945 -5.888000011444091 L -56.42499923706055 -4.945000171661376 L -55.37099838256836 -3.7179999351501456 L -54.56999969482422 -2.826022863388061 L -54.55793380737305 -2.8126997947692867 L -54.011077880859375 -2.225300312042236 L -53.453346252441406 -1.6408673524856563 L -53.444000244140625 -1.6310000419616695 L -53.44154739379883 -1.6285029649734493 L -52.86800003051758 -1.0449999570846553 L -52.27899932861328 -0.4620000123977659 L -51.80109786987305 1.1102230246251565e-16 L -51.678001403808594 0.11900000274181374 L -51.0629997253418 0.6970000267028809 L -50.433998107910156 1.2719999551773071 L -49.79100036621094 1.8430000543594356 L -49.152000427246094 2.3971252441406246 L -49.13600158691406 2.41100001335144 L -48.465999603271484 2.974999904632568 L -47.18440246582031 4.004432678222655 L -47.176822662353516 4.010643959045409 L -47.16910934448242 4.016799926757812 L -47.166053771972656 4.019169807434081 L -47.1639518737793 4.020797729492187 L -47.1612548828125 4.0228891372680655 L -47.15326690673828 4.028900623321532 L -44.941123962402344 5.706055164337157 L -44.93299865722656 5.711999893188476 L -42.67499923706055 7.271999835968016 L -41.220584869384766 8.19200038909912 L -40.384735107421875 8.72072124481201 L -40.34996795654297 8.742567062377928 L -40.32115173339844 8.75910186767578 L -35.393524169921875 11.553699493408201 L -35.369510650634766 11.566300392150877 L -34.076045989990234 12.142822265624996 L -34.06800079345703 12.145999908447262 L -33.45100021362305 12.220999717712399 L -32.981998443603516 12.005999565124508 L -32.768001556396484 11.690835952758787 L -32.652000427246094 11.52000045776367 L -32.422576904296875 10.856455802917479 L -32.4179573059082 10.840521812438963 L -32.236000061035156 10.086000442504881 L -32.24385452270508 10.056642532348631 L -32.741268157958984 8.270710945129393 L -32.768001556396484 8.160887718200682 L -33.14173889160156 6.625522613525389 L -33.14374542236328 6.617289543151854 L -33.152191162109375 6.574619770050047 L -33.46764373779297 5.037888050079345 L -33.702999114990234 3.6040000915527335 L -33.91899871826172 1.6089999675750728 L -33.998661041259766 1.1102230246251565e-16 L -34.00979232788086 -0.22483403980731947 L -34.0099983215332 -0.22900000214576705 L -34.0095329284668 -0.24751234054565413 L -33.99667739868164 -1.366933703422546 L -33.88888931274414 -2.9224548339843746 L -33.887752532958984 -2.935939788818359 L -33.88744354248047 -2.939611434936523 L -33.88593292236328 -2.9502677917480464 L -33.733154296875 -4.152798652648925 L -33.70199966430664 -4.397999763488769 L -33.106689453125 -7.006687164306639 L -33.101287841796875 -7.031288623809813 L -33.09526824951172 -7.049656391143797 L -32.768001556396484 -7.993812084197996 L -32.699302673339844 -8.19200038909912 L -32.67756652832031 -8.254708290100096 L -32.67399978637695 -8.265000343322752 L -32.66361999511719 -8.286746025085447 L -32.1513786315918 -9.463522911071776 L -31.739999771118164 -10.22200012207031 L -31.73165512084961 -10.234178543090819 L -31.25995445251465 -10.966944694519041 L -31.074880599975586 -11.19266605377197 L -30.413467407226562 -11.99934387207031 L -30.405818939208984 -12.00811386108398 L -30.403554916381836 -12.010711669921871 L -30.395854949951172 -12.017522811889645 L -29.40399932861328 -12.954000473022457 L -28.641000747680664 -13.496000289916989 L -27.81999969482422 -13.951999664306637 L -26.959999084472656 -14.31099987030029 L -26.09076690673828 -14.564155578613278 L -26.07125473022461 -14.568744659423825 L -25.20400047302246 -14.723999977111813 L -24.576000213623047 -14.74270153045654 L -23.524999618530273 -14.774000167846676 L -22.006000518798828 -14.5620002746582 L -20.364656448364258 -14.075345039367672 L -20.350000381469727 -14.071000099182125 L -20.325077056884766 -14.059309959411618 L -19.43903160095215 -13.700344085693356 L -18.358177185058594 -13.162388801574703 L -17.372255325317383 -12.579934120178219 L -17.338008880615234 -12.555754661560055 L -16.432188034057617 -11.945610046386717 L -16.384000778198242 -11.909412384033201 L -16.18986701965332 -11.763583183288572 L -16.145998001098633 -11.730628013610838 L -15.597566604614258 -11.318655014038084 L -14.846844673156738 -10.675824165344237 L -14.118189811706543 -10.051889419555662 L -14.091999053955078 -10.027442932128904 L -14.03940200805664 -9.977147102355955 L -13.367932319641113 -9.33505058288574 L -13.119921684265137 -9.097888946533201 L -11.911500930786133 -7.884522914886473 L -11.862163543701172 -7.835386276245115 L -10.516286849975586 -6.473687171936033 L -9.098221778869629 -5.063532829284667 L -8.597844123840332 -4.575021743774413 L -8.404354095458984 -4.391594409942626 L -3.7718427181243896 1.1102230246251565e-16 L -3.0264482498168945 0.7066296339035034 L -2.9679999351501465 0.762000024318695 L -6.378921481268594e-16 3.4753875732421866 L 0.19050873816013336 3.6495532989501944 L 0.23556730151176453 3.690478324890136 L 1.0870000123977661 4.445000171661376 L 1.965132713317871 5.212377071380614 L 2.876887559890747 5.995576381683349 L 3.828197956085205 6.797564983367918 L 3.870189666748047 6.833256244659422 L 3.888564109802246 6.848455905914305 L 4.866000175476074 7.657000064849852 L 4.877789497375488 7.666544914245604 L 4.890223979949951 7.676401138305662 L 4.903380393981934 7.686535358428953 L 8.530621528625488 10.543433189392088 L 8.544611930847168 10.553867340087889 L 9.81137752532959 11.489355087280272 L 9.826467514038086 11.500123023986815 L 10.116236686706543 11.701843261718748 L 11.92884349822998 12.963677406311032 L 11.940999984741211 12.972000122070309 L 12.966477394104004 13.568299293518063 L 12.990822792053223 13.582166671752926 L 14.131999969482422 14.220000267028805 L 15.513999938964844 14.944999694824215 L 17.20400047302246 15.774000167846676 L 18.5350284576416 16.38400077819824 L 19.218000411987305 16.697000503540036 L 21.472000122070312 17.663999557495114 L 23.79400062561035 18.591999053955075 L 25.979999542236328 19.388000488281246 L 27.871000289916992 19.99200057983398 L 29.405000686645508 20.389999389648434 L 30.61199951171875 20.61000061035156 L 31.988000869750977 20.714000701904293 L 32.768001556396484 20.701585769653317 L 32.92784118652344 20.699041366577145 L 33.29799270629883 20.69315147399902 L 33.49599838256836 20.690000534057614 L 34.887367248535156 20.62077713012695 L 34.908843994140625 20.619722366333004 L 36.297245025634766 20.55643272399902 L 36.31483459472656 20.555688858032223 L 38.241188049316406 20.490423202514645 L 38.26499938964844 20.48991203308105 L 40.59778594970703 20.496833801269528 L 40.62216567993164 20.49718856811523 L 42.832332611083984 20.593111038208004 L 42.8489990234375 20.593999862670895 L 44.08363342285156 20.721298217773434 L 45.16699981689453 20.833000183105465 L 48.71809768676758 21.460943222045895 L 48.74455642700195 21.46516609191894 L 48.76251220703125 21.469089508056637 L 51.582820892333984 22.217678070068356 L 51.61907958984375 22.227788925170895 L 55.646820068359375 23.587511062622067 L 55.69196701049805 23.60342216491699 L 58.573585510253906 24.734710693359368 L 58.609222412109375 24.7490005493164 L 62.544010162353516 26.435054779052727 L 62.57929992675781 26.450454711914055 L 65.53600311279297 27.850593566894524 L 65.99986267089844 28.07025527954101 L 66.02622985839844 28.082622528076165 L 66.02985382080078 28.084455490112298 L 66.05030059814453 28.09481239318847 L 68.9566421508789 29.620666503906243 L 68.97830963134766 29.632400512695305 L 72.10221099853516 31.44997596740722 L 72.13715362548828 31.470567703247063 L 74.22074890136719 32.76800155639648 L 74.43830108642578 32.90346527099609 L 74.5073471069336 32.948623657226555 L 78.72693634033203 35.75904464721679 L 82.80016326904297 38.66439819335937 L 82.85356903076172 38.70275497436523 L 84.70575714111328 40.12181091308593 L 84.73593139648438 40.145679473876946 L 88.22572326660156 43.06487655639648 L 88.25357055664062 43.08879852294921 L 90.51811981201172 45.14964294433593 L 90.53618621826172 45.16632080078124 L 91.58775329589844 46.20665740966796 L 92.38837432861328 46.998733520507805 L 92.41437530517578 47.0245018005371 L 95.33357238769531 50.23739624023436 L 95.35344696044922 50.25877761840819 L 95.36609649658203 50.27391052246092 L 95.98178100585938 51.07636642456053 L 96.45486450195312 51.692966461181626 L 96.46399688720703 51.70500183105467 L 97.4795913696289 53.26744461059569 L 97.48542022705078 53.27597808837889 L 97.49361419677734 53.28979873657225 L 98.30400085449219 54.89886093139647 L 98.38262176513672 55.054965972900376 L 98.38999938964844 55.069999694824205 L 99.05354309082031 57.051731109619126 L 99.05766296386719 57.062587738037095 L 99.06221008300781 57.0799102783203 L 99.29492950439453 58.528034210205064 L 99.40436553955078 59.20898818969725 L 99.40699768066406 59.22700119018553 L 99.3941421508789 61.402553558349595 L 99.39456939697266 61.414787292480455 L 99.39326477050781 61.43305587768553 L 99.0560531616211 63.57300949096678 L 99.0530014038086 63.59099960327147 L 98.48477935791016 65.53600311279295 L 98.44300079345703 65.67900085449217 L 97.73143005371094 67.41589355468749 L 97.6311264038086 67.66072845458983 L 97.6268081665039 67.67198944091795 L 96.65572357177734 69.57559967041014 L 96.6369857788086 69.6132125854492 L 95.5363540649414 71.44957733154295 L 95.5270004272461 71.46499633789061 L 94.31758880615234 73.23807525634764 L 94.30039978027344 73.26284790039061 L 92.99803161621094 74.97361755371092 L 92.97528839111328 75.00189208984374 L 90.13322448730469 78.25434112548827 L 90.10875701904297 78.28140258789061 L 86.97892761230469 81.36376190185545 L 86.93383026123047 81.40667724609374 L 83.51129150390625 84.40399932861327 L 83.48193359375 84.42916870117186 L 81.8614273071289 85.74368286132811 L 81.65940856933594 85.90755462646483 L 81.63872528076172 85.9241256713867 L 78.7571029663086 88.10758972167967 L 78.73558044433594 88.1239776611328 L 78.70466613769531 88.14596557617186 L 75.68559265136719 90.26911163330077 L 75.65945434570312 90.2864532470703 L 71.44580078125 92.93667602539061 L 71.40996551513672 92.95851135253905 L 70.13339233398438 93.66495513916014 L 67.0944595336914 95.34667968749999 L 66.01360321044922 95.89847564697264 L 65.53600311279297 96.13552093505857 L 64.93769073486328 96.43247222900388 L 64.87100219726562 96.46800231933591 L 62.73203659057617 97.48358917236325 L 62.705101013183594 97.49617767333982 L 58.50232696533203 99.33353424072263 L 58.452178955078125 99.35536956787107 L 54.33148193359375 100.94549560546872 L 52.281517028808594 101.64760589599607 L 52.21223449707031 101.67283630371091 L 52.1890983581543 101.67978668212888 L 52.178802490234375 101.68278503417966 L 48.06444549560547 102.88128662109372 L 48.01770782470703 102.8927307128906 L 45.934120178222656 103.38420867919919 L 43.83768081665039 103.79855346679685 L 43.80521011352539 103.80437469482419 L 41.69789123535156 104.13961029052732 L 39.58364486694336 104.3977127075195 L 39.5450553894043 104.40255737304685 L 39.541439056396484 104.4028625488281 L 37.43081283569336 104.58253479003903 L 37.41299819946289 104.58399963378903 L 35.299747467041016 104.64530944824216 L 35.26409912109375 104.6460037231445 L 33.1350212097168 104.64303588867185 L 33.06993103027344 104.64438629150388 L 32.768001556396484 104.64411163330075 L 31.980175018310547 104.64340209960935 L 30.85086441040039 104.65328979492185 L 29.6533203125 104.68691253662107 L 29.153125762939453 104.71796417236325 L 28.347000122070312 104.76799774169919 L 27.71087646484375 104.84690093994138 L 26.042890548706055 105.05378723144528 L 26.007577896118164 105.05845642089841 L 22.12421417236328 105.8456115722656 L 22.07752227783203 105.85600280761716 L 22.065391540527344 105.85929870605466 L 22.049320220947266 105.86367034912107 L 22.018150329589844 105.87284851074216 L 12.635580062866211 108.56361389160153 L 12.530628204345703 108.59687805175778 L 9.3928861618042 109.59664154052732 L 6.178999900817871 110.63300323486325 L 5.931977272033691 110.69937896728513 L 5.708773136138916 110.75936126708982 L 3.7097463607788086 111.29654693603513 L 3.6457974910736084 111.31307983398435 L 0 112.21812438964841 L -0.5767548084259033 112.36129760742185 L -0.6176797747612 112.37053680419919 L -4.084721565246582 113.12505340576169 L -4.126713275909424 113.13301086425778 L -7.034248352050781 113.66731262207028 L -7.038000106811523 113.6679992675781 L -7.069168567657471 113.67259979248044 L -9.576000213623047 114.05233001708982 L -13.820307731628418 114.53491210937497 L -13.860532760620117 114.53949737548825 L -13.861063003540039 114.53954315185544 L -17.55996322631836 114.85099792480466 L -17.61077880859375 114.85530090332028 L -17.611719131469727 114.855354309082 L -20.96904182434082 115.06098937988278 L -21.00737762451172 115.06320953369138 L -26.8111629486084 115.212532043457 L -26.855587005615234 115.21382141113278 L -26.859397888183594 115.2137756347656 L -29.371318817138672 115.18217468261716 L -29.417400360107422 115.18190002441403 L -29.42928695678711 115.18144989013669 L -31.735353469848633 115.09388732910153 L -31.79831314086914 115.09008789062497 L -32.768001556396484 115.01279449462888 L -36.07822036743164 114.74892425537107 L -36.10734558105469 114.74533081054685 L -38.17610168457031 114.46943664550778 L -39.99565505981445 114.13914489746091 L -40.02046585083008 114.13471984863278 L -40.02169418334961 114.13441467285153 L -42.66376495361328 113.47908782958982 L -42.69200134277344 113.47200012207028 L -44.31081008911133 112.91525268554685 L -44.33127212524414 112.90802001953122 L -44.33510208129883 112.90666961669919 L -44.3474006652832 112.90106964111325 L -45.98500061035156 112.19499969482419 L -47.10300064086914 111.58000183105466 L -48.51100158691406 110.588996887207 L -49.152000427246094 109.98868560791013 L -49.34600067138672 109.80699920654294 L -50.13999938964844 108.87300109863278 L -51.02000045776367 107.33200073242185 L -51.33700180053711 106.45899963378903 L -51.54999923706055 105.54399871826169 L -51.6510009765625 104.6149978637695 L -51.64506530761719 103.70621490478513 L -51.64386749267578 103.68613433837888 L -51.542999267578125 102.80799865722653 L -51.233001708984375 101.55999755859372 L -50.80400085449219 100.40299987792966 L -50.457000732421875 99.68699645996091 L -49.86800003051758 98.68000030517575 L -49.605247497558594 98.30400085449216 L -48.99100112915039 97.42500305175778 L -47.903221130371094 96.11571502685544 L -47.88063430786133 96.08981323242185 L -46.38246536254883 94.52439880371092 L -45.105812072753906 93.37036895751952 L -45.07697677612305 93.34439086914061 L -42.74221420288086 91.53966522216795 L -42.7239990234375 91.52600097656249 L -40.755001068115234 90.21299743652342 L -37.67100143432617 88.3730010986328 L -36.16899871826172 87.53900146484374 L -35.67100143432617 86.55500030517577 L -35.38999938964844 85.62400054931639 L -35.45500183105469 84.77899932861327 L -35.87799835205078 84.02899932861327 L -36.573001861572266 83.35700225830077 L -37.4109992980957 82.72599792480467 L -38.8845329284668 81.9199981689453 L -39.231544494628906 81.73018646240233 L -39.25493240356445 81.71740722656249 L -39.2554817199707 81.7170944213867 L -39.295169830322266 81.69425201416014 L -42.377532958984375 79.93898010253905 L -42.855411529541016 79.6452178955078 L -46.08883285522461 77.65761566162108 L -46.1247444152832 77.63527679443358 L -48.45889663696289 76.09862518310545 L -48.498077392578125 76.07283782958983 L -48.52716827392578 76.05343627929686 L -51.672821044921875 73.81261444091795 L -51.69556427001953 73.79643249511717 L -51.7318000793457 73.76895141601561 L -55.54990005493164 70.81514739990233 L -55.580101013183594 70.79074096679686 L -55.61392593383789 70.76156616210936 L -61.63823318481445 65.55407714843749 L -61.657989501953125 65.53600311279295 L -61.664798736572266 65.52976989746092 L -64.47354888916016 62.81333160400389 L -64.76397705078125 62.53244781494139 L -64.78997039794922 62.50693511962889 L -65.53600311279297 61.724452972412095 L -67.42139434814453 59.746948242187486 L -67.44682312011719 59.72050094604491 L -67.47138214111328 59.69304275512694 L -71.39627838134766 55.156024932861314 L -71.41999816894531 55.12799835205077 L -73.44999694824219 52.5709991455078 L -76.01300048828125 49.15200042724608 L -78.40899658203125 45.73799896240234 L -81.17591094970703 41.520393371582024 L -81.21070861816406 41.46704483032226 L -83.44164276123047 37.85760116577148 L -83.4673080444336 37.81578826904296 L -85.21863555908203 34.79967880249023 L -85.23405456542969 34.77303314208984 L -85.25682067871094 34.73122024536132 L -86.32928466796875 32.76800155639648 L -87.28800201416016 31.013000488281243 L -87.31266784667969 30.962640762329094 L -87.33893585205078 30.907411575317376 L -90.31690979003906 24.645624160766594 L -90.32605743408203 24.625043869018548 L -90.33892059326172 24.593542098999016 L -91.49394226074219 21.7979564666748 L -91.50688934326172 21.762998580932614 L -91.60368347167969 21.497163772583004 L -92.90616607666016 17.920177459716793 L -92.91621398925781 17.88990974426269 L -94.16023254394531 13.936334609985348 L -94.1770248413086 13.877375602722164 L -94.73970031738281 11.872899055480955 L -96.02030944824219 6.616958618164061 L -96.0328369140625 6.5636439323425275 L -96.8377914428711 2.518102407455444 L -96.8481674194336 2.4633433818817134 L -96.85372161865234 2.4285187721252437 L -97.23175048828125 1.1102230246251565e-16 L -98.04039001464844 -5.194819927215575 L -98.04855346679688 -5.255968570709228 L -98.47476959228516 -8.703232765197752 L -98.4805679321289 -8.757680892944334 L -98.88700103759766 -12.645000457763668 L -99.20468139648438 -16.69397926330566 L -99.20500183105469 -16.69799995422363 L -99.20716857910156 -16.74853706359863 L -99.3940658569336 -20.856378555297848 L -99.39615631103516 -20.96582984924316 L -99.44351196289062 -23.449243545532223 L -99.44449615478516 -24.487575531005852 L -99.44499969482422 -24.524000167846673 L -99.43708801269531 -25.56035423278808 L -99.43482971191406 -25.635248184204094 L -99.41802215576172 -26.668636322021477 L -99.35614013671875 -28.247898101806634 L -99.23804473876953 -31.26202201843261 L -99.23566436767578 -31.29595756530761 L -99.12830352783203 -32.76800155639648 L -98.94196319580078 -35.32271194458007 L -98.93660736083984 -35.37512588500976 L -98.4965591430664 -39.41967773437499 L -98.49237823486328 -39.45016860961913 L -97.52425384521484 -45.56248474121093 L -97.5181655883789 -45.59876632690429 L -97.50816345214844 -45.64724731445312 L -96.71212768554688 -49.448364257812486 L -96.65969848632812 -49.698722839355455 L -96.22254180908203 -51.510837554931626 L -95.99220275878906 -52.465629577636705 L -95.98400115966797 -52.499999999999986 L -95.45999908447266 -54.460998535156236 L -93.72647857666016 -60.129306793212876 L -93.71764373779297 -60.159809112548814 L -93.70994567871094 -60.18425369262694 L -93.70072174072266 -60.211112976074205 L -92.17486572265625 -64.45838928222655 L -92.16400146484375 -64.48799896240233 L -91.74834442138672 -65.53600311279295 L -90.49700164794922 -68.69100189208983 L -90.4753189086914 -68.7279815673828 L -85.69898986816406 -76.7765426635742 L -85.65232849121094 -76.85377502441405 L -85.65192413330078 -76.8544464111328 L -85.61183166503906 -76.91825103759764 L -79.628662109375 -86.44406890869139 L -79.62609100341797 -86.44816589355467 L -79.60662078857422 -86.4784698486328 L -79.5971908569336 -86.49318695068358 L -76.85358428955078 -90.7636032104492 L -76.67403411865234 -91.04306793212889 L -76.66658782958984 -91.05473327636717 L -76.65774536132812 -91.06848907470702 L -76.65670776367188 -91.07003784179686 L -76.6448974609375 -91.08763122558592 L -73.34497833251953 -95.71662139892577 L -73.33736419677734 -95.72736358642577 L -73.32679748535156 -95.74167633056639 L -73.3204574584961 -95.74965667724608 L -73.31805419921875 -95.75267791748045 L -73.29607391357422 -95.77914428710936 L -71.0780029296875 -98.46199798583982 L -71.05193328857422 -98.49167633056638 L -68.90277099609375 -100.92230224609372 L -68.04669952392578 -101.89048767089841 L -65.53600311279297 -104.50804901123044 L -63.30696105957031 -106.83196258544919 L -63.25227737426758 -106.88970947265622 L -63.21916580200195 -106.92186737060544 L -60.44236755371094 -109.59087371826169 L -58.51304626464844 -111.32835388183591 L -58.48108673095703 -111.3569641113281 L -56.62000274658203 -112.86898040771482 L -56.60096740722656 -112.883918762207 L -55.23036575317383 -113.83029174804685 L -55.220603942871094 -113.83690643310544 L -55.21796798706055 -113.83869171142575 L -55.20596694946289 -113.84531402587888 L -54.27640914916992 -114.37931060791013 L -54.26677703857422 -114.38322448730466 L -53.17900085449219 -114.84799957275388 L -53.022762298583984 -114.88829040527341 L -52.00400161743164 -115.15100097656247 L -50.9010009765625 -115.213996887207 L -49.54199981689453 -114.98400115966794 L -49.152000427246094 -114.79611206054685 L -48.11600112915039 -114.29699707031247 L -46.96099853515625 -113.21199798583982 L -46.255001068115234 -112.0220031738281 L -45.91600036621094 -110.9649963378906 L -45.78799819946289 -110.09899902343747 L -45.78472900390625 -109.6294250488281 L -45.78099822998047 -109.0940017700195 L -45.888790130615234 -108.04874420166013 L -45.891300201416016 -108.02947998046872 L -46.13078308105469 -106.8825759887695 L -46.28982162475586 -106.12092590332028 L -47.51604461669922 -101.08748626708982 L -47.53397750854492 -101.0124588012695 L -47.96216583251953 -98.90316009521482 L -47.971099853515625 -98.85275268554685 L -48.06251907348633 -98.30400085449216 L -48.33492660522461 -96.668830871582 L -48.340946197509766 -96.632698059082 L -48.34368896484375 -96.6037673950195 L -48.546409606933594 -95.09867858886717 L -48.69276809692383 -93.28703308105467 L -48.705623626708984 -92.46527099609374 L -48.70556640625 -92.44592285156249 L -48.59579849243164 -91.08224487304686 L -48.593666076660156 -91.06909179687499 L -48.404788970947266 -90.30467987060545 L -48.40104293823242 -90.29494476318358 L -48.03120040893555 -89.47515869140624 L -48.02362060546875 -89.46459960937499 L -47.6260871887207 -88.90489196777342 L -47.611942291259766 -88.89114379882811 L -47.03572082519531 -88.33133697509764 L -47.02540969848633 -88.3225631713867 L -46.230342864990234 -87.72626495361327 L -46.21476745605469 -87.71696472167967 L -45.522544860839844 -87.30261993408202 L -45.512176513671875 -87.29751586914061 L -44.0965690612793 -86.60050964355467 L -44.08342361450195 -86.59435272216795 L -41.7575569152832 -85.62821197509764 L -41.70155334472656 -85.6058883666992 L -41.65750503540039 -85.58915710449217 L -33.13526916503906 -82.34658813476561 L -33.1150016784668 -82.33899688720702 L -33.014381408691406 -82.30546569824217 L -33.011348724365234 -82.30445098876952 L -32.768001556396484 -82.21604919433592 L -31.77820587158203 -81.85648345947264 L -28.975696563720703 -80.88144683837889 L -26.633020401000977 -80.11505126953124 L -24.082677841186523 -79.31999206542967 L -23.978771209716797 -79.28693389892577 L -23.68277931213379 -79.1952667236328 L -18.40045166015625 -77.55934143066405 L -14.192157745361328 -76.16970062255858 L -14.171966552734375 -76.16303253173827 z" fill="none" stroke="rgb(255,0,0)" stroke-width="0.001mm" />
</svg>