<?xml version="1.0" standalone="no"?>
<!DOCTYPE svg PUBLIC "-//W3C//DTD SVG 1.1//EN"
  "http://www.w3.org/Graphics/SVG/1.1/DTD/svg11.dtd">
<svg width="199.4588851928711mm" height="230.9798965454101mm" viewBox="-99.7288818359375 -115.49400329589841 199.4588851928711 230.9798965454101" xmlns="http://www.w3.org/2000/svg" version="1.1">
	<title>svgOutput</title>
	<desc>made with tinkercad</desc>
<path d="M -14.179678916931152 -75.41946411132811 L -14.146161079406738 -75.40780639648436 L -11.844865798950195 -74.42224884033202 L -11.830343246459961 -74.41617584228514 L -11.81644058227539 -74.40844726562499 L -11.164999961853027 -74.01599884033202 L -10.29509449005127 -73.2953643798828 L -10.285011291503906 -73.28700256347655 L -9.259906768798828 -71.6687774658203 L -9.248000144958496 -71.65000152587889 L -9.24799919128418 -71.6499786376953 L -9.178999900817871 -68.94100189208983 L -10.527000427246094 -66.90799713134764 L -11.82699966430664 -66.1169967651367 L -12.720000267028809 -65.81900024414061 L -13.844945907592773 -65.61239624023436 L -13.863173484802246 -65.60929870605467 L -14.639966011047363 -65.53600311279295 L -15.476452827453613 -65.45706939697264 L -15.504000663757324 -65.45571136474608 L -15.509637832641602 -65.45543670654295 L -15.534048080444336 -65.45570373535155 L -20.15047836303711 -65.45372772216795 L -22.113374710083008 -65.53600311279295 L -26.777578353881836 -65.7314987182617 L -26.87176513671875 -65.73522949218749 L -31.494129180908203 -65.76785278320311 L -31.53472328186035 -65.76811218261717 L -31.589082717895508 -65.76683044433592 L -32.768001556396484 -65.7355270385742 L -36.80060958862305 -65.62843322753905 L -36.858524322509766 -65.62516784667967 L -38.01366424560547 -65.53600311279295 L -43.65861892700195 -65.10025787353514 L -43.691001892089844 -65.0970001220703 L -43.71599578857422 -65.09369659423827 L -48.07442092895508 -64.44621276855467 L -48.0914421081543 -64.44351196289061 L -48.12540817260742 -64.43717956542967 L -49.152000427246094 -64.2400665283203 L -50.67383575439453 -63.94786071777342 L -50.71207809448242 -63.93885421752928 L -51.91215515136719 -63.6709632873535 L -52.531673431396484 -63.51042556762694 L -54.21246337890625 -63.074882507324205 L -54.235565185546875 -63.06729888916014 L -55.23299026489258 -62.74009704589842 L -55.23424530029297 -62.739528656005845 L -56.67624282836914 -62.08865356445311 L -56.6845817565918 -62.08486938476561 L -56.69367980957031 -62.07912445068358 L -57.209197998046875 -61.71772003173827 L -57.355003356933594 -61.61550140380858 L -57.85124588012695 -61.144962310791 L -58.33167266845703 -60.548881530761705 L -58.345001220703125 -60.534999847412095 L -58.35131072998047 -60.525260925292955 L -59.38536071777344 -58.71274948120116 L -59.6630859375 -58.22594070434569 L -59.998199462890625 -57.49640655517577 L -60.01100158691406 -57.471000671386705 L -60.065452575683594 -57.34400177001952 L -60.362998962402344 -56.65000152587889 L -60.72800064086914 -55.74399948120116 L -61.108001708984375 -54.74000167846678 L -61.505001068115234 -53.616001129150376 L -61.92399978637695 -52.33900070190428 L -62.369998931884766 -50.868000030517564 L -62.847999572753906 -49.15200042724608 L -63.361000061035156 -47.13800048828124 L -63.915000915527344 -44.759998321533196 L -64.51399993896484 -41.95199966430663 L -64.86799621582031 -36.79999923706054 L -65.10614013671875 -32.76800155639648 L -65.15799713134766 -31.88999938964843 L -65.33699798583984 -27.454999923706048 L -65.37799835205078 -23.690999984741207 L -65.28199768066406 -20.698999404907223 L -65.06900024414062 -18.451999664306637 L -64.76599884033203 -16.8169994354248 L -64.63555908203125 -16.38400077819824 L -64.40299987792969 -15.612000465393063 L -64.0009994506836 -14.666999816894528 L -63.57400131225586 -13.855999946594235 L -63.13199996948242 -13.10400009155273 L -62.68000030517578 -12.374999999999996 L -62.22100067138672 -11.652999877929686 L -61.75899887084961 -10.932000160217283 L -61.27299880981445 -10.217000007629393 L -60.78200149536133 -9.50800037384033 L -60.2869987487793 -8.807000160217283 L -59.84174728393555 -8.19200038909912 L -59.7859992980957 -8.114999771118162 L -59.28200149536133 -7.434000015258787 L -58.77399826049805 -6.76300001144409 L -58.26787185668945 -6.110570907592772 L -58.25905227661133 -6.09927177429199 L -57.74995803833008 -5.457716464996337 L -57.23493576049805 -4.826046466827392 L -57.222984313964844 -4.811398029327392 L -56.70301818847656 -4.189613342285155 L -56.177120208740234 -3.576725244522094 L -56.16489028930664 -3.562489986419677 L -55.630096435546875 -2.9565215110778804 L -55.08739471435547 -2.3574728965759273 L -55.07478713989258 -2.3435473442077632 L -55.074432373046875 -2.343163967132568 L -54.79800033569336 -2.046000003814697 L -54.52121353149414 -1.7484526634216304 L -53.95676040649414 -1.1583007574081416 L -53.946998596191406 -1.1480000019073482 L -53.3650016784668 -0.5550000071525572 L -52.80435562133789 1.1102230246251565e-16 L -52.77583694458008 0.02823223732411872 L -52.75489044189453 0.04843228682875643 L -52.153865814208984 0.6286989450454712 L -52.128936767578125 0.6521036028862 L -51.53900146484375 1.2059999704360962 L -50.9261360168457 1.76682698726654 L -50.91029357910156 1.7813240289688106 L -50.880184173583984 1.8077527284622188 L -50.23862838745117 2.3791224956512447 L -49.582244873046875 2.94653844833374 L -48.91400146484375 3.509999990463256 L -46.83116912841797 5.169740676879882 L -46.81922912597656 5.179433345794677 L -46.81587219238281 5.18192958831787 L -46.78096008300781 5.207903861999511 L -45.332767486572266 6.282434940338133 L -43.07793045043945 7.841345787048338 L -43.06100082397461 7.853000164031981 L -40.77552032470703 9.300207138061522 L -40.73939514160156 9.322908401489256 L -40.73930740356445 9.322964668273924 L -40.72087478637695 9.333701133728026 L -37.103843688964844 11.441246032714842 L -37.067081451416016 11.461331367492674 L -37.05801773071289 11.466022491455076 L -33.573455810546875 13.238455772399899 L -32.8804931640625 13.478668212890621 L -32.86399841308594 13.484999656677243 L -32.86072540283203 13.485521316528317 L -32.768001556396484 13.500279426574703 L -32.242000579833984 13.583999633789059 L -31.750999450683594 13.451000213623043 L -31.437999725341797 13.005999565124508 L -31.322999954223633 12.218999862670895 L -31.323699951171875 12.20656585693359 L -31.547107696533203 9.890441894531248 L -31.548999786376953 9.876000404357908 L -31.554712295532227 9.855525016784666 L -32.24470520019531 7.276452064514158 L -32.25288391113281 7.24003219604492 L -32.7599983215332 4.915999889373778 L -32.768001556396484 4.867384433746337 L -32.99276351928711 3.501511812210082 L -32.99399948120117 3.493999958038329 L -32.99641036987305 3.471632003784179 L -33.156551361083984 2.1588652133941646 L -33.27912139892578 1.1102230246251565e-16 L -33.2919807434082 -0.22645582258701308 L -33.292781829833984 -0.24258252978324873 L -33.292999267578125 -0.24699999392032607 L -33.29253005981445 -0.26557120680809004 L -33.28066635131836 -1.3529533147811885 L -33.17588424682617 -2.862437486648559 L -33.1744499206543 -2.879620790481567 L -33.172935485839844 -2.8902771472930904 L -32.994998931884766 -4.2930002212524405 L -32.99200439453125 -4.307992458343505 L -32.93405532836914 -4.571480751037597 L -32.768001556396484 -5.326505184173583 L -32.52739715576172 -6.420479297637938 L -32.52074432373047 -6.443741798400877 L -32.15522384643555 -7.624043941497801 L -32.15399932861328 -7.627999782562254 L -32.14862060546875 -7.6410880088806135 L -31.93513298034668 -8.19200038909912 L -31.85403823852539 -8.401267051696776 L -31.32221031188965 -9.494580268859862 L -31.320470809936523 -9.497958183288572 L -31.315752029418945 -9.507129669189451 L -31.307710647583008 -9.51887512207031 L -30.672086715698242 -10.5607852935791 L -30.662588119506836 -10.57166004180908 L -29.593000411987305 -11.83500003814697 L -29.48288345336914 -11.922336578369139 L -28.25661849975586 -12.894922256469723 L -28.253999710083008 -12.897000312805172 L -28.240854263305664 -12.903664588928219 L -27.497480392456055 -13.315880775451657 L -26.321130752563477 -13.756765365600582 L -26.310415267944336 -13.760342597961422 L -26.307388305664062 -13.761353492736813 L -26.298166275024414 -13.762993812561032 L -25.106000900268555 -14.020999908447262 L -24.31800079345703 -14.081000328063961 L -22.850034713745117 -13.995986938476559 L -22.825119018554688 -13.993589401245114 L -21.82472801208496 -13.791929244995114 L -21.806856155395508 -13.786641120910641 L -20.58799934387207 -13.411000251770016 L -18.96879005432129 -12.689373970031735 L -18.944276809692383 -12.677880287170407 L -17.531667709350586 -11.83960723876953 L -16.384000778198242 -11.030961990356444 L -16.263385772705078 -10.945977210998533 L -16.234649658203125 -10.926339149475096 L -16.23053741455078 -10.92283248901367 L -16.221046447753906 -10.91474151611328 L -14.099662780761719 -9.07311153411865 L -14.020421981811523 -8.99512195587158 L -8.3858060836792 -3.3990581035614005 L -8.325584411621094 -3.3424153327941886 L -4.787067890167236 1.1102230246251565e-16 L -3.115858793258667 1.5785925388336177 L -3.0992302894592285 1.5942995548248287 L -3.069601058959961 1.6211755275726314 L -3.0384809970855713 1.6482007503509517 L -2.606154203414917 2.037117004394531 L 0 4.381584167480468 L 1.5295125246047974 5.757516860961913 L 2.4448907375335693 6.544385910034178 L 3.4007983207702637 7.350037097930906 L 3.4206199645996094 7.366600990295408 L 4.421999931335449 8.194000244140623 L 5.48799991607666 9.057999610900877 L 6.613999843597412 9.949999809265135 L 7.804999828338623 10.868000030517576 L 8.699462890625 11.534973144531248 L 9.074999809265137 11.814999580383299 L 10.429285049438477 12.782770156860348 L 10.440893173217773 12.791143417358395 L 10.449094772338867 12.796855926513668 L 10.457686424255371 12.802683830261227 L 11.550999641418457 13.550999641418453 L 11.876252174377441 13.764807701110836 L 12.33899974822998 14.069000244140621 L 13.17199993133545 14.598999977111813 L 15.003000259399414 15.512000083923336 L 16.782299041748047 16.38400077819824 L 16.868000030517578 16.42600059509277 L 18.780000686645508 17.333000183105465 L 20.716999053955078 18.209999084472653 L 22.628999710083008 19.023000717163082 L 24.44700050354004 19.738000869750973 L 26.110000610351562 20.326000213623043 L 27.577999114990234 20.773000717163082 L 28.844999313354492 21.08399963378906 L 29.546688079833984 21.209695816040036 L 29.92799949645996 21.277999877929684 L 31.266468048095703 21.400577545166012 L 31.2772159576416 21.40176963806152 L 31.29116439819336 21.402240753173825 L 32.768001556396484 21.41275596618652 L 32.818443298339844 21.41311454772949 L 32.83521270751953 21.4127025604248 L 34.752960205078125 21.326700210571286 L 34.76899719238281 21.32589721679687 L 36.31406784057617 21.243848800659176 L 36.33000183105469 21.243000030517575 L 36.33015060424805 21.242994308471676 L 36.64209747314453 21.232107162475582 L 37.63484573364258 21.197460174560543 L 37.73400115966797 21.19400024414062 L 39.13969039916992 21.176206588745114 L 39.15806579589844 21.176012039184567 L 39.83737564086914 21.186950683593746 L 41.12227249145508 21.20764350891113 L 41.14508819580078 21.208045959472653 L 43.897151947021484 21.382026672363278 L 43.90980529785156 21.382635116577145 L 43.92267608642578 21.38362121582031 L 44.79862594604492 21.498411178588864 L 45.82361602783203 21.632730484008786 L 45.86793899536133 21.639017105102536 L 48.19691467285156 22.06111907958984 L 48.21742630004883 22.06568336486816 L 51.384674072265625 22.887151718139645 L 51.40999984741211 22.89399909973144 L 54.63600158691406 23.96100044250488 L 57.011436462402344 24.85858535766601 L 57.050437927246094 24.87351989746093 L 60.19198226928711 26.160585403442376 L 64.08283233642578 27.91028213500976 L 64.15074920654297 27.93994522094726 L 64.16630554199219 27.94782066345214 L 64.1932601928711 27.96146392822265 L 65.53600311279297 28.633905410766594 L 67.28439331054688 29.509500503540032 L 67.31529235839844 29.52660369873046 L 67.51748657226562 29.644205093383782 L 72.28292083740234 32.4159927368164 L 72.88810729980469 32.76800155639648 L 73.31468200683594 33.01611328124999 L 73.34049224853516 33.03171157836913 L 77.7463607788086 35.9360122680664 L 77.78480529785156 35.96077728271484 L 77.82231140136719 35.98632049560546 L 83.72383117675781 40.247871398925774 L 83.76824951171875 40.28004837036132 L 83.79913330078125 40.30448913574218 L 86.45234680175781 42.44861221313476 L 86.49747467041016 42.48844909667968 L 89.09335327148438 44.77985763549804 L 89.09637451171875 44.78279876708984 L 91.34782409667969 46.97371292114257 L 92.1815185546875 47.784988403320305 L 92.20478057861328 47.80768966674804 L 93.93767547607422 49.694789886474595 L 93.95645904541016 49.714530944824205 L 95.59445190429688 51.71729278564452 L 95.62000274658203 51.7480010986328 L 96.68476104736328 53.34641265869139 L 96.87300109863281 53.629001617431626 L 97.51950073242188 54.88047790527342 L 97.524658203125 54.88996505737303 L 97.53135681152344 54.90535736083983 L 97.95315551757812 55.942409515380845 L 98.08097839355469 56.25667572021483 L 98.30400085449219 57.022663116455064 L 98.36073303222656 57.217529296874986 L 98.36599731445312 57.234001159667955 L 98.63300323486328 58.756000518798814 L 98.7300033569336 60.313999176025376 L 98.68199920654297 61.35800170898436 L 98.45957946777344 62.89219665527342 L 98.45585632324219 62.91589736938475 L 98.30400085449219 63.552509307861314 L 98.23530578613281 63.84049606323241 L 98.09603118896484 64.4243927001953 L 97.7767333984375 65.40995788574217 L 97.7699966430664 65.43299865722655 L 97.72882843017578 65.53600311279295 L 97.19269561767578 66.87724304199217 L 97.18359375 66.89952087402342 L 96.27513122558594 68.7708053588867 L 96.26415252685547 68.79234313964842 L 95.21829223632812 70.60431671142577 L 95.20899963378906 70.62000274658202 L 94.03600311279297 72.39499664306639 L 92.76300048828125 74.11199951171874 L 92.74534606933594 74.13336181640624 L 89.9814224243164 77.36585235595702 L 89.95844268798828 77.39103698730467 L 86.8989486694336 80.45548248291014 L 86.87200164794922 80.48200225830077 L 83.5179214477539 83.46044158935545 L 83.4686050415039 83.50353240966795 L 79.81401824951172 86.42958068847655 L 79.78199768066406 86.45500183105467 L 76.84507751464844 88.59120941162108 L 76.78752136230469 88.63208007812499 L 74.20757293701172 90.36788940429686 L 73.72999572753906 90.68920898437499 L 71.6293716430664 91.98912811279295 L 71.59300231933594 92.01200103759764 L 69.46370697021484 93.24864959716795 L 69.41412353515625 93.27632904052733 L 67.06269836425781 94.52974700927733 L 66.19843292236328 94.99044036865233 L 65.53600311279297 95.31920623779295 L 63.527427673339844 96.31605529785153 L 63.48400115966797 96.33799743652341 L 62.42528533935547 96.83424377441403 L 62.346710205078125 96.86826324462888 L 61.29392623901367 97.34868621826169 L 60.247074127197266 97.81230926513669 L 57.86302185058594 98.80966949462888 L 57.4020881652832 99.00249481201169 L 56.88754653930664 99.19921112060544 L 54.0845832824707 100.2707824707031 L 54.037322998046875 100.2880935668945 L 52.513999938964844 100.81300354003903 L 46.64719772338867 102.46611022949216 L 46.3851203918457 102.53996276855466 L 46.361534118652344 102.54746246337888 L 46.31399917602539 102.55999755859372 L 43.46802520751953 103.12445068359372 L 43.44403839111328 103.12941741943357 L 43.37752151489258 103.13848876953122 L 41.55664825439453 103.43109130859372 L 39.69414138793945 103.64091491699216 L 38.75670623779297 103.74652099609372 L 38.42399978637695 103.78399658203122 L 34.77336120605469 103.97676086425778 L 34.73704528808594 103.97885894775388 L 32.768001556396484 103.9811096191406 L 32.139190673828125 103.98182678222653 L 32.10300064086914 103.98200225830075 L 32.099609375 103.98187255859372 L 28.871000289916992 103.86100006103513 L 26.783098220825195 103.91959381103513 L 26.340999603271484 103.93199920654294 L 24.78700065612793 104.13800048828122 L 22.91900062561035 104.53199768066403 L 20.66900062561035 105.15599822998044 L 18.023000717163086 106.01899719238278 L 11.876999855041504 108.25599670410153 L 11.841394424438477 108.26635742187497 L 2.57887601852417 110.82665252685544 L 2.5056464672088623 110.84651947021482 L 2.459235668182373 110.85771179199216 L 0 111.42192077636716 L -4.951767921447754 112.55798339843747 L -4.986806392669678 112.56533050537107 L -4.989999771118164 112.56600189208982 L -5.025720119476318 112.5721740722656 L -7.803487300872803 113.06050109863278 L -9.446518898010254 113.28430175781247 L -11.287064552307129 113.53499603271482 L -11.32728099822998 113.54042816162107 L -18.86185073852539 114.21459960937497 L -18.906082153320312 114.21897125244138 L -18.955692291259766 114.22259521484372 L -24.728702545166016 114.46478271484372 L -24.78402328491211 114.46685028076169 L -24.791173934936523 114.46711730957028 L -24.82902717590332 114.46711730957028 L -27.985034942626953 114.48580932617185 L -28.000228881835938 114.48589324951169 L -28.06780242919922 114.48251342773435 L -32.768001556396484 114.29546356201169 L -33.30898666381836 114.2739334106445 L -36.75005340576172 113.93881988525388 L -36.78660202026367 113.93464660644528 L -39.07899856567383 113.57482147216794 L -39.103397369384766 113.57067871093747 L -39.116798400878906 113.56776428222653 L -41.94398880004883 112.93016815185544 L -41.9695930480957 112.92290496826169 L -43.53120040893555 112.43891143798825 L -43.5324592590332 112.43852233886716 L -43.54916000366211 112.43235778808591 L -43.56591796875 112.42436981201169 L -45.663578033447266 111.54557037353513 L -46.715370178222656 110.96629333496091 L -46.72908020019531 110.95806884765622 L -48.45124435424805 109.65546417236325 L -48.55093765258789 109.58005523681638 L -48.563018798828125 109.57064819335935 L -49.06321334838867 109.05068206787107 L -49.071998596191406 109.0419998168945 L -49.152000427246094 108.93456268310544 L -49.75803756713867 108.12068939208982 L -49.763511657714844 108.11384582519528 L -49.77061080932617 108.10192108154294 L -50.216712951660156 107.28647613525388 L -50.35087966918945 107.04122924804685 L -50.63656234741211 106.25634002685544 L -50.641998291015625 106.24299621582028 L -50.74647521972656 105.79261779785153 L -50.834999084472656 105.41100311279294 L -50.92396926879883 104.15853118896482 L -50.92502212524414 104.14881896972653 L -50.9244270324707 104.13451385498044 L -50.848941802978516 103.17343139648435 L -50.82854080200195 102.91368103027341 L -50.6759147644043 102.20744323730466 L -50.661476135253906 102.14064788818357 L -50.659000396728516 102.12699890136716 L -50.426998138427734 101.38300323486325 L -49.466148376464844 99.37924957275388 L -49.461021423339844 99.36726379394528 L -49.45273971557617 99.35243225097653 L -49.152000427246094 98.91229248046872 L -48.73636245727539 98.30400085449216 L -48.531429290771484 98.00408172607419 L -48.52179718017578 97.99028015136716 L -48.30134582519531 97.72825622558591 L -46.98067855834961 96.15853118896482 L -46.96995162963867 96.14542388916013 L -46.956382751464844 96.13097381591794 L -45.283790588378906 94.4643096923828 L -45.25836181640625 94.44141387939452 L -44.08727264404297 93.4462432861328 L -43.91593933105469 93.30065155029295 L -42.32737350463867 92.10848236083983 L -42.30699920654297 92.09300231933592 L -42.28477096557617 92.07817077636717 L -39.833106994628906 90.48742675781249 L -39.25294876098633 90.11099243164061 L -35.87613296508789 88.17941284179686 L -35.82400131225586 88.1490020751953 L -34.54100036621094 87.16400146484374 L -34.24550247192383 86.86195373535155 L -33.59400177001953 86.1959991455078 L -33.2130012512207 85.29100036621092 L -33.42900085449219 84.4970016479492 L -34.0890007019043 83.81700134277342 L -34.96699905395508 83.20500183105467 L -37.3450813293457 81.9199981689453 L -39.20296096801758 80.9160919189453 L -39.633846282958984 80.68326568603514 L -39.67900848388672 80.65898132324217 L -39.681968688964844 80.65725708007811 L -42.07710266113281 79.26691436767577 L -42.71873474121094 78.89445495605467 L -42.76300048828125 78.86900329589842 L -46.4175910949707 76.58945465087889 L -46.451751708984375 76.56838226318358 L -48.76985168457031 75.00551605224608 L -48.823204040527344 74.96910858154295 L -51.586143493652344 72.97425842285155 L -51.62588882446289 72.94423675537108 L -54.8910026550293 70.41656494140624 L -54.9451904296875 70.37170410156249 L -59.37281036376953 66.63308715820311 L -60.56802749633789 65.53600311279295 L -61.913333892822266 64.30114746093749 L -61.958744049072266 64.25962066650389 L -61.96100616455078 64.25738525390624 L -65.01231384277344 61.240653991699205 L -65.04100036621094 61.212001800537095 L -65.53600311279297 60.685539245605455 L -67.26519012451172 58.84645080566405 L -67.30343627929688 58.80479812622069 L -68.74471282958984 57.181632995605455 L -71.51457214355469 53.866107940673814 L -71.5510025024414 53.82300186157225 L -71.55819702148438 53.81388473510741 L -72.87464141845703 52.14645385742186 L -72.91205596923828 52.097736358642564 L -75.19852447509766 49.050102233886705 L -75.23535919189453 48.99773788452147 L -77.8104248046875 45.31203842163085 L -78.38678741455078 44.48707962036132 L -80.57638549804688 41.12904739379882 L -80.60293579101562 41.08888626098632 L -82.94081115722656 37.279094696044915 L -82.96961212158203 37.23251342773437 L -82.97296905517578 37.22668075561523 L -82.99473571777344 37.18892288208007 L -85.52242279052734 32.76800155639648 L -85.7003402709961 32.45683288574218 L -85.72404479980469 32.41248703002929 L -87.25198364257812 29.488328933715813 L -87.444091796875 29.12068557739257 L -88.41877746582031 27.116937637329094 L -88.43399810791016 27.086000442504876 L -89.67400360107422 24.337999343872063 L -89.68614959716797 24.308473587036126 L -91.1877212524414 20.591604232788082 L -91.2057113647461 20.54176330566406 L -92.55603790283203 16.69935035705566 L -93.17288208007812 14.73712062835693 L -93.18641662597656 14.69451808929443 L -93.1882553100586 14.688222885131832 L -93.76470947265625 12.711527824401852 L -94.55256652832031 9.720238685607908 L -94.56855773925781 9.659558296203612 L -94.56861877441406 9.6592960357666 L -95.43450927734375 5.940711498260497 L -95.44832611083984 5.87523603439331 L -96.54879760742188 1.1102230246251565e-16 L -96.58019256591797 -0.16764296591281877 L -97.04974365234375 -3.2390031814575186 L -97.0682601928711 -3.364161014556884 L -97.8729248046875 -9.755002021789549 L -97.87932586669922 -9.816818237304686 L -98.26386260986328 -13.71557807922363 L -98.26730346679688 -13.763571739196774 L -98.552001953125 -17.77700042724609 L -98.68248748779297 -20.844406127929684 L -98.68440246582031 -20.897928237915036 L -98.71900177001953 -22.443000793457028 L -98.7288818359375 -23.47502517700195 L -98.72777557373047 -23.552406311035153 L -98.728759765625 -24.58443069458007 L -98.72085571289062 -25.6144790649414 L -98.70404815673828 -26.64155960083007 L -98.66973114013672 -27.58913040161132 L -98.64108276367188 -28.380020141601555 L -98.55675506591797 -30.708370208740227 L -98.41960144042969 -32.76800155639648 L -98.3234634399414 -34.21171569824218 L -98.32107543945312 -34.25552368164062 L -98.31671905517578 -34.30474472045898 L -98.0587158203125 -37.0498924255371 L -97.41419219970703 -41.909500122070305 L -97.40670013427734 -41.96584320068359 L -97.40020751953125 -42.003364562988274 L -96.53425598144531 -46.891643524169915 L -96.52519226074219 -46.93496704101562 L -95.75513458251953 -50.44622421264647 L -95.7447738647461 -50.48887252807616 L -94.77413177490234 -54.173038482666 L -94.40037536621094 -55.59165954589842 L -93.54727172851562 -58.391174316406236 L -93.52899932861328 -58.453998565673814 L -92.46700286865234 -61.59500122070311 L -91.10900115966797 -65.23799896240233 L -90.98778533935547 -65.53600311279295 L -88.80999755859375 -70.88999938964842 L -87.13600158691406 -74.00900268554686 L -86.55925750732422 -74.95364379882811 L -86.00186157226562 -75.86660003662108 L -85.18093872070312 -77.21118927001952 L -85.1780014038086 -77.21600341796874 L -85.17159271240234 -77.22564697265624 L -85.15323638916016 -77.25328063964842 L -85.1310043334961 -77.28563690185545 L -78.0887222290039 -87.69485473632811 L -78.07036590576172 -87.72172546386717 L -78.06572723388672 -87.7285919189453 L -78.05592346191406 -87.74307250976561 L -78.04484558105469 -87.75959014892577 L -78.03630828857422 -87.77243041992186 L -78.02657318115234 -87.78710937499999 L -78.02279663085938 -87.79275512695311 L -78.01579284667969 -87.80323028564452 L -74.26828002929688 -93.37458038330077 L -74.26028442382812 -93.38562774658202 L -74.2598648071289 -93.3861618041992 L -74.251708984375 -93.3966827392578 L -74.22677612304688 -93.42728424072264 L -70.68092346191406 -97.83415222167966 L -70.66072082519531 -97.85773468017575 L -69.34400177001953 -99.38600158691403 L -69.29492950439453 -99.4393615722656 L -67.93866729736328 -100.95971679687497 L -66.61947631835938 -102.34870910644528 L -65.53600311279297 -103.48951721191403 L -63.32421112060547 -105.81834411621091 L -63.26793670654297 -105.87407684326169 L -60.04829788208008 -108.99980926513669 L -57.6629753112793 -111.12514495849607 L -57.62968826293945 -111.15457916259763 L -55.40648651123047 -112.86967468261716 L -55.38798141479492 -112.88376617431638 L -54.582332611083984 -113.4027404785156 L -54.56303787231445 -113.41481018066403 L -53.9630012512207 -113.74299621582028 L -52.96200180053711 -114.16999816894528 L -51.91699981689453 -114.44000244140622 L -50.95000076293945 -114.49400329589841 L -49.76599884033203 -114.2929992675781 L -49.152000427246094 -113.99740600585935 L -48.52799987792969 -113.69699859619138 L -47.525001525878906 -112.75499725341794 L -46.90999984741211 -111.71800231933591 L -46.611000061035156 -110.79100036621091 L -46.609703063964844 -110.78220367431638 L -46.47724151611328 -109.3952941894531 L -46.4915885925293 -109.10620117187497 L -46.50393295288086 -108.85753631591794 L -46.50428009033203 -108.8420486450195 L -46.50429916381836 -108.84122467041013 L -46.50604248046875 -108.82977294921872 L -46.68199920654297 -107.60399627685544 L -47.05170822143555 -105.94920349121091 L -47.0688591003418 -105.8771057128906 L -47.859683990478516 -102.73259735107419 L -48.25577926635742 -100.88726806640622 L -48.65050506591797 -99.0483474731445 L -48.65846633911133 -99.00799560546872 L -48.77973937988281 -98.30400085449216 L -48.977760314941406 -97.15450286865232 L -49.08551025390625 -96.43682861328122 L -49.290138244628906 -94.76028442382811 L -49.295494079589844 -94.71954345703124 L -49.296268463134766 -94.7100372314453 L -49.37160873413086 -93.78735351562499 L -49.409175872802734 -92.89866638183592 L -49.410011291503906 -92.8781280517578 L -49.40012741088867 -92.05764770507811 L -49.398773193359375 -92.04058837890624 L -49.234676361083984 -90.65961456298827 L -49.2311897277832 -90.64645385742186 L -48.88718032836914 -89.57983398437499 L -48.883121490478516 -89.57170104980467 L -48.3433837890625 -88.67312622070311 L -48.33795928955078 -88.66548919677733 L -47.5066032409668 -87.80052185058592 L -47.49590301513672 -87.79047393798827 L -46.59832000732422 -87.13804626464842 L -46.58806228637695 -87.13109588623045 L -46.575321197509766 -87.12406158447264 L -45.44609832763672 -86.46854400634764 L -45.43949890136719 -86.46471405029295 L -45.41891098022461 -86.45545959472655 L -44.984901428222656 -86.24654388427733 L -44.49068069458008 -86.00864410400389 L -42.45773696899414 -85.16075897216795 L -42.45233154296875 -85.15850830078124 L -42.3348274230957 -85.11353302001952 L -35.52287292480469 -82.4959030151367 L -33.93250274658203 -81.9199981689453 L -32.768001556396484 -81.49831390380858 L -29.891220092773438 -80.45657348632811 L -29.849008560180664 -80.44159698486327 L -25.046733856201172 -78.88961029052733 L -24.98432159423828 -78.86969757080077 L -24.89830207824707 -78.84274291992186 L -16.384000778198242 -76.12347412109374 L -14.399151802062988 -75.4895553588867 L -14.179678916931152 -75.41946411132811 z" fill="none" stroke="rgb(255,0,0)" stroke-width="0.001mm" />
</svg>