<?xml version="1.0" standalone="no"?>
<!DOCTYPE svg PUBLIC "-//W3C//DTD SVG 1.1//EN"
  "http://www.w3.org/Graphics/SVG/1.1/DTD/svg11.dtd">
<svg width="219.3969497680664mm" height="251.0709609985351mm" viewBox="-109.69695281982422 -125.53700256347653 219.3969497680664 251.0709609985351" xmlns="http://www.w3.org/2000/svg" version="1.1">
	<title>svgOutput</title>
	<desc>made with tinkercad</desc>
<path d="M 0.6010000109672546 -70.15399932861327 L 0 -66.97377777099608 L -0.10899999737739563 -66.39700317382811 L -0.4076288640499115 -65.53600311279295 L -1.3930000066757202 -62.694999694824205 L -3.75 -59.57199859619139 L -7.019000053405762 -57.13499832153319 L -9.753000259399414 -56.061000823974595 L -11.390000343322754 -55.73300170898436 L -13.1013765335083 -55.52267456054686 L -13.12253475189209 -55.52039337158202 L -15.089893341064453 -55.39299392700194 L -15.129557609558105 -55.39042663574217 L -16.521930694580078 -55.36003494262694 L -17.311189651489258 -55.34280395507811 L -17.336999893188477 -55.341999053955064 L -17.359437942504883 -55.34240341186522 L -23.535274505615234 -55.54578399658202 L -23.588268280029297 -55.54799652099608 L -23.59375762939453 -55.54822540283202 L -23.603708267211914 -55.5484046936035 L -23.661888122558594 -55.549953460693345 L -30.5037784576416 -55.73194503784178 L -30.546316146850586 -55.731540679931626 L -32.768001556396484 -55.670864105224595 L -37.23011016845703 -55.54899597167967 L -37.25664520263672 -55.54788208007811 L -39.48391342163086 -55.41196441650389 L -39.53824234008789 -55.40663909912108 L -41.363712310791016 -55.24294281005858 L -41.95359420776367 -55.1699867248535 L -44.46799850463867 -54.859001159667955 L -44.50372314453125 -54.852443695068345 L -48.99100112915039 -54.02999114990233 L -48.99848175048828 -54.02762603759764 L -49.87297821044922 -53.751213073730455 L -49.880001068115234 -53.74900054931639 L -50.47800064086914 -53.35800170898436 L -51.04199981689453 -52.723999023437486 L -51.6609992980957 -51.57500076293944 L -52.33100128173828 -49.73600006103514 L -53.087974548339844 -47.22399902343749 L -53.09565734863281 -47.19807815551757 L -54.0173225402832 -43.57690429687499 L -54.025020599365234 -43.54536819458007 L -54.03875732421875 -43.482192993164055 L -56.018001556396484 -34.4620018005371 L -56.108909606933594 -33.959968566894524 L -56.32475280761719 -32.76800155639648 L -56.821998596191406 -30.021999359130852 L -57.20199966430664 -26.600999832153313 L -57.22999954223633 -25.256999969482415 L -57.16299819946289 -24.11800003051757 L -57.16182327270508 -24.110307693481438 L -56.800697326660156 -22.301704406738278 L -56.79688262939453 -22.28899002075195 L -56.22642517089844 -20.8355598449707 L -56.2239990234375 -20.82999992370605 L -56.218528747558594 -20.81958198547363 L -55.160945892333984 -18.87506294250488 L -55.14714813232422 -18.85237312316894 L -53.62413024902344 -16.38400077819824 L -53.58557891845703 -16.321519851684567 L -53.57193374633789 -16.30171966552734 L -51.83816146850586 -13.830006599426266 L -51.837738037109375 -13.829401016235348 L -51.8203239440918 -13.806774139404293 L -50.07305145263672 -11.531255722045897 L -50.07124710083008 -11.528906822204588 L -50.057037353515625 -11.512376785278319 L -49.152000427246094 -10.44527244567871 L -48.28415298461914 -9.42201805114746 L -46.90576934814453 -7.941750049591063 L -46.88826370239258 -7.922951221466063 L -46.858638763427734 -7.893753051757811 L -46.37350082397461 -7.399686336517332 L -45.87248992919922 -6.907603740692137 L -45.36354064941406 -6.417504787445067 L -44.30099868774414 -5.475999832153319 L -43.68899917602539 -5.324999809265136 L -43.05099868774414 -5.934000015258788 L -42.64799880981445 -7.071000099182127 L -42.35731506347656 -8.328985214233397 L -42.34901428222656 -8.359131813049315 L -41.802364349365234 -10.252062797546385 L -41.793636322021484 -10.272896766662596 L -41.09122848510742 -12.204520225524899 L -40.492000579833984 -13.52600002288818 L -40.217262268066406 -14.036229133605953 L -40.105987548828125 -14.242877960205075 L -39.763999938964844 -14.87800025939941 L -38.89099884033203 -16.24200057983398 L -38.782405853271484 -16.38400077819824 L -37.854000091552734 -17.597999572753903 L -36.63600158691406 -18.916999816894528 L -35.23500061035156 -20.159999847412106 L -33.6609992980957 -21.281000137329098 L -32.768001556396484 -21.777458190917965 L -31.94499969482422 -22.23500061035156 L -30.13599967956543 -22.989000320434567 L -28.292999267578125 -23.52499961853027 L -26.472000122070312 -23.84700012207031 L -24.725000381469727 -23.975000381469723 L -23.08300018310547 -23.9419994354248 L -21.566999435424805 -23.78199958801269 L -20.191946029663086 -23.530006408691403 L -20.171056747436523 -23.52548027038574 L -18.922000885009766 -23.20899963378906 L -18.90877914428711 -23.204576492309567 L -17.769845962524414 -22.84444427490234 L -17.4003849029541 -22.699977874755856 L -16.384000778198242 -22.302549362182614 L -16.244985580444336 -22.248189926147457 L -16.233177185058594 -22.24335670471191 L -16.226078033447266 -22.239961624145504 L -14.854000091552734 -21.607000350952145 L -14.573283195495605 -21.449415206909176 L -12.866000175476074 -20.490999221801754 L -11.815363883972168 -19.814386367797848 L -10.862945556640625 -19.13777160644531 L -10.833613395690918 -19.116401672363278 L -9.951634407043457 -18.44375610351562 L -9.152000427246094 -17.784999847412106 L -8.412883758544922 -17.14311027526855 L -7.592674732208252 -16.38400077819824 L -7.533881187438965 -16.32958602905273 L -6.947548866271973 -15.75912761688232 L -6.924100399017334 -15.737084388732907 L -6.894073009490967 -15.707098960876461 L -6.213755130767822 -15.027731895446774 L -5.5688886642456055 -14.368975639343258 L -4.964698314666748 -13.750895500183102 L -4.930595874786377 -13.71683311462402 L -4.923688888549805 -13.709878921508786 L -4.343271255493164 -13.125539779663082 L -3.759915351867676 -12.541192054748532 L -3.167630195617676 -11.951883316040037 L -2.867326498031616 -11.65595245361328 L -2.554511070251465 -11.347692489624022 L -1.9126209020614624 -10.721675872802733 L -1.5912184715270996 -10.411650657653807 L -1.2399755716323853 -10.072841644287108 L -0.5435198545455933 -9.40515613555908 L -1.4012839799715866e-15 -8.887231826782225 L 0.17277798056602478 -8.722590446472166 L 0.902965247631073 -8.031094551086424 L 1.6440656185150146 -7.333647251129149 L 2.3931028842926025 -6.631238937377928 L 2.427000045776367 -6.598999977111815 L 2.5012869834899902 -6.529788970947264 L 3.181989908218384 -5.895599365234374 L 3.94293212890625 -5.19120693206787 L 4.709827423095703 -4.487806320190429 L 5.485651016235352 -3.7824218273162833 L 5.5162787437438965 -3.754360914230346 L 5.535567283630371 -3.7370376586914054 L 6.304999828338623 -3.0460000038146964 L 6.941649436950684 -2.483051538467407 L 7.110587120056152 -2.333670616149902 L 7.937008380889893 -1.612412333488464 L 7.953395843505859 -1.5980777740478511 L 8.807596206665039 -0.8649142980575558 L 9.69651985168457 -0.1158770918846129 L 9.71069622039795 -0.10394356399774538 L 9.8363676071167 1.1102230246251565e-16 L 10.168094635009766 0.27437439560890203 L 10.64029598236084 0.6649356484413147 L 11.620492935180664 1.457625389099121 L 11.631999969482422 1.4670000076293945 L 12.670000076293945 2.286999940872192 L 13.767999649047852 3.121000051498412 L 14.954999923706055 3.9700000286102286 L 15.872694969177246 4.614866256713866 L 15.882582664489746 4.621777057647704 L 16.384000778198242 4.96678876876831 L 16.531417846679688 5.068222999572753 L 17.21993637084961 5.537487506866454 L 17.230960845947266 5.545013904571532 L 17.235279083251953 5.5479440689086905 L 18.38279151916504 6.326790332794188 L 18.395824432373047 6.335628032684324 L 18.474287033081055 6.388889789581297 L 19.702423095703125 7.222567558288572 L 19.713842391967773 7.230299472808836 L 19.74442481994629 7.250965118408201 L 20.04623031616211 7.454903602600096 L 20.698999404907227 7.895999908447264 L 21.79599952697754 8.579999923706053 L 21.821557998657227 8.594349861145018 L 22.906917572021484 9.251121520996092 L 23.98235511779785 9.859280586242674 L 25.031999588012695 10.397000312805174 L 26.038984298706055 10.843445777893065 L 26.052576065063477 10.848863601684569 L 27.005985260009766 11.19510746002197 L 27.900861740112305 11.441148757934569 L 28.742164611816406 11.597901344299315 L 28.761167526245117 11.6023473739624 L 28.772785186767578 11.603606224060057 L 29.557825088500977 11.688660621643065 L 30.694774627685547 11.724375724792479 L 30.704038619995117 11.724991798400877 L 30.710020065307617 11.724855422973631 L 32.17532730102539 11.691260337829588 L 32.20020294189453 11.690415382385252 L 32.768001556396484 11.663163185119627 L 36.70633316040039 11.474137306213377 L 36.738285064697266 11.472842216491697 L 40.5558967590332 11.413315773010252 L 40.58000183105469 11.413000106811522 L 40.606380462646484 11.414160728454588 L 43.239418029785156 11.517339706420897 L 43.261253356933594 11.519883155822752 L 45.35161590576172 11.695485115051268 L 47.25661087036133 11.985164642333983 L 49.24660873413086 12.287770271301266 L 49.27092361450195 12.291766166687008 L 51.2392578125 12.721345901489254 L 53.42485809326172 13.300734519958493 L 53.45209503173828 13.307431221008297 L 53.464027404785156 13.311118125915524 L 56.05934143066406 14.113018035888668 L 56.09113693237305 14.123159408569332 L 60.78874206542969 15.849416732788082 L 60.81525421142578 15.859328269958493 L 60.84769821166992 15.872794151306149 L 64.3845443725586 17.33912086486816 L 64.42962646484375 17.35945129394531 L 65.53600311279297 17.85836029052734 L 68.33807373046875 19.12192916870117 L 68.37214660644531 19.1374397277832 L 70.96253967285156 20.410848617553707 L 70.96749114990234 20.41328430175781 L 71.0103530883789 20.435815811157223 L 72.30802154541016 21.113422393798825 L 75.28333282470703 22.7870979309082 L 78.54635620117188 24.772294998168938 L 78.5943374633789 24.801935195922844 L 83.64888000488281 28.14626502990722 L 83.86637115478516 28.29016685485839 L 83.8987808227539 28.312011718749993 L 87.53681945800781 30.890485763549798 L 87.55416107177734 30.902727127075188 L 87.58360290527344 30.92485618591308 L 90.01268768310547 32.76800155639648 L 90.5450210571289 33.171924591064446 L 90.54900360107422 33.17494583129882 L 90.56902313232422 33.19142913818359 L 92.80819702148438 35.01094436645507 L 92.82359313964844 35.02435302734374 L 95.68353271484375 37.54782485961913 L 95.75823211669922 37.61373901367187 L 95.76969909667969 37.62432479858398 L 98.23507690429688 40.00933837890624 L 98.24626922607422 40.02013397216796 L 98.26555633544922 40.039863586425774 L 98.30400085449219 40.08009719848632 L 101.39960479736328 43.319751739501946 L 101.40799713134766 43.32899856567382 L 103.22699737548828 45.506999969482415 L 104.35299682617188 47.04999923706054 L 105.48400115966797 48.80199813842772 L 106.2229995727539 50.14099884033202 L 106.91899871826172 51.6230010986328 L 107.53900146484375 53.24200057983397 L 108.0479965209961 54.97499847412108 L 108.41999816894531 56.78599929809569 L 108.63800048828125 58.63600158691405 L 108.69999694824219 60.486999511718736 L 108.61299896240234 62.30300140380858 L 108.3949966430664 64.05899810791014 L 108.10346221923828 65.53600311279295 L 108.06300354003906 65.74099731445311 L 107.63899993896484 67.34100341796874 L 107.63288116455078 67.35865783691405 L 105.99095153808594 71.64453887939452 L 105.98400115966797 71.66100311279295 L 105.01868438720703 73.56880950927733 L 105.00836181640625 73.5889205932617 L 105 73.60297393798827 L 103.97615051269531 75.41058349609374 L 103.25984954833984 76.56042480468749 L 103.10712432861328 76.78278350830077 L 101.94332885742188 78.47716522216795 L 101.93458557128906 78.49060821533202 L 101.9251708984375 78.5036163330078 L 101.92229461669922 78.50758361816405 L 100.15436553955078 80.85985565185545 L 100.13816833496094 80.87979888916014 L 96.33940887451172 85.17063903808592 L 96.32591247558594 85.1857223510742 L 96.3048324584961 85.20703124999999 L 93.85037231445312 87.62181091308592 L 91.77191925048828 89.5276412963867 L 91.75 89.54799652099608 L 91.7442626953125 89.55299377441405 L 91.7386245727539 89.55790710449217 L 85.77311706542969 94.45491790771483 L 85.75334930419922 94.47115325927733 L 85.7532958984375 94.47119140624999 L 85.72853088378906 94.49036407470702 L 83.57964324951172 96.08467102050778 L 83.56220245361328 96.09725189208982 L 80.47378540039062 98.23126983642575 L 80.3569564819336 98.30400085449216 L 75.50335693359375 101.32563018798825 L 75.46681213378906 101.34972381591794 L 75.447998046875 101.36100006103513 L 75.43494415283203 101.36822509765622 L 72.17208099365234 103.17356872558591 L 72.14364624023438 103.18920135498044 L 70.06717681884766 104.26860809326169 L 68.30718994140625 105.13173675537107 L 68.26053619384766 105.15464019775388 L 68.25955963134766 105.15509796142575 L 65.6552734375 106.36698913574216 L 65.63025665283203 106.37794494628903 L 65.53600311279297 106.41910552978513 L 62.48826599121094 107.75002288818357 L 62.46794509887695 107.7583312988281 L 58.344505310058594 109.3786697387695 L 57.931060791015625 109.54113769531247 L 55.639305114746094 110.34672546386716 L 55.59377670288086 110.36301422119138 L 52.96966552734375 111.18844604492185 L 52.94150924682617 111.19667053222653 L 50.27275466918945 111.94074249267575 L 47.257755279541016 112.63521575927732 L 47.229000091552734 112.6419982910156 L 47.224510192871094 112.64287567138669 L 45.40353012084961 112.99716949462888 L 45.38413619995117 113.00082397460935 L 44.16087341308594 113.20717620849607 L 42.93661880493164 113.39071655273435 L 42.9073486328125 113.39473724365232 L 41.680118560791016 113.55545806884763 L 39.840763092041016 113.75090026855466 L 38.003387451171875 113.90170288085935 L 37.97169494628906 113.90438079833982 L 37.969215393066406 113.90450286865232 L 36.137298583984375 113.99862670898435 L 33.699703216552734 114.05319213867185 L 33.66334915161133 114.05387115478513 L 32.768001556396484 114.04753112792966 L 31.84284210205078 114.04097747802732 L 30.632476806640625 114.00426483154294 L 29.427072525024414 113.94672393798825 L 29.393428802490234 113.94538116455075 L 29.37757682800293 113.9443664550781 L 28.35784339904785 113.87873840332028 L 28.19099998474121 113.86799621582028 L 26.878999710083008 113.90399932861325 L 25.53397560119629 113.99227905273435 L 25.533708572387695 113.99229431152341 L 25.511579513549805 113.99450683593747 L 24.07699966430664 114.18399810791013 L 22.500999450683594 114.51799774169919 L 20.768142700195312 115.01680755615232 L 20.763999938964844 115.01799774169919 L 20.748987197875977 115.02325439453122 L 20.724519729614258 115.03300476074216 L 17.39674186706543 116.26867675781247 L 16.815635681152344 116.48445129394528 L 11.828338623046875 118.4845275878906 L 11.79699993133545 118.49700164794919 L 8.961000442504883 119.42700195312497 L 8.656513214111328 119.51409149169919 L 6.324999809265137 120.18099975585935 L 6.29732608795166 120.18809509277341 L 0 121.73789215087888 L -0.26146161556243896 121.80224609374997 L -0.293329119682312 121.80956268310544 L -4.699254989624023 122.71138763427732 L -4.729858875274658 122.71745300292966 L -7.673426151275635 123.20060729980466 L -7.7002387046813965 123.20468139648435 L -7.706699848175049 123.20566558837888 L -7.752783298492432 123.21027374267575 L -14.856833457946777 123.96569061279294 L -15.533841133117676 124.03768157958982 L -20.001277923583984 124.3382873535156 L -20.035736083984375 124.34078979492185 L -20.060890197753906 124.34193420410153 L -24.167200088500977 124.49967956542966 L -24.199724197387695 124.50022888183591 L -26.198902130126953 124.52220916748044 L -27.267303466796875 124.53395843505857 L -32.5452880859375 124.3861389160156 L -32.58506774902344 124.3852844238281 L -32.605594635009766 124.3840637207031 L -32.768001556396484 124.37055206298825 L -37.4599494934082 123.98027801513669 L -37.49870681762695 123.97605895996091 L -41.257781982421875 123.41056060791013 L -41.27427291870117 123.40777587890622 L -41.28889083862305 123.40468597412107 L -43.28499984741211 122.98799896240232 L -43.3004150390625 122.98390960693357 L -44.6953125 122.62774658203122 L -45.012481689453125 122.52957916259763 L -46.72118377685547 122.00073242187497 L -46.73447799682617 121.99652099609372 L -48.49545669555664 121.33974456787107 L -48.51791000366211 121.33067321777341 L -49.152000427246094 121.04469299316403 L -50.198265075683594 120.57283020019528 L -50.19853210449219 120.57270812988278 L -50.2202262878418 120.56084442138669 L -52.036766052246094 119.5697326660156 L -52.044639587402344 119.56441497802732 L -53.50699996948242 118.61199951171872 L -53.515220642089844 118.60571289062497 L -53.74476623535156 118.41679382324216 L -55.61748504638672 116.87548828124997 L -55.625999450683594 116.86799621582028 L -56.720001220703125 115.73899841308591 L -57.79399871826172 114.40699768066403 L -58.79800033569336 112.8649978637695 L -59.67300033569336 111.12799835205075 L -60.36199951171875 109.23400115966794 L -60.823001861572266 107.24800109863278 L -61.040000915527344 105.2460021972656 L -61.02399826049805 103.29900360107419 L -60.80799865722656 101.46099853515622 L -60.433998107910156 99.765998840332 L -59.97161865234375 98.30400085449216 L -59.94599914550781 98.22299957275388 L -59.37900161743164 96.82800292968747 L -58.4370002746582 94.99600219726561 L -57.44499969482422 93.38200378417967 L -56.76599884033203 92.4250030517578 L -56.056236267089844 91.5244903564453 L -55.74711227416992 91.13229370117186 L -55.73352813720703 91.11557006835936 L -53.22053146362305 88.37637329101561 L -53.211971282958984 88.36712646484374 L -53.20018005371094 88.35453796386717 L -52.46900177001953 87.54299926757811 L -51.979000091552734 86.5699996948242 L -51.98152542114258 86.5436325073242 L -52.05331039428711 85.79393005371092 L -52.06878662109375 85.63232421874999 L -52.084999084472656 85.46299743652342 L -52.27251052856445 85.21767425537108 L -52.56145095825195 84.83963775634764 L -52.79167556762695 84.53842926025389 L -52.79199981689453 84.53800201416014 L -52.80769348144531 84.52652740478514 L -52.82326889038086 84.51536560058592 L -58.1687126159668 80.61342620849608 L -58.1873779296875 80.59935760498045 L -60.92557907104492 78.4613800048828 L -60.9628791809082 78.43118286132811 L -64.27153778076172 75.69694519042967 L -65.53600311279297 74.5809860229492 L -67.07621002197266 73.22164916992186 L -67.09516906738281 73.20520782470702 L -67.10041046142578 73.20029449462889 L -67.12913513183594 73.17337799072264 L -70.3266830444336 70.16036224365233 L -72.82876586914062 67.61859893798827 L -72.85427856445312 67.59217071533202 L -74.72600555419922 65.53600311279295 L -76.2671127319336 63.843017578124986 L -76.28700256347656 63.8209991455078 L -76.30513763427734 63.79941558837889 L -78.02643585205078 61.768581390380845 L -78.3431625366211 61.37455368041991 L -80.58308410644531 58.58790206909178 L -80.60042572021484 58.56619262695311 L -80.61676788330078 58.544494628906236 L -84.32425689697266 53.55422210693358 L -84.3453598022461 53.52455902099608 L -86.66687774658203 50.15240097045897 L -86.7012710571289 50.09978103637694 L -90.08831024169922 44.83766937255859 L -90.10794830322266 44.805225372314446 L -92.36002349853516 41.06202316284179 L -94.46129608154297 37.33668136596679 L -94.47903442382812 37.305130004882805 L -94.49007415771484 37.284160614013665 L -94.49781036376953 37.26860046386718 L -96.78456115722656 32.76800155639648 L -97.45426940917969 31.449920654296868 L -97.46263122558594 31.432081222534173 L -97.95093536376953 30.32002639770507 L -99.69088745117188 26.357477188110344 L -99.70145416259766 26.333160400390618 L -99.71051788330078 26.310342788696282 L -101.47248840332031 21.549245834350582 L -101.48111724853516 21.52510833740234 L -101.4815902709961 21.523797988891598 L -101.48719787597656 21.506589889526364 L -102.71924591064453 17.751260757446286 L -102.72633361816406 17.72965621948242 L -103.36226654052734 15.547031402587887 L -103.37239837646484 15.512296676635739 L -103.7699966430664 14.040200233459469 L -103.96269989013672 13.326695442199703 L -104.75638580322266 10.065655708312987 L -104.76551818847656 10.028836250305174 L -104.772216796875 9.99695301055908 L -105.67816925048828 5.723917484283446 L -105.67900085449219 5.7199997901916495 L -105.68488311767578 5.686955928802489 L -105.7317123413086 5.429183959960937 L -106.29998779296875 2.3009107112884517 L -106.303955078125 2.274832487106323 L -106.63577270507812 1.1102230246251565e-16 L -107.32780456542969 -4.744290828704833 L -107.77325439453125 -8.499398231506346 L -108.09271240234375 -11.581859588623045 L -108.10372161865234 -11.681307792663572 L -108.10502624511719 -11.700703620910643 L -108.10547637939453 -11.707323074340819 L -108.54199981689453 -17.65200042724609 L -108.60436248779297 -19.109754562377926 L -108.61343383789062 -19.321708679199215 L -108.61425018310547 -19.343923568725582 L -108.69659423828125 -24.108991622924798 L -108.69695281982422 -24.144674301147454 L -108.62353515625 -28.312494277954094 L -108.6229476928711 -28.341196060180657 L -108.4126205444336 -32.711406707763665 L -108.40978240966797 -32.761280059814446 L -108.16473388671875 -36.01934432983398 L -108.16100311279297 -36.056377410888665 L -107.81476593017578 -39.34618759155273 L -107.18775177001953 -43.86819076538085 L -107.18340301513672 -43.89965438842773 L -107.183349609375 -43.899978637695305 L -107.17850494384766 -43.92793655395507 L -106.5604248046875 -47.48561477661132 L -106.55596160888672 -47.50783920288085 L -105.46068572998047 -52.59831619262694 L -105.4549560546875 -52.62308502197264 L -103.98664855957031 -58.200683593749986 L -103.97599792480469 -58.241001129150376 L -102.2130355834961 -63.816616058349595 L -102.20230102539062 -63.851047515869126 L -102.20112609863281 -63.854267120361314 L -101.58845520019531 -65.53600311279295 L -100.84114074707031 -67.58730316162108 L -100.8270034790039 -67.62699890136717 L -100.82597351074219 -67.62892913818358 L -100.79673767089844 -67.68383789062499 L -95.46617126464844 -77.60883331298827 L -95.43037414550781 -77.67224121093749 L -92.43025970458984 -82.9373321533203 L -88.54022979736328 -89.38797760009764 L -88.51307678222656 -89.43353271484374 L -88.50550842285156 -89.44555664062499 L -88.48542785644531 -89.47744750976561 L -85.52400207519531 -94.18199920654295 L -85.51710510253906 -94.19234466552733 L -83.46141815185547 -97.27537536621091 L -83.43771362304688 -97.31047058105466 L -83.4308090209961 -97.31986236572263 L -81.5031509399414 -100.00350189208982 L -81.49394226074219 -100.015510559082 L -80.84710693359375 -100.83476257324216 L -78.78054809570312 -103.4521560668945 L -78.75187683105469 -103.4872131347656 L -76.3658676147461 -106.32363128662107 L -76.35032653808594 -106.340950012207 L -69.81733703613281 -113.24598693847653 L -69.79419708251953 -113.2705383300781 L -69.79280090332031 -113.27191162109372 L -69.75761413574219 -113.30667877197263 L -65.733642578125 -117.14412689208982 L -65.71157836914062 -117.16429138183591 L -65.53600311279297 -117.32065582275388 L -64.99527740478516 -117.80221557617185 L -62.17969512939453 -120.12274169921872 L -62.164791107177734 -120.13503265380857 L -62.164737701416016 -120.13507080078122 L -62.14331817626953 -120.150276184082 L -59.922000885009766 -121.69200134277341 L -58.362998962402344 -122.58499908447263 L -56.744998931884766 -123.3450012207031 L -55.21200180053711 -123.88999938964841 L -53.11199951171875 -124.36799621582028 L -50.244998931884766 -124.53700256347653 L -49.152000427246094 -124.35282897949216 L -46.606998443603516 -123.92400360107419 L -42.74100112915039 -122.06500244140622 L -39.61199951171875 -119.12400054931638 L -37.72800064086914 -115.94000244140622 L -37.724571228027344 -115.92348480224607 L -36.95668411254883 -111.91241455078122 L -36.95310592651367 -111.88973999023435 L -36.95082473754883 -111.86744689941403 L -36.33671569824219 -106.05868530273435 L -36.332489013671875 -106.0244216918945 L -36.016998291015625 -103.81600189208982 L -35.577999114990234 -101.73500061035153 L -35.129154205322266 -100.3299865722656 L -35.0099983215332 -99.95700073242185 L -34.29199981689453 -98.42800140380857 L -34.21565246582031 -98.30400085449216 L -33.41400146484375 -97.00199890136716 L -32.768001556396484 -96.1268615722656 L -31.308000564575195 -94.1490020751953 L -30.117000579833984 -92.8669967651367 L -30.0953369140625 -92.85034942626952 L -26.958309173583984 -90.48319244384764 L -26.94532585144043 -90.47507476806639 L -25.729999542236328 -89.73100280761717 L -25.716991424560547 -89.72488403320311 L -25.709482192993164 -89.72203826904295 L -23.131999969482422 -88.5960006713867 L -20.068349838256836 -87.58065795898436 L -19.33919334411621 -87.33900451660155 L -19.269535064697266 -87.31642150878905 L -13.687967300415039 -85.53758239746092 L -13.666864395141602 -85.53060150146483 L -11.552276611328125 -84.81399536132811 L -11.283835411071777 -84.72303009033202 L -11.245104789733887 -84.70749664306639 L -10.156296730041504 -84.29565429687499 L -9.757943153381348 -84.14498138427733 L -7.614930629730225 -83.25217437744139 L -6.736000061035156 -82.88600158691405 L -5.421321392059326 -82.02064514160155 L -4.919000148773193 -81.69000244140624 L -3.128619432449341 -79.85703277587889 L -2.8589999675750732 -79.58100128173827 L -2.3168036937713623 -78.7280807495117 L -1.2239999771118164 -77.00900268554686 L -0.23157143592834473 -74.11972045898436 L -0.08500000089406967 -73.69300079345702 L -0.08195698261260986 -73.6772994995117 L 0 -73.25449371337889 L 0.6010000109672546 -70.15399932861327 z" fill="none" stroke="rgb(255,0,0)" stroke-width="0.001mm" />
</svg>