<?xml version="1.0" standalone="no"?>
<!DOCTYPE svg PUBLIC "-//W3C//DTD SVG 1.1//EN"
  "http://www.w3.org/Graphics/SVG/1.1/DTD/svg11.dtd">
<svg width="222.23404693603516mm" height="253.94192504882807mm" viewBox="-111.11404418945312 -126.97499847412107 222.23404693603516 253.94192504882807" xmlns="http://www.w3.org/2000/svg" version="1.1">
	<title>svgOutput</title>
	<desc>made with tinkercad</desc>
<path d="M 8.847787857055664 -2.668838739395141 L 8.875471115112305 -2.6444587707519527 L 9.720037460327148 -1.9189848899841304 L 10.599339485168457 -1.1786243915557857 L 11.044883728027344 -0.8104616403579709 L 11.519331932067871 -0.41841518878936745 L 12.036260604858398 1.1102230246251565e-16 L 12.487954139709473 0.3656126260757447 L 13.505205154418945 1.1694892644882202 L 13.54210376739502 1.1991838216781616 L 14.601037979125977 2.0109999179840083 L 15.699668884277344 2.8257935047149654 L 16.55614471435547 3.439121484756469 L 16.5823917388916 3.4575068950653067 L 17.176864624023438 3.8693695068359366 L 17.883481979370117 4.319937229156493 L 18.605541229248047 4.778465270996093 L 18.62582778930664 4.791346549987792 L 18.651636123657227 4.807259559631347 L 19.471391677856445 5.319358825683593 L 20.407262802124023 5.8959665298461905 L 21.492000579833984 6.547999858856199 L 21.51167869567871 6.559135437011717 L 22.74726676940918 7.276669979095457 L 23.276575088500977 7.557865142822264 L 25.47846221923828 8.727617263793944 L 25.4991455078125 8.737565994262694 L 26.83099937438965 9.336999893188475 L 28.051000595092773 9.788999557495115 L 29.121999740600586 10.079999923706053 L 30.46576499938965 10.261616706848143 L 30.479167938232422 10.263218879699705 L 32.04126739501953 10.276121139526365 L 32.768001556396484 10.237460136413572 L 33.500457763671875 10.19849395751953 L 33.51504135131836 10.197718620300291 L 33.53926467895508 10.19675827026367 L 33.5583610534668 10.19590377807617 L 38.1915397644043 10.015134811401365 L 38.23870849609375 10.013295173645018 L 38.257266998291016 10.012901306152342 L 42.58926773071289 10.07741069793701 L 42.607418060302734 10.077667236328123 L 42.628517150878906 10.07886219024658 L 46.465293884277344 10.420261383056639 L 46.481998443603516 10.421999931335447 L 46.49732208251953 10.42432117462158 L 50.536556243896484 11.12796115875244 L 50.56733703613281 11.134681701660154 L 52.58100128173828 11.618000030517576 L 52.5979118347168 11.622815132141112 L 57.44399642944336 13.11147594451904 L 57.4640007019043 13.118000030517575 L 57.47965621948242 13.123700141906735 L 61.090152740478516 14.472426414489743 L 61.11860275268555 14.483751296997067 L 64.58731842041016 15.906864166259762 L 64.59710693359375 15.910880088806149 L 64.65164184570312 15.935479164123532 L 65.53600311279297 16.328895568847653 L 68.10731506347656 17.472768783569332 L 70.03479766845703 18.4232006072998 L 72.49092864990234 19.634304046630856 L 72.50599670410156 19.642000198364254 L 75.2402114868164 21.199211120605465 L 77.65180206298828 22.57267570495605 L 77.666748046875 22.580818176269528 L 80.0793685913086 24.099250793457024 L 80.11751556396484 24.122112274169915 L 82.6085433959961 25.75566864013671 L 82.6530990600586 25.785379409790032 L 84.69058227539062 27.165863037109368 L 89.11090850830078 30.319837570190423 L 89.14041137695312 30.34102821350097 L 92.15941619873047 32.67822647094726 L 92.18099975585938 32.69499969482421 L 92.26886749267578 32.76800155639648 L 94.45071411132812 34.580635070800774 L 94.47228240966797 34.598743438720696 L 94.48497772216797 34.610149383544915 L 97.44145965576172 37.27882003784179 L 97.46326446533203 37.29983901977538 L 98.30400085449219 38.11799240112304 L 99.42134857177734 39.20532226562499 L 103.18070983886719 43.244556427001946 L 103.19145202636719 43.25560760498046 L 103.20468139648438 43.270313262939446 L 103.20800018310547 43.27399826049804 L 104.79788970947266 45.2889060974121 L 105.12699890136719 45.706001281738274 L 106.30502319335938 47.46758270263671 L 106.31099700927734 47.47621536254882 L 106.32289123535156 47.49645996093749 L 107.48999786376953 49.526000976562486 L 108.22699737548828 51.09500122070311 L 108.88600158691406 52.81299972534178 L 109.427001953125 54.65299987792967 L 109.822998046875 56.578998565673814 L 110.05500030517578 58.54700088500975 L 110.12000274658203 60.513000488281236 L 110.02799987792969 62.43999862670897 L 109.7959976196289 64.2990036010742 L 109.55138397216797 65.53600311279295 L 109.44499969482422 66.07399749755858 L 109.18045043945312 67.07288360595702 L 108.9990005493164 67.75800323486327 L 108.19115447998047 70.0842819213867 L 108.18720245361328 70.09631347656249 L 108.18042755126953 70.11305236816405 L 107.45706176757812 71.82345581054686 L 107.26837158203125 72.26962280273436 L 106.61038208007812 73.61041259765624 L 106.60299682617188 73.62599945068358 L 105.90899658203125 74.91699981689452 L 103.68990325927734 78.48184204101561 L 103.67001342773438 78.5132369995117 L 102.48503875732422 80.16465759277342 L 102.47280883789062 80.18111419677733 L 99.975830078125 83.27653503417967 L 99.96305084228516 83.29210662841795 L 99.94983673095703 83.30686187744139 L 98.24581909179688 85.18685150146483 L 97.33575439453125 86.19089508056639 L 97.32559967041016 86.20151519775389 L 93.36186981201172 90.01114654541014 L 93.19010162353516 90.17623901367186 L 93.17972564697266 90.1864776611328 L 93.16558074951172 90.19973754882811 L 90.9861831665039 92.09231567382811 L 90.96600341796875 92.11000061035155 L 87.63800048828125 94.80999755859374 L 84.38899993896484 97.26300048828122 L 82.86656188964844 98.30400085449216 L 80.8112564086914 99.70936584472653 L 80.79401397705078 99.72143554687497 L 80.79090118408203 99.72344970703122 L 80.76268768310547 99.74163818359372 L 80.74896240234375 99.74977874755857 L 76.75141143798828 102.25965881347653 L 76.73070526123047 102.27120208740232 L 72.50389862060547 104.62329101562497 L 70.70063781738281 105.55221557617185 L 70.6574478149414 105.57392120361325 L 68.58126068115234 106.5862121582031 L 65.53600311279297 107.96671295166013 L 64.2115478515625 108.56712341308591 L 64.18498229980469 108.57906341552732 L 64.16746520996094 108.58640289306638 L 61.29037857055664 109.79122161865232 L 61.26409149169922 109.80138397216794 L 56.93506622314453 111.41707611083982 L 56.90835189819336 111.42625427246091 L 54.260520935058594 112.30456542968747 L 54.23997497558594 112.31066131591794 L 51.37337112426758 113.13360595703122 L 51.22890853881836 113.1750793457031 L 49.39487838745117 113.63656616210935 L 49.36930465698242 113.64306640624997 L 45.6516227722168 114.414192199707 L 43.777896881103516 114.71887207031247 L 43.7400016784668 114.72599792480466 L 43.712745666503906 114.72946166992185 L 40.60984420776367 115.12397003173825 L 40.58123016357422 115.1274490356445 L 38.74510955810547 115.28854370117185 L 38.70353317260742 115.29219055175778 L 36.82980728149414 115.41227722167966 L 35.58330154418945 115.46189880371091 L 35.54290008544922 115.46411132812497 L 34.29838180541992 115.49190521240232 L 33.057830810546875 115.49785614013669 L 32.768001556396484 115.48980712890622 L 31.808334350585938 115.46315002441403 L 31.807355880737305 115.46311950683591 L 31.785999298095703 115.46299743652341 L 29.840816497802734 115.45009613037107 L 29.83111000061035 115.44992828369138 L 29.829036712646484 115.45001983642575 L 29.809587478637695 115.45084381103513 L 27.655000686645508 115.56199645996091 L 25.91699981689453 115.81700134277341 L 23.829999923706055 116.28500366210935 L 21.329999923706055 116.9960021972656 L 18.424999237060547 117.93199920654294 L 11.821000099182129 120.21199798583982 L 8.412931442260742 121.15792083740232 L 7.651758193969727 121.36918640136716 L 7.610111713409424 121.38066101074216 L 0.8089186549186707 123.07872772216794 L 0.75253826379776 123.09215545654294 L 7.022630903446431e-14 123.24745941162107 L -3.2916557788848877 123.92679595947263 L -3.310760974884033 123.93047332763669 L -3.317404270172119 123.93175506591794 L -3.334489345550537 123.93454742431638 L -6.811999797821045 124.53199768066403 L -6.836387634277344 124.53514862060544 L -13.376568794250488 125.2933654785156 L -13.404048919677734 125.29619598388669 L -17.327165603637695 125.61476898193357 L -17.382238388061523 125.61859130859372 L -20.95800018310547 125.82800292968747 L -20.98727035522461 125.82891845703122 L -27.609825134277344 125.96686553955075 L -27.639745712280273 125.966926574707 L -31.372314453125 125.88356018066403 L -31.399250030517578 125.88263702392575 L -32.768001556396484 125.77492523193357 L -38.083335876464844 125.35664367675778 L -38.108177185058594 125.35497283935544 L -38.12012481689453 125.35375213623044 L -38.12194061279297 125.35356140136716 L -38.12344741821289 125.35340881347653 L -38.14781188964844 125.34986877441403 L -40.220027923583984 125.05412292480466 L -42.90656280517578 124.54598999023435 L -42.92866897583008 124.54148864746091 L -45.82857894897461 123.79418182373044 L -45.84566879272461 123.78944396972653 L -45.848331451416016 123.788703918457 L -45.861961364746094 123.78402709960935 L -48.220001220703125 122.99999999999997 L -49.152000427246094 122.60912322998044 L -50.3849983215332 122.09200286865232 L -50.39568328857422 122.08656311035153 L -51.31666564941406 121.63401031494138 L -51.61960220336914 121.4637756347656 L -52.782501220703125 120.81028747558591 L -52.7938346862793 120.80368804931638 L -52.801876068115234 120.79826354980466 L -54.361000061035156 119.78299713134763 L -54.753971099853516 119.48280334472653 L -55.474998474121094 118.93199920654294 L -56.63199996948242 117.91500091552732 L -57.81100082397461 116.69899749755857 L -58.970001220703125 115.26200103759763 L -59.34382247924805 114.68800354003903 L -60.05500030517578 113.59600067138669 L -61.00199890136719 111.7149963378906 L -61.74800109863281 109.66500091552732 L -62.24800109863281 107.51399993896482 L -62.483001708984375 105.34600067138669 L -62.46500015258789 103.2409973144531 L -62.23099899291992 101.25800323486325 L -61.827999114990234 99.43199920654294 L -61.47128677368164 98.30400085449216 L -61.30400085449219 97.77500152587888 L -60.69599914550781 96.28199768066403 L -59.69200134277344 94.33000183105467 L -58.63999938964844 92.62100219726561 L -57.68699645996094 91.3130645751953 L -57.566001892089844 91.14700317382811 L -56.15574264526367 89.4181671142578 L -56.1475944519043 89.40808105468749 L -56.13774108886719 89.39578247070311 L -55.185001373291016 88.18599700927733 L -54.72600173950195 87.37799835205077 L -54.52299880981445 86.58000183105467 L -54.602413177490234 86.06183624267577 L -54.643001556396484 85.79699707031249 L -54.99280548095703 85.19371795654295 L -55.08599853515625 85.03299713134764 L -55.77899932861328 84.28800201416014 L -56.483558654785156 83.6619186401367 L -56.60499954223633 83.55400085449217 L -58.81821823120117 81.9199981689453 L -59.020599365234375 81.7705841064453 L -59.046142578125 81.7515411376953 L -59.06781768798828 81.73426055908202 L -63.634037017822266 78.1068878173828 L -63.66181564331055 78.08341979980467 L -63.869693756103516 77.90548706054686 L -65.53600311279297 76.47923278808592 L -66.96167755126953 75.25893402099608 L -66.99305725097656 75.23008728027342 L -71.74485778808594 70.77700805664061 L -71.76749420166016 70.75428009033202 L -74.08583068847656 68.38333892822264 L -74.10148620605469 68.36645507812499 L -76.64114379882812 65.53600311279295 L -78.13179016113281 63.874668121337876 L -78.1500015258789 63.85400009155272 L -78.17071533203125 63.82865905761717 L -81.35446166992188 59.92737579345702 L -81.37406158447266 59.90200042724608 L -83.48300170898438 57.14500045776366 L -83.49820709228516 57.1240882873535 L -85.97335815429688 53.696201324462876 L -85.99176788330078 53.66941070556639 L -90.06970977783203 47.56391525268554 L -90.08710479736328 47.53727722167968 L -90.10835266113281 47.50263595581054 L -91.10575866699219 45.92068862915038 L -92.6155014038086 43.41592407226562 L -93.58586120605469 41.80603027343749 L -93.60606384277344 41.77017593383788 L -94.41291809082031 40.37380981445312 L -95.72988891601562 38.00683975219726 L -95.77542877197266 37.91939163208007 L -97.75743865966797 34.11349868774413 L -97.78034210205078 34.06874465942382 L -98.39356994628906 32.76800155639648 L -99.68086242675781 30.0374526977539 L -99.69808197021484 29.998239517211907 L -100.91283416748047 27.14001274108886 L -102.29033660888672 23.540430068969723 L -102.3026351928711 23.507833480834957 L -102.30825805664062 23.491216659545895 L -103.74332427978516 19.271360397338864 L -103.81719970703125 19.027347564697262 L -104.41123962402344 17.06516647338867 L -104.42364501953125 17.02314186096191 L -105.04490661621094 14.809007644653317 L -106.12871551513672 10.47183322906494 L -106.14651489257812 10.400588035583494 L -106.15682983398438 10.358707427978514 L -107.18301391601562 5.380626678466796 L -107.18853759765625 5.353940963745116 L -107.19395446777344 5.32306671142578 L -108.0986328125 1.1102230246251565e-16 L -108.1427230834961 -0.259409725666046 L -108.14823913574219 -0.2969513237476347 L -108.60773468017578 -3.5600948333740225 L -109.23892974853516 -8.860718727111815 L -109.24205780029297 -8.885506629943846 L -109.2430648803711 -8.895437240600584 L -109.24746704101562 -8.939014434814451 L -109.70001983642578 -13.673947334289547 L -109.70169067382812 -13.699166297912594 L -109.92528533935547 -17.032686233520504 L -109.94186401367188 -17.2798900604248 L -110.06988525390625 -20.378290176391598 L -110.07099914550781 -20.403999328613278 L -110.11367797851562 -22.958541870117184 L -110.11404418945312 -22.988801956176754 L -110.00189971923828 -29.445619583129876 L -110.0009994506836 -29.48399925231933 L -109.81748962402344 -32.76800155639648 L -109.75487518310547 -33.88845062255859 L -109.75345611572266 -33.91573333740234 L -109.75314331054688 -33.919422149658196 L -109.4765625 -37.21559524536132 L -109.47211456298828 -37.26397323608398 L -108.84700775146484 -42.3671531677246 L -108.81710815429688 -42.61124038696288 L -108.8136978149414 -42.63717651367187 L -108.24006652832031 -46.17621994018554 L -108.23722076416016 -46.194107055664055 L -108.23191833496094 -46.22221374511718 L -107.15313720703125 -51.56948089599608 L -107.14786529541016 -51.594013214111314 L -105.76737976074219 -57.100070953369126 L -105.75800323486328 -57.13700103759764 L -104.88800048828125 -60.15299987792967 L -104.87535858154297 -60.19134140014647 L -103.830322265625 -63.454486846923814 L -103.4136962890625 -64.62528991699217 L -103.0896224975586 -65.53600311279295 L -102.52823638916016 -67.11361694335936 L -102.51395416259766 -67.15153503417967 L -100.85855865478516 -71.39521026611327 L -100.84332275390625 -71.4322052001953 L -99.30999755859375 -75.13500213623045 L -93.30712127685547 -84.87469482421874 L -93.302001953125 -84.88300323486327 L -93.26325988769531 -84.94352722167967 L -89.14264678955078 -91.41027069091795 L -86.05829620361328 -96.11059570312497 L -85.99065399169922 -96.21368408203122 L -85.95008850097656 -96.27281188964841 L -82.66610717773438 -100.89858245849607 L -76.64595794677734 -108.11660003662107 L -76.63043212890625 -108.13640594482419 L -76.61874389648438 -108.15048217773435 L -76.5939712524414 -108.17853546142575 L -70.15998077392578 -114.88346099853513 L -70.13999938964844 -114.90476989746091 L -70.10374450683594 -114.94085693359372 L -65.53600311279297 -119.18479156494138 L -65.35789489746094 -119.35026550292966 L -65.32763671875 -119.37734222412107 L -62.76912307739258 -121.44360351562497 L -62.75794219970703 -121.45251464843747 L -62.74013900756836 -121.46489715576169 L -60.30766677856445 -123.11531829833982 L -60.29505157470703 -123.12255859374997 L -58.98899841308594 -123.85199737548825 L -57.24100112915039 -124.67400360107419 L -55.573001861572266 -125.2669982910156 L -53.279998779296875 -125.79000091552732 L -50.141998291015625 -125.97499847412107 L -49.152000427246094 -125.80847167968747 L -46.15299987792969 -125.30400085449216 L -41.9119987487793 -123.26399993896482 L -38.47999954223633 -120.03800201416013 L -36.415000915527344 -116.54699707031247 L -35.457000732421875 -113.53800201416013 L -35.12200164794922 -111.19599914550778 L -35.07899856567383 -109.41100311279294 L -35.08012008666992 -109.39643859863278 L -35.1614990234375 -108.0278625488281 L -35.165496826171875 -108.0061340332031 L -35.4838752746582 -106.04717254638669 L -35.65874099731445 -104.97124481201169 L -36.469566345214844 -101.69818115234372 L -36.475013732910156 -101.67606353759763 L -36.48237228393555 -101.64154052734372 L -36.648094177246094 -100.97365570068357 L -36.91110610961914 -99.913703918457 L -36.94206619262695 -99.78065490722653 L -37.067909240722656 -99.23983764648435 L -37.2187614440918 -98.5570373535156 L -37.259422302246094 -98.30400085449216 L -37.45000076293945 -97.11799621582028 L -37.4489860534668 -97.11059570312497 L -37.427154541015625 -96.53398895263669 L -37.316001892089844 -96.13899993896482 L -37.099998474121094 -95.7419967651367 L -36.76499938964844 -95.35600280761717 L -36.75743865966797 -95.35069274902342 L -36.752723693847656 -95.3483200073242 L -34.63386154174805 -94.12265777587889 L -34.61258316040039 -94.11405944824217 L -33.31623458862305 -93.61906433105467 L -32.768001556396484 -93.4097213745117 L -29.190881729125977 -92.04383087158202 L -29.140222549438477 -92.02549743652342 L -23.19451332092285 -89.98702239990233 L -23.123126983642578 -89.96459960937499 L -16.753644943237305 -87.99460601806639 L -13.235647201538086 -86.85899353027342 L -11.191484451293945 -86.19913482666014 L -11.099713325500488 -86.1695098876953 L -11.059805870056152 -86.15660095214842 L -8.333572387695312 -85.1552276611328 L -8.317159652709961 -85.14923095703124 L -8.296574592590332 -85.1400680541992 L -6.008999824523926 -84.09899902343749 L -4.1570000648498535 -83.01599884033202 L -1.3209999799728394 -80.69200134277342 L 0 -78.60848999023436 L 2.2790000438690186 -75.01399993896483 L 2.5250000953674316 -65.38200378417967 L 0 -61.57249069213866 L -2.2360000610351562 -58.199001312255845 L -6.620999813079834 -55.5449981689453 L -9.329000473022461 -54.668998718261705 L -11.10099983215332 -54.31499862670897 L -12.944000244140625 -54.090000152587876 L -16.101945877075195 -53.918308258056626 L -16.129060745239258 -53.91696166992186 L -19.265172958374023 -53.92887115478514 L -19.290279388427734 -53.92913436889647 L -19.34442138671875 -53.93142700195311 L -28.23668670654297 -54.278781890869126 L -28.250694274902344 -54.27909088134764 L -32.46062469482422 -54.27611160278319 L -32.50349044799805 -54.275661468505845 L -32.768001556396484 -54.26356506347655 L -39.16462326049805 -53.97103118896483 L -39.165740966796875 -53.970981597900376 L -39.170875549316406 -53.970798492431626 L -39.17595291137695 -53.97061157226561 L -39.180973052978516 -53.97038269042967 L -39.193145751953125 -53.969726562499986 L -39.229862213134766 -53.966308593749986 L -43.953880310058594 -53.47703552246092 L -43.979923248291016 -53.472961425781236 L -46.74568176269531 -53.016010284423814 L -47.06144714355469 -52.963840484619126 L -49.539573669433594 -52.440822601318345 L -49.5629997253418 -52.436000823974595 L -49.941001892089844 -52.13600158691405 L -49.9476432800293 -52.11825561523436 L -51.138275146484375 -48.812686920166 L -51.15445327758789 -48.767780303955064 L -51.522647857666016 -47.556011199951165 L -51.52954864501953 -47.53344345092773 L -51.93645095825195 -46.075550079345696 L -52.38900375366211 -44.30999755859374 L -52.39400100708008 -44.29100036621093 L -52.3953742980957 -44.285137176513665 L -52.900001525878906 -42.1339988708496 L -53.459999084472656 -39.52600097656249 L -54.07500076293945 -36.390998840332024 L -54.39358139038086 -32.76800155639648 L -54.435001373291016 -32.29700088500976 L -54.707000732421875 -28.604000091552727 L -54.832000732421875 -25.58499908447265 L -54.79499816894531 -23.322000503540036 L -54.61800003051758 -21.721000671386715 L -54.3390007019043 -20.590000152587887 L -53.99958419799805 -19.745433807373043 L -53.62543487548828 -19.036830902099606 L -53.61849594116211 -19.022512435913082 L -53.61357879638672 -19.014377593994137 L -53.22449493408203 -18.37047958374023 L -52.83070755004883 -17.75663375854492 L -52.819580078125 -17.73928833007812 L -52.79920959472656 -17.709003448486325 L -52.3863525390625 -17.08475875854492 L -51.96952819824219 -16.465475082397457 L -51.91389846801758 -16.38400077819824 L -51.54873275756836 -15.84917068481445 L -51.12694549560547 -15.234849929809567 L -50.69920349121094 -14.644348144531246 L -50.099361419677734 -13.841467857360836 L -50.05709457397461 -13.784893989562985 L -48.98823547363281 -12.416318893432614 L -48.97010040283203 -12.393057823181149 L -47.68391036987305 -10.857353210449217 L -47.6809196472168 -10.853783607482908 L -47.665771484375 -10.837068557739256 L -46.78448486328125 -9.851575851440428 L -45.86548614501953 -8.990137100219725 L -45.858551025390625 -8.984513282775877 L -45.425689697265625 -8.672206878662108 L -45.40599822998047 -8.657999992370604 L -44.96099853515625 -8.48299980163574 L -44.53200149536133 -8.536000251770018 L -44.119998931884766 -8.87100028991699 L -43.72100067138672 -9.49600028991699 L -43.33395004272461 -10.352476119995115 L -43.32807540893555 -10.366521835327147 L -42.944000244140625 -11.354000091552733 L -41.77299880981445 -14.15200042724609 L -40.99700164794922 -15.595000267028805 L -40.88728332519531 -15.766504287719723 L -40.49225616455078 -16.38400077819824 L -40.0629997253418 -17.055000305175778 L -38.95000076293945 -18.510000228881832 L -37.64099884033203 -19.930000305175778 L -36.13100051879883 -21.26899909973144 L -34.43199920654297 -22.47900009155273 L -32.768001556396484 -23.404342651367184 L -32.577999114990234 -23.510000228881832 L -30.624000549316406 -24.325000762939446 L -28.631999969482422 -24.903999328613274 L -26.66699981689453 -25.250999450683587 L -24.781999588012695 -25.38999938964843 L -23.013999938964844 -25.353000640869134 L -21.385000228881836 -25.180999755859368 L -19.899999618530273 -24.908000946044915 L -17.34843635559082 -24.184511184692376 L -17.32054901123047 -24.17583274841308 L -15.190771102905273 -23.322334289550778 L -15.182999610900879 -23.31900024414062 L -12.522000312805176 -21.924999237060543 L -12.505504608154297 -21.9141674041748 L -9.869583129882812 -20.139682769775387 L -9.853775978088379 -20.12730026245117 L -8.123952865600586 -18.74284744262695 L -8.111912727355957 -18.731870651245114 L -8.108885765075684 -18.729110717773434 L -8.100457191467285 -18.72072029113769 L -5.699802875518799 -16.38400077819824 L -2.734332323074341 -13.497506141662594 L -2.721074342727661 -13.48406887054443 L -2.717043161392212 -13.47998237609863 L -2.683591365814209 -13.447611808776852 L -2.0115880966186523 -12.794010162353512 L 0 -10.83750534057617 L 1.1581448316574097 -9.71107482910156 L 1.8865959644317627 -9.021327972412108 L 2.624971628189087 -8.324635505676268 L 3.371286630630493 -7.624964714050291 L 4.015429973602295 -7.0250110626220685 L 4.123556613922119 -6.924302101135252 L 4.881780624389648 -6.223639488220213 L 5.643974781036377 -5.522976398468017 L 5.677933216094971 -5.491339206695556 L 5.7131733894348145 -5.459364414215087 L 6.44905948638916 -4.791668415069579 L 7.074788570404053 -4.23025894165039 L 7.231101989746094 -4.090013504028319 L 8.029024124145508 -3.3833959102630606 L 8.847787857055664 -2.668838739395141 z" fill="none" stroke="rgb(255,0,0)" stroke-width="0.001mm" />
</svg>